<?xml version="1.0" encoding="UTF-8"?>
<svg version="1.1" xmlns="http://www.w3.org/2000/svg" width="512" height="512">
<path d="M0 0 C0.86367188 0.70125 1.72734375 1.4025 2.6171875 2.125 C3.29523438 2.66125 3.97328125 3.1975 4.671875 3.75 C24.69408231 20.1237162 37.06854729 45.13062555 47.6171875 68.125 C48.2978125 68.05571289 48.9784375 67.98642578 49.6796875 67.91503906 C58.3247852 67.10743519 66.94041407 66.88344068 75.6171875 66.875 C76.34129822 66.87399292 77.06540894 66.87298584 77.8114624 66.87194824 C89.62702051 66.88301607 101.05178498 67.58115442 112.6171875 70.125 C113.63135742 70.3418042 113.63135742 70.3418042 114.66601562 70.56298828 C137.38920045 75.57741543 157.85431477 87.04391222 170.64453125 106.859375 C177.82773819 118.75078292 181.8825284 131.64175152 181.50195312 145.56103516 C181.28896978 153.67023219 181.38674573 160.19964256 184.7109375 167.7265625 C187.45757782 174.99568817 185.77386475 182.56903783 182.9453125 189.55078125 C179.42329866 196.37727279 174.04672562 201.09078 167.6171875 205.125 C166.9571875 205.125 166.2971875 205.125 165.6171875 205.125 C165.39546875 205.93195313 165.17375 206.73890625 164.9453125 207.5703125 C163.26031448 212.08016015 160.9050336 215.92447771 158.3671875 220 C157.90183594 220.76441406 157.43648438 221.52882812 156.95703125 222.31640625 C154.54692347 226.22702191 152.057338 229.83778187 149.1328125 233.3828125 C147.63005336 235.26359197 147.63005336 235.26359197 146.6171875 237.125 C147.21086587 241.08095301 149.67551349 243.70536975 152.1171875 246.8125 C171.98833259 273.60789165 185.96562793 308.45977079 181.11328125 342.15234375 C177.23065471 362.23106955 166.42912052 379.07271072 149.87890625 390.9921875 C128.39174345 405.04247599 103.73120361 409.32873079 78.49829102 409.25537109 C76.31975258 409.25003689 74.1414226 409.25532937 71.96289062 409.26171875 C63.80578152 409.26519445 55.73660297 408.97885636 47.6171875 408.125 C47.33633301 408.73794922 47.05547852 409.35089844 46.76611328 409.98242188 C38.39822989 428.13716442 29.26936173 444.62870065 16.6171875 460.125 C15.95074219 460.94613281 15.28429687 461.76726562 14.59765625 462.61328125 C1.29347825 478.30191478 -17.88256323 490.86482029 -38.3828125 494.125 C-61.52350347 496.00418406 -81.71037187 491.41480416 -100.1328125 476.875 C-101.90820199 475.32018921 -103.65704283 473.73470913 -105.3828125 472.125 C-105.89263672 471.65610352 -106.40246094 471.18720703 -106.92773438 470.70410156 C-125.7409422 453.25727918 -137.99876782 431.36264726 -148.3828125 408.125 C-149.0634375 408.19428711 -149.7440625 408.26357422 -150.4453125 408.33496094 C-159.09028544 409.14255316 -167.70610372 409.36767841 -176.3828125 409.375 C-177.46997559 409.37601212 -177.46997559 409.37601212 -178.57910156 409.37704468 C-190.38465436 409.35966255 -201.84219956 408.77357979 -213.3828125 406.125 C-214.10774902 405.95871094 -214.83268555 405.79242188 -215.57958984 405.62109375 C-230.83221641 401.94822046 -245.80930162 395.93893677 -257.3828125 385.125 C-258.22199219 384.37605469 -259.06117188 383.62710937 -259.92578125 382.85546875 C-274.27515816 369.41785255 -281.51866818 351.64873554 -282.6015625 332.1953125 C-282.96502477 320.2482243 -282.93574893 302.20838057 -274.9987793 292.41772461 C-272.26148466 290.22797161 -269.73826622 290.77179435 -266.3828125 291.125 C-264.0078125 292.1875 -264.0078125 292.1875 -262.3828125 294.125 C-260.56363829 299.82507918 -261.9853469 304.41054146 -263.59375 310.0625 C-267.77362243 326.28537123 -266.06785317 343.51614317 -258.171875 358.27734375 C-248.27818091 374.02516688 -233.30974292 382.5814235 -215.9453125 387.875 C-215.30263428 388.07375732 -214.65995605 388.27251465 -213.99780273 388.47729492 C-201.6897612 392.0070627 -189.15082841 392.50225339 -176.4453125 392.4375 C-175.29687866 392.43426727 -175.29687866 392.43426727 -174.12524414 392.43096924 C-161.01949192 392.37207846 -148.28423444 391.56975967 -135.3828125 389.125 C-134.35381836 388.93164062 -133.32482422 388.73828125 -132.26464844 388.5390625 C-57.12544913 373.97424014 16.33748493 336.41146556 74.6171875 287.125 C75.60332031 286.31160156 76.58945312 285.49820312 77.60546875 284.66015625 C91.84553553 272.86155771 105.59557638 260.19493875 117.6171875 246.125 C118.16810059 245.48594727 118.71901367 244.84689453 119.28662109 244.18847656 C129.52591768 232.24212699 138.63182061 219.69211164 146.6171875 206.125 C145.7303125 206.021875 144.8434375 205.91875 143.9296875 205.8125 C140.53903482 205.10877963 138.5080252 203.96193775 135.6171875 202.125 C135.03324219 202.96417969 135.03324219 202.96417969 134.4375 203.8203125 C133.22476746 205.55837619 132.00818284 207.29375463 130.7890625 209.02734375 C129.3097791 211.137185 127.84143252 213.25472709 126.3828125 215.37890625 C120.05769035 224.51387771 113.0605006 232.88343085 105.6171875 241.125 C105.05483398 241.75051758 104.49248047 242.37603516 103.91308594 243.02050781 C92.08411178 256.11952602 79.45238896 268.15552614 65.6171875 279.125 C64.48978791 280.04292451 63.36355216 280.9622797 62.23828125 281.8828125 C-6.63001616 338.00253605 -102.21672072 386.65203594 -193.33105469 379.90673828 C-211.66395886 377.97570858 -230.48216413 372.45629653 -243.41015625 358.63671875 C-251.7668839 347.99637047 -254.47661566 335.42425748 -253.3828125 322.125 C-248.56446098 286.57447368 -226.73313558 257.00862767 -202.72705078 231.57080078 C-200.81002479 229.50893592 -198.974056 227.3795008 -197.1328125 225.25 C-194.08138605 221.7879261 -190.82658657 218.77274321 -187.3046875 215.796875 C-185.45820306 214.19058366 -183.76748227 212.51182386 -182.0703125 210.75 C-178.00419077 206.62917708 -173.53410481 203.0644931 -169.01953125 199.44970703 C-167.271319 198.03476078 -165.54498215 196.59587748 -163.8203125 195.15234375 C-95.55163745 138.30850857 1.75151557 89.5239991 92.52246094 96.34326172 C110.82911634 98.28591128 129.4587237 103.62980315 142.38671875 117.359375 C148.89371546 125.42759508 151.56798893 133.92244835 152.6171875 144.125 C153.38804687 144.18558594 154.15890625 144.24617187 154.953125 144.30859375 C155.95601563 144.39238281 156.95890625 144.47617188 157.9921875 144.5625 C159.48878906 144.68431641 159.48878906 144.68431641 161.015625 144.80859375 C163.6171875 145.125 163.6171875 145.125 165.6171875 146.125 C162.50465546 126.18455082 155.89672116 111.42391063 139.359375 98.953125 C108.28998634 78.24019923 63.95088727 81.56016663 29.01953125 88.37890625 C-34.8919786 101.55224848 -96.95546043 130.35332662 -149.3828125 169.125 C-150.41438477 169.88272705 -150.41438477 169.88272705 -151.46679688 170.65576172 C-159.96890249 176.91088228 -168.31094233 183.31930555 -176.3828125 190.125 C-176.94774414 190.59969727 -177.51267578 191.07439453 -178.09472656 191.56347656 C-187.24172271 199.25342782 -187.24172271 199.25342782 -195.8203125 207.5625 C-197.55346848 209.29565598 -199.38469898 210.85706047 -201.2578125 212.4375 C-205.1951177 215.83721161 -208.61290611 219.57156811 -212.04296875 223.4765625 C-213.58693433 225.22415626 -215.1570769 226.94901121 -216.75390625 228.6484375 C-226.95576854 239.51954195 -235.55060347 251.50743177 -243.4765625 264.109375 C-249.54190341 273.70454545 -249.54190341 273.70454545 -252.3828125 275.125 C-256.43544848 275.66535146 -257.92011481 275.46699395 -261.2578125 273 C-263.80416974 269.55492844 -263.80129767 268.31501819 -263.3828125 264.125 C-262.16796875 261.37109375 -262.16796875 261.37109375 -260.4453125 258.5625 C-259.81882812 257.52867187 -259.19234375 256.49484375 -258.546875 255.4296875 C-257.02465367 253.10514013 -255.48788407 250.86600141 -253.84375 248.6328125 C-253.21521118 247.76958374 -253.21521118 247.76958374 -252.57397461 246.88891602 C-251.37150331 245.25697396 -250.14137587 243.64551967 -248.91015625 242.03515625 C-247.08656427 239.29445987 -247.08656427 239.29445987 -247.8515625 236.671875 C-249.77518121 233.47238674 -251.81611837 230.37679681 -253.9453125 227.3125 C-273.01207464 199.15939647 -287.34121289 166.00358685 -281.2578125 131.375 C-278.42880958 119.05896868 -273.26538115 108.93831927 -265.3828125 99.125 C-264.46048828 97.89716797 -264.46048828 97.89716797 -263.51953125 96.64453125 C-246.61707918 76.71385193 -218.38868299 69.24915943 -193.3828125 67.125 C-188.52730067 66.87043566 -183.67200777 66.87585541 -178.8112793 66.91918945 C-176.68591343 66.93758134 -174.56098468 66.93969701 -172.43554688 66.93945312 C-164.37928388 66.96077986 -156.40174363 67.29571865 -148.3828125 68.125 C-147.97724121 67.22914185 -147.97724121 67.22914185 -147.56347656 66.31518555 C-138.72072286 46.93413757 -128.98617719 28.7845829 -114.3828125 13.125 C-113.90875977 12.60856934 -113.43470703 12.09213867 -112.94628906 11.56005859 C-82.22267634 -21.6366305 -36.64850978 -28.77442677 0 0 Z M-98.3828125 20.125 C-99.05957031 20.73859375 -99.73632812 21.3521875 -100.43359375 21.984375 C-132.63099544 52.18153731 -151.04170891 108.92833956 -155.3828125 152.125 C-148.69692423 149.58593209 -142.11252293 146.87360401 -138.97216797 140.06787109 C-138.09626798 137.00628614 -137.34618398 133.95774062 -136.72488403 130.83462524 C-136.02708556 127.34689614 -135.19056401 123.89140011 -134.375 120.4296875 C-134.21340897 119.72836197 -134.05181793 119.02703644 -133.8853302 118.30445862 C-125.83242613 83.81482173 -108.01834633 39.7569298 -76.9453125 19.75 C-64.41939372 12.55487921 -52.46017424 9.75508367 -38.1328125 12.8203125 C-35.40977083 13.74088625 -32.93856002 14.81236808 -30.3828125 16.125 C-29.54621094 16.54910156 -28.70960938 16.97320312 -27.84765625 17.41015625 C-5.51790132 29.80023665 6.45184014 52.26049932 17.6171875 74.125 C21.9071875 73.135 26.1971875 72.145 30.6171875 71.125 C24.43627229 52.58225437 13.04847416 36.15837882 -0.3828125 22.125 C-1.15109375 21.28195313 -1.919375 20.43890625 -2.7109375 19.5703125 C-14.8506157 6.68658951 -30.72825981 -1.51952297 -48.40234375 -2.8359375 C-68.3017229 -3.09674194 -84.47268411 6.7973728 -98.3828125 20.125 Z M-76.3828125 39.125 C-76.98738281 39.64707031 -77.59195313 40.16914062 -78.21484375 40.70703125 C-88.56964989 50.28583318 -96.08200781 63.64514531 -102.3828125 76.125 C-102.3828125 76.785 -102.3828125 77.445 -102.3828125 78.125 C-101.61428955 78.35574219 -100.8457666 78.58648437 -100.05395508 78.82421875 C-96.43200174 79.91666098 -92.81289834 81.01820163 -89.1953125 82.125 C-88.54053925 82.32486511 -87.88576599 82.52473022 -87.21115112 82.73065186 C-77.59836737 85.67654056 -68.17568076 88.90116688 -58.9074707 92.82421875 C-58.12718506 93.14261719 -57.34689941 93.46101563 -56.54296875 93.7890625 C-55.87918213 94.07217285 -55.21539551 94.3552832 -54.53149414 94.64697266 C-49.63294757 95.73677543 -44.93720847 93.73977678 -40.375 92.05078125 C-39.23192383 91.63296387 -38.08884766 91.21514648 -36.91113281 90.78466797 C-35.70553711 90.34010254 -34.49994141 89.89553711 -33.2578125 89.4375 C-21.74274911 85.24952216 -10.17187908 81.46614099 1.6171875 78.125 C-4.25938936 58.64414771 -20.25413531 39.13371943 -37.81640625 29.40234375 C-52.2055096 22.24064391 -65.57962117 29.49566987 -76.3828125 39.125 Z M-250.3828125 107.125 C-251.0325 107.76308594 -251.6821875 108.40117188 -252.3515625 109.05859375 C-263.55960387 120.88111108 -267.04616095 136.43932829 -266.66796875 152.33984375 C-265.31649029 170.27933178 -258.83143077 186.48822707 -250.3828125 202.125 C-250.03782715 202.76421387 -249.6928418 203.40342773 -249.33740234 204.06201172 C-245.49760989 211.1103731 -241.4841426 217.90292313 -236.3828125 224.125 C-232.05640921 222.17950816 -230.0952663 219.999934 -227.3828125 216.125 C-227.67341964 212.33096238 -229.91991176 209.49831856 -231.9453125 206.375 C-245.212616 185.3470632 -256.39831402 160.2454935 -251.1953125 134.953125 C-247.4300033 121.8469526 -239.83393767 113.50178277 -228.14819336 106.92626953 C-223.56541519 104.51782853 -218.89828904 102.74187413 -213.9453125 101.25 C-213.3150415 101.05897705 -212.68477051 100.8679541 -212.03540039 100.67114258 C-199.34749861 97.18840594 -186.49037055 96.84180573 -173.4453125 97 C-171.97201143 97.01006997 -170.49870354 97.01918858 -169.02539062 97.02734375 C-165.47771866 97.04899313 -161.93031228 97.08329113 -158.3828125 97.125 C-157.71223363 95.3347939 -157.0464656 93.54278511 -156.3828125 91.75 C-155.8259375 90.25339844 -155.8259375 90.25339844 -155.2578125 88.7265625 C-154.27654973 86.26651939 -154.27654973 86.26651939 -154.3828125 84.125 C-186.84535651 78.98088775 -226.237732 83.02126381 -250.3828125 107.125 Z M-109.3828125 93.125 C-110.0536837 94.7482687 -110.71938279 96.37367578 -111.3828125 98 C-111.7540625 98.90492187 -112.1253125 99.80984375 -112.5078125 100.7421875 C-113.49771476 103.01483858 -113.49771476 103.01483858 -113.3828125 105.125 C-109.68112612 106.33394262 -105.97063974 107.51326247 -102.2578125 108.6875 C-101.21109375 109.02974609 -100.164375 109.37199219 -99.0859375 109.72460938 C-97.55839844 110.20317383 -97.55839844 110.20317383 -96 110.69140625 C-95.06784668 110.98990479 -94.13569336 111.28840332 -93.17529297 111.59594727 C-87.30824151 112.70749653 -82.73903678 110.57135246 -77.5078125 108.0625 C-76.35539062 107.51464844 -75.20296875 106.96679688 -74.015625 106.40234375 C-73.14679688 105.98082031 -72.27796875 105.55929688 -71.3828125 105.125 C-74.97422944 101.53358306 -80.29171279 100.69759365 -85.05712891 99.18383789 C-86.98279721 98.57046795 -88.90353556 97.94323351 -90.82421875 97.31445312 C-97.02858521 95.32554027 -102.87250131 93.59236491 -109.3828125 93.125 Z M-229.87109375 127.59375 C-235.64823404 134.00143363 -237.78698013 141.7536396 -237.66015625 150.22265625 C-236.16163672 165.90434654 -229.93866641 179.94787318 -222.2578125 193.5 C-221.83806152 194.25667969 -221.41831055 195.01335937 -220.98583984 195.79296875 C-220.5780127 196.48777344 -220.17018555 197.18257813 -219.75 197.8984375 C-219.39019043 198.52153809 -219.03038086 199.14463867 -218.65966797 199.78662109 C-218.23830566 200.22828613 -217.81694336 200.66995117 -217.3828125 201.125 C-212.49555498 201.125 -211.10068553 199.46116685 -207.8203125 196.25 C-206.7436695 195.23158059 -205.66684285 194.21335532 -204.58984375 193.1953125 C-204.05053223 192.6787207 -203.5112207 192.16212891 -202.95556641 191.62988281 C-195.96224085 184.93834933 -188.73636356 178.6841844 -181.06494141 172.79101562 C-174.48984548 167.86655311 -174.48984548 167.86655311 -172.171875 160.26171875 C-171.88606567 158.48063721 -171.88606567 158.48063721 -171.59448242 156.66357422 C-171.40088135 155.39271973 -171.20728027 154.12186523 -171.0078125 152.8125 C-170.58424298 150.18266871 -170.15747885 147.55373718 -169.72265625 144.92578125 C-169.61417862 144.26719116 -169.50570099 143.60860107 -169.39393616 142.93005371 C-168.19704653 135.79614474 -166.59760403 128.77131039 -164.90673828 121.7409668 C-164.70677246 120.90605713 -164.50680664 120.07114746 -164.30078125 119.2109375 C-164.12313232 118.4895459 -163.9454834 117.7681543 -163.76245117 117.02490234 C-163.28483925 114.95760284 -163.28483925 114.95760284 -163.3828125 112.125 C-199.25362628 110.95854058 -199.25362628 110.95854058 -229.87109375 127.59375 Z M62.6171875 112.125 C64.31922309 121.86915376 66.34915536 131.53648249 68.40625 141.2109375 C69.66564856 147.21534275 70.75787312 153.13415512 71.4921875 159.2265625 C72.07961018 163.14569401 72.39091965 164.82114299 74.79296875 168.046875 C75.72496094 168.73265625 76.65695312 169.4184375 77.6171875 170.125 C78.76342412 171.12231745 79.90225806 172.12818133 81.03515625 173.140625 C82.29027217 174.2203731 83.54683655 175.29843931 84.8046875 176.375 C89.21351251 180.17188974 93.60802486 183.97864384 97.9296875 187.875 C98.70183594 188.56980469 99.47398437 189.26460938 100.26953125 189.98046875 C101.96461256 191.52888746 103.6422372 193.09649122 105.30859375 194.67578125 C106.19417969 195.50464844 107.07976562 196.33351563 107.9921875 197.1875 C108.78367187 197.94160156 109.57515625 198.69570312 110.390625 199.47265625 C112.69042737 201.5222899 112.69042737 201.5222899 116.6171875 201.125 C118.29668583 199.06557924 119.59344138 197.2020341 120.9296875 194.9375 C121.30158203 194.35935547 121.67347656 193.78121094 122.05664062 193.18554688 C123.66483474 190.53517109 124.67976841 188.7527647 124.3671875 185.6171875 C124.1196875 184.79476562 123.8721875 183.97234375 123.6171875 183.125 C122.77759001 171.85237142 123.81592553 163.32207832 131.2421875 154.5625 C133.02126795 152.63192579 134.27023744 151.29847503 136.6171875 150.125 C137.10439525 141.19285795 135.46079365 134.92300327 129.6796875 127.9375 C118.92508917 116.76726502 101.61003303 112.41288013 86.45410156 112.04907227 C82.84120505 112.02679824 79.23005883 112.03770204 75.6171875 112.0625 C73.73966797 112.06926758 73.73966797 112.06926758 71.82421875 112.07617188 C68.75515809 112.08788585 65.68619843 112.10428927 62.6171875 112.125 Z M39.5546875 115.125 C38.44996094 115.310625 37.34523438 115.49625 36.20703125 115.6875 C34.92505859 115.9040625 34.92505859 115.9040625 33.6171875 116.125 C34.68283158 121.57153939 35.80026978 127.00369613 36.984375 132.42578125 C39.6859195 144.90748782 42.11537997 157.34434649 43.8671875 170 C44.01784668 171.07677002 44.16850586 172.15354004 44.32373047 173.26293945 C44.80059598 176.87912485 45.21818087 180.49963828 45.6171875 184.125 C45.70538757 184.88865875 45.79358765 185.6523175 45.88446045 186.43911743 C47.85266351 203.90184419 47.86233102 221.29314685 47.7545166 238.83581543 C47.7336483 242.60471268 47.72483752 246.37363914 47.71484375 250.14257812 C47.69372129 257.47012852 47.65982471 264.79753972 47.6171875 272.125 C48.15476181 271.71734406 48.69233612 271.30968811 49.24620056 270.88967896 C49.95764725 270.35261322 50.66909393 269.81554749 51.40209961 269.26220703 C52.10467392 268.73080109 52.80724823 268.19939514 53.53111267 267.65188599 C55.6171875 266.125 55.6171875 266.125 57.44142151 265.00656128 C59.93474511 263.34625897 61.44058797 261.81246062 62.19091797 258.89160156 C62.48363456 255.99451291 62.55218599 253.16199033 62.5546875 250.25 C62.58405396 248.60100708 62.58405396 248.60100708 62.61401367 246.91870117 C62.65753448 243.31955533 62.64492937 239.72426784 62.6171875 236.125 C62.61299805 234.9395459 62.60880859 233.7540918 62.60449219 232.53271484 C62.31323614 192.60366755 57.04091615 152.66202685 46.6171875 114.125 C44.26818042 114.125 41.8598136 114.73676824 39.5546875 115.125 Z M-118.3828125 120.125 C-119.86601522 123.96387763 -120.60700413 126.18704091 -119.3828125 130.125 C-117.71100976 129.17565487 -116.04547314 128.21526687 -114.3828125 127.25 C-113.4546875 126.71632812 -112.5265625 126.18265625 -111.5703125 125.6328125 C-110.4875 124.88644531 -110.4875 124.88644531 -109.3828125 124.125 C-109.3828125 123.465 -109.3828125 122.805 -109.3828125 122.125 C-113.8378125 121.135 -113.8378125 121.135 -118.3828125 120.125 Z M12.5546875 121.125 C11.45447266 121.4034375 11.45447266 121.4034375 10.33203125 121.6875 C9.48318359 121.9040625 9.48318359 121.9040625 8.6171875 122.125 C8.6171875 122.785 8.6171875 123.445 8.6171875 124.125 C10.79184743 125.75952997 10.79184743 125.75952997 13.4921875 127.3125 C14.84957031 128.13814453 14.84957031 128.13814453 16.234375 128.98046875 C17.02070313 129.35816406 17.80703125 129.73585937 18.6171875 130.125 C19.2771875 129.795 19.9371875 129.465 20.6171875 129.125 C19.6271875 126.155 18.6371875 123.185 17.6171875 120.125 C15.87891521 120.125 14.23215526 120.69897644 12.5546875 121.125 Z M-23.1328125 132.625 C-24.30328125 133.0890625 -25.47375 133.553125 -26.6796875 134.03125 C-28.01773438 134.57265625 -28.01773438 134.57265625 -29.3828125 135.125 C-29.3828125 135.785 -29.3828125 136.445 -29.3828125 137.125 C-28.87830566 137.37668945 -28.37379883 137.62837891 -27.85400391 137.88769531 C-25.56558735 139.03796597 -23.28681122 140.20618876 -21.0078125 141.375 C-20.21375 141.77074219 -19.4196875 142.16648438 -18.6015625 142.57421875 C-17.84101563 142.96738281 -17.08046875 143.36054688 -16.296875 143.765625 C-15.2442749 144.29978027 -15.2442749 144.29978027 -14.17041016 144.84472656 C-12.00640335 146.39458339 -11.28208682 147.63552376 -10.3828125 150.125 C-10.81759511 155.55978261 -10.81759511 155.55978261 -13.3828125 158.125 C-20.58310902 159.56255586 -25.92232351 156.84110208 -32.0078125 153.3125 C-41.15032632 147.49869738 -41.15032632 147.49869738 -51.35546875 145.234375 C-55.00897302 146.30921238 -58.39736587 147.72817641 -61.8203125 149.375 C-62.54694092 149.72143555 -63.27356934 150.06787109 -64.0222168 150.42480469 C-74.41602761 155.48436369 -84.39778605 161.31220891 -94.3828125 167.125 C-95.27500488 167.64143066 -96.16719727 168.15786133 -97.08642578 168.68994141 C-102.1080702 171.60570467 -107.06939921 174.59982363 -111.99414062 177.67626953 C-115.10793997 179.56479011 -118.30200263 181.29271795 -121.52050781 182.99584961 C-127.95891128 187.01523558 -127.95891128 187.01523558 -132.15661621 193.09043884 C-132.56283803 195.3592432 -132.73419567 197.54070301 -132.828125 199.84375 C-132.8879657 200.70379639 -132.9478064 201.56384277 -133.00946045 202.44995117 C-133.66681396 213.15008737 -133.68237111 223.8901272 -133.64355469 234.60644531 C-133.63282588 238.12061813 -133.64352109 241.63427996 -133.65625 245.1484375 C-133.66601884 255.60123439 -133.53681224 266.04724923 -132.73046875 276.47265625 C-132.68492859 277.2771521 -132.63938843 278.08164795 -132.59246826 278.91052246 C-132.20983973 282.96014465 -131.60242469 285.3673251 -128.63183594 288.24560547 C-126.34431745 289.97674984 -124.28490899 291.50451763 -121.73828125 292.78515625 C-118.57779713 294.45474964 -115.5621487 296.24452963 -112.55859375 298.18359375 C-100.98410621 305.63406779 -89.02715213 312.3209124 -76.88330078 318.79101562 C-74.55380731 320.03377605 -72.23086045 321.28779739 -69.91015625 322.546875 C-60.22400684 328.54776247 -60.22400684 328.54776247 -49.53515625 331.078125 C-45.12598752 329.74499344 -41.08453692 327.88388915 -36.9453125 325.875 C-36.03152832 325.43462402 -35.11774414 324.99424805 -34.17626953 324.54052734 C-13.67366043 314.50333562 5.9843796 302.62278538 24.7421875 289.625 C25.62209351 289.02909058 25.62209351 289.02909058 26.51977539 288.42114258 C29.69588641 286.16574146 30.97125418 284.93140205 31.6171875 281.125 C32.63514206 272.16341235 32.76513952 263.19649368 32.75 254.1875 C32.75095673 252.90496338 32.75191345 251.62242676 32.75289917 250.30102539 C32.75435888 247.60854869 32.752278 244.91610555 32.74755859 242.22363281 C32.74186238 238.8118065 32.74515077 235.40005892 32.75113106 231.98823547 C32.75566022 228.67965106 32.75246809 225.37108663 32.75 222.0625 C32.75303635 220.25567749 32.75303635 220.25567749 32.75613403 218.41235352 C33.23553699 203.89523667 33.23553699 203.89523667 29.6171875 190.125 C27.39940522 188.12498723 27.39940522 188.12498723 24.6796875 186.42578125 C23.70257813 185.77416016 22.72546875 185.12253906 21.71875 184.45117188 C20.69523438 183.78666016 19.67171875 183.12214844 18.6171875 182.4375 C16.5952871 181.10187436 14.57440292 179.76470869 12.5546875 178.42578125 C11.65621094 177.83966064 10.75773438 177.25354004 9.83203125 176.6496582 C7.6171875 175.125 7.6171875 175.125 5.6171875 173.125 C5.18607411 169.24497946 5.08544978 166.97578036 7.1796875 163.625 C9.86419055 161.97299812 11.38383551 161.73686848 14.46875 162.36328125 C19.13278581 164.01689395 23.37096883 166.61412567 27.6171875 169.125 C27.47505453 167.22888566 27.32831843 165.33311606 27.1796875 163.4375 C27.09847656 162.38175781 27.01726562 161.32601562 26.93359375 160.23828125 C26.82917969 159.21089844 26.72476563 158.18351562 26.6171875 157.125 C26.53533203 156.29798584 26.45347656 155.47097168 26.36914062 154.61889648 C25.38330727 151.34932255 24.20763427 150.77268245 21.26953125 149.109375 C20.36122559 148.58432373 19.45291992 148.05927246 18.51708984 147.51831055 C17.05070068 146.70487183 17.05070068 146.70487183 15.5546875 145.875 C14.5642041 145.31014893 13.5737207 144.74529785 12.55322266 144.16333008 C10.53959514 143.01744377 8.52200696 141.87848901 6.50048828 140.74658203 C3.89703625 139.28238826 1.31428981 137.78912632 -1.26171875 136.27734375 C-2.67671405 135.45509334 -4.09205352 134.6334348 -5.5078125 133.8125 C-6.47279663 133.24450684 -6.47279663 133.24450684 -7.45727539 132.66503906 C-13.47220217 129.24464327 -16.91040285 130.13603614 -23.1328125 132.625 Z M141.8046875 166.1875 C138.2807397 170.91965847 137.95116441 174.32108451 138.6171875 180.125 C139.96099093 184.28593353 142.16938476 187.14460097 145.8046875 189.5625 C149.98950166 191.63694651 154.04411842 191.95115664 158.6171875 191.125 C163.9207103 188.42320537 167.71551048 184.83003105 169.6171875 179.125 C170.26319425 173.63394263 169.2261906 170.3623566 166.16796875 165.92578125 C162.78018581 161.99185697 159.26500896 160.32736404 154.0546875 159.6875 C148.70322413 160.36859534 145.28380795 162.11024996 141.8046875 166.1875 Z M75.6171875 190.125 C75.70464325 192.52249384 75.81155825 194.91648221 75.9296875 197.3125 C75.95224609 197.98603516 75.97480469 198.65957031 75.99804688 199.35351562 C76.47420665 208.22740225 81.48841608 212.19282517 87.6796875 217.875 C88.41251953 218.55949219 89.14535156 219.24398437 89.90039062 219.94921875 C93.47979581 223.42693859 93.47979581 223.42693859 97.6171875 226.125 C99.9271875 223.155 102.2371875 220.185 104.6171875 217.125 C102.83998702 213.57059904 101.77502342 212.07385792 98.984375 209.48046875 C98.25992187 208.80306641 97.53546875 208.12566406 96.7890625 207.42773438 C96.03109375 206.72970703 95.273125 206.03167969 94.4921875 205.3125 C93.75742187 204.62607422 93.02265625 203.93964844 92.265625 203.23242188 C90.06219296 201.18222146 87.84390594 199.1498699 85.6171875 197.125 C84.86856445 196.44131348 84.11994141 195.75762695 83.34863281 195.05322266 C82.63545898 194.41304199 81.92228516 193.77286133 81.1875 193.11328125 C80.54828613 192.53747314 79.90907227 191.96166504 79.25048828 191.3684082 C77.69408752 189.92308953 77.69408752 189.92308953 75.6171875 190.125 Z M-159.453125 211.15185547 C-165.98690584 218.62484265 -163.79322412 230.46782054 -163.3828125 239.6875 C-163.32271495 242.04221259 -163.26692228 244.39703879 -163.21533203 246.75195312 C-163.04045372 253.54900723 -162.73408025 260.33503482 -162.3828125 267.125 C-162.33926636 268.01612488 -162.29572021 268.90724976 -162.25085449 269.82537842 C-160.70023201 300.99566202 -155.28754651 331.9636745 -147.3828125 362.125 C-140.9478125 361.135 -140.9478125 361.135 -134.3828125 360.125 C-135.40725197 354.30032986 -136.49378598 348.50584393 -137.75 342.7265625 C-140.43796346 330.34577439 -142.87630654 317.99059389 -144.6328125 305.4375 C-144.78347168 304.38578613 -144.93413086 303.33407227 -145.08935547 302.25048828 C-148.06308428 279.90236433 -148.66970418 257.57025988 -148.5201416 235.06243896 C-148.49917244 231.55467277 -148.49044225 228.04687413 -148.48046875 224.5390625 C-148.45942431 217.73430049 -148.42558958 210.92965944 -148.3828125 204.125 C-152.1521245 204.125 -156.82668642 208.69970529 -159.453125 211.15185547 Z M-180.79296875 232.4375 C-181.33824219 232.994375 -181.88351563 233.55125 -182.4453125 234.125 C-182.99316406 234.681875 -183.54101562 235.23875 -184.10546875 235.8125 C-184.52699219 236.245625 -184.94851562 236.67875 -185.3828125 237.125 C-183.73088638 241.32990286 -182.37052581 241.93482935 -178.3828125 245.125 C-178.3828125 240.505 -178.3828125 235.885 -178.3828125 231.125 C-179.58188719 231.01144897 -179.58188719 231.01144897 -180.79296875 232.4375 Z M77.6171875 231.125 C77.6171875 236.075 77.6171875 241.025 77.6171875 246.125 C78.7721875 245.2175 79.9271875 244.31 81.1171875 243.375 C81.766875 242.86453125 82.4165625 242.3540625 83.0859375 241.828125 C85.06291265 240.01095704 85.06291265 240.01095704 84.6171875 236.125 C82.32536478 233.33302268 82.32536478 233.33302268 79.6171875 231.125 C78.9571875 231.125 78.2971875 231.125 77.6171875 231.125 Z M-197.3828125 250.125 C-198.76572137 251.59854349 -200.11458444 253.10416793 -201.4453125 254.625 C-202.17878906 255.4603125 -202.91226563 256.295625 -203.66796875 257.15625 C-204.51681641 258.13078125 -204.51681641 258.13078125 -205.3828125 259.125 C-204.06070915 262.08083107 -202.66239334 264.06370379 -200.29296875 266.26171875 C-199.37076538 267.12192627 -199.37076538 267.12192627 -198.42993164 267.99951172 C-197.44754517 268.89694092 -197.44754517 268.89694092 -196.4453125 269.8125 C-195.77814209 270.42883301 -195.11097168 271.04516602 -194.42358398 271.68017578 C-188.92140127 276.72356901 -183.25243046 281.51228567 -177.3828125 286.125 C-175.46881919 280.38302007 -174.82452252 274.76362945 -177.3828125 269.125 C-182.74123476 262.03459028 -189.54224324 255.77771855 -196.3828125 250.125 C-196.7128125 250.125 -197.0428125 250.125 -197.3828125 250.125 Z M134.6171875 251.125 C133.23427863 252.59854349 131.88541556 254.10416793 130.5546875 255.625 C129.82121094 256.4603125 129.08773437 257.295625 128.33203125 258.15625 C127.76613281 258.8059375 127.20023437 259.455625 126.6171875 260.125 C128.14039001 264.38996703 130.3493867 268.05926144 132.7421875 271.875 C145.27744022 292.42935224 155.8726424 316.84645559 150.4921875 341.375 C147.38889121 352.22932004 140.90942365 361.60516019 131.0390625 367.2578125 C112.73821867 377.10656794 93.7205239 379.48874875 73.2421875 379.25 C71.71615181 379.23993466 70.19010958 379.23081518 68.6640625 379.22265625 C64.98146926 379.20268557 61.29981609 379.16349438 57.6171875 379.125 C56.2971875 383.415 54.9771875 387.705 53.6171875 392.125 C60.88338291 393.27642315 68.02649687 393.3685796 75.3671875 393.375 C76.05837677 393.37567474 76.74956604 393.37634949 77.46170044 393.37704468 C102.62721582 393.33807806 129.50167713 389.07758959 148.6171875 371.125 C160.66731181 358.36342923 166.15647853 343.33808855 165.96655273 325.96801758 C165.13048355 298.85953719 151.47623732 272.55874612 135.6171875 251.125 C135.2871875 251.125 134.9571875 251.125 134.6171875 251.125 Z M-216.3828125 274.125 C-227.85103046 289.9959591 -239.1956563 311.95711272 -237.3828125 332.125 C-235.42907495 341.64947055 -231.31942425 348.47131325 -223.3828125 354.125 C-209.17696929 363.03593801 -192.70059715 364.29950169 -176.3828125 364.1875 C-175.13113281 364.18298828 -173.87945312 364.17847656 -172.58984375 364.17382812 C-169.52078309 364.16211415 -166.45182343 364.14571073 -163.3828125 364.125 C-165.13634242 354.17887514 -167.14698576 344.28842074 -169.171875 334.39453125 C-170.62153834 327.2267514 -171.86220799 320.12352547 -172.66625977 312.85205078 C-174.03536903 307.64150545 -178.18323948 305.13991735 -182.3828125 302.125 C-184.16255723 300.69854788 -185.93311163 299.26056941 -187.6953125 297.8125 C-188.61699219 297.06484375 -189.53867188 296.3171875 -190.48828125 295.546875 C-195.61791144 291.25487673 -200.47799602 286.66995223 -205.3828125 282.125 C-207.08530274 280.55613544 -208.79301811 278.99290645 -210.5078125 277.4375 C-211.21164063 276.79425781 -211.91546875 276.15101563 -212.640625 275.48828125 C-214.27662944 273.91957978 -214.27662944 273.91957978 -216.3828125 274.125 Z M113.6171875 274.125 C113.1325 274.62128906 112.6478125 275.11757813 112.1484375 275.62890625 C107.47864767 280.36155863 102.65875854 284.7956509 97.6171875 289.125 C96.44197656 290.15150657 95.26756942 291.17893375 94.09375 292.20703125 C92.78908907 293.34638459 91.48440091 294.48570676 90.1796875 295.625 C89.52838867 296.19661865 88.87708984 296.7682373 88.20605469 297.35717773 C84.08166877 300.94863155 79.88500781 304.24325459 75.25390625 307.171875 C72.59457644 310.3452996 72.31348223 314.15308676 71.6171875 318.125 C71.15124375 320.53805135 70.68365564 322.95078549 70.21484375 325.36328125 C69.57104384 328.73115028 68.93153471 332.09983293 68.29711914 335.46948242 C66.82045771 343.29928812 65.22620922 351.05755133 63.16577148 358.75854492 C62.50427336 361.20721548 62.50427336 361.20721548 62.6171875 364.125 C98.56819454 365.16188342 98.56819454 365.16188342 129.328125 348.50390625 C134.81363332 342.7106743 136.72326074 336.45259514 137.0546875 328.5625 C136.54218632 311.71402361 129.26884444 295.9811388 120.8671875 281.6875 C120.49053955 281.04224365 120.1138916 280.3969873 119.72583008 279.73217773 C117.49139957 275.97759553 117.49139957 275.97759553 113.6171875 274.125 Z M-128.3828125 307.125 C-128.26725746 308.83399819 -128.13988247 310.54219869 -128.0078125 312.25 C-127.93820313 313.20132812 -127.86859375 314.15265625 -127.796875 315.1328125 C-127.07282621 320.36508964 -126.60308286 323.15999028 -122.3203125 326.546875 C-121.01911183 327.34171696 -119.7056655 328.11674091 -118.3828125 328.875 C-117.68381836 329.29330078 -116.98482422 329.71160156 -116.26464844 330.14257812 C-113.98418774 331.49493263 -111.68744721 332.81429829 -109.3828125 334.125 C-108.57392578 334.58583984 -107.76503906 335.04667969 -106.93164062 335.52148438 C-101.77844081 338.44230988 -96.61155639 341.34111422 -91.3828125 344.125 C-90.69928711 344.49947266 -90.01576172 344.87394531 -89.31152344 345.25976562 C-85.64350868 346.90526491 -82.38903765 345.49706229 -78.7734375 344.16015625 C-76.29670503 343.17715932 -73.83521767 342.16702986 -71.3828125 341.125 C-71.3828125 340.465 -71.3828125 339.805 -71.3828125 339.125 C-72.01968994 338.80450684 -72.65656738 338.48401367 -73.31274414 338.15380859 C-89.97373126 329.73019944 -106.00498916 320.60809778 -121.77294922 310.609375 C-122.49885254 310.15046875 -123.22475586 309.6915625 -123.97265625 309.21875 C-124.92773071 308.61063477 -124.92773071 308.61063477 -125.90209961 307.99023438 C-127.24088353 307.04091383 -127.24088353 307.04091383 -128.3828125 307.125 Z M47.1171875 328.0625 C41.7829629 332.0421123 41.7829629 332.0421123 39.6171875 333.125 C38.81940319 335.48607387 38.81940319 335.48607387 38.20703125 338.3984375 C37.94414307 339.52008301 37.68125488 340.64172852 37.41040039 341.79736328 C36.98682251 343.63016846 36.98682251 343.63016846 36.5546875 345.5 C31.52295774 366.36967903 25.12485068 386.8281669 15.6171875 406.125 C15.26688477 406.84333008 14.91658203 407.56166016 14.55566406 408.30175781 C7.4557427 422.71211033 -1.11055643 435.61119559 -12.3828125 447.125 C-13.0428125 447.82109375 -13.7028125 448.5171875 -14.3828125 449.234375 C-24.58033781 459.20013838 -37.58198442 464.42620374 -51.67822266 464.43969727 C-67.75015116 464.15215165 -80.39596207 455.25070478 -91.3828125 444.125 C-102.93049404 431.59304119 -110.61808837 417.1332052 -118.3828125 402.125 C-122.6728125 403.115 -126.9628125 404.105 -131.3828125 405.125 C-120.77605085 433.056139 -101.44445105 460.34029857 -74.13671875 473.71484375 C-58.87013487 480.16156522 -43.52089557 480.45866075 -28.1328125 474.375 C-18.55710478 470.02240558 -10.89366829 464.43689272 -3.3828125 457.125 C-2.64546875 456.44953125 -1.908125 455.7740625 -1.1484375 455.078125 C10.83917215 443.77066342 19.14484961 429.66284497 26.6171875 415.125 C27.15255127 414.08520996 27.15255127 414.08520996 27.69873047 413.02441406 C40.70160196 387.4095512 54.6171875 353.1094099 54.6171875 324.125 C51.41641977 324.125 49.63228637 326.17948519 47.1171875 328.0625 Z M-120.3828125 346.125 C-120.2590625 347.40375 -120.1353125 348.6825 -120.0078125 350 C-119.93820313 350.71929687 -119.86859375 351.43859375 -119.796875 352.1796875 C-119.51906501 354.35168245 -119.51906501 354.35168245 -117.3828125 356.125 C-115.37588244 355.92717135 -115.37588244 355.92717135 -113.2578125 355.25 C-112.53335938 355.04632813 -111.80890625 354.84265625 -111.0625 354.6328125 C-110.50820312 354.46523438 -109.95390625 354.29765625 -109.3828125 354.125 C-110.07311838 350.97578661 -110.07311838 350.97578661 -112.66796875 349.73828125 C-113.58449219 349.30902344 -114.50101563 348.87976563 -115.4453125 348.4375 C-116.36441406 348.00050781 -117.28351563 347.56351562 -118.23046875 347.11328125 C-118.94074219 346.78714844 -119.65101563 346.46101563 -120.3828125 346.125 Z M18.6171875 346.125 C16.12858656 347.27218881 16.12858656 347.27218881 13.4921875 348.9375 C12.58210938 349.48019531 11.67203125 350.02289063 10.734375 350.58203125 C10.03570312 351.09121094 9.33703125 351.60039062 8.6171875 352.125 C8.6171875 352.785 8.6171875 353.445 8.6171875 354.125 C13.0721875 355.115 13.0721875 355.115 17.6171875 356.125 C18.6071875 353.155 19.5971875 350.185 20.6171875 347.125 C19.9571875 346.795 19.2971875 346.465 18.6171875 346.125 Z M-21.6328125 367.625 C-22.2825 367.95886719 -22.9321875 368.29273438 -23.6015625 368.63671875 C-25.19903754 369.45894855 -26.79144072 370.29101907 -28.3828125 371.125 C-23.64878187 375.16342687 -17.79931585 376.45942428 -11.96557617 378.25146484 C-9.95073901 378.87332516 -7.94331285 379.51588231 -5.93554688 380.16015625 C-4.6488338 380.56116963 -3.36173599 380.96095105 -2.07421875 381.359375 C-0.91092041 381.72256836 0.25237793 382.08576172 1.45092773 382.45996094 C4.65670423 383.13330007 6.5303152 383.15605735 9.6171875 382.125 C10.86240911 380.403028 10.86240911 380.403028 11.4296875 378.25 C11.66300781 377.55132812 11.89632812 376.85265625 12.13671875 376.1328125 C12.73355192 373.98281254 12.73355192 373.98281254 12.6171875 371.125 C8.86998974 369.94919832 5.11900825 368.78595767 1.3671875 367.625 C0.30371094 367.29113281 -0.75976562 366.95726562 -1.85546875 366.61328125 C-2.88027344 366.29746094 -3.90507812 365.98164063 -4.9609375 365.65625 C-5.90356445 365.36298828 -6.84619141 365.06972656 -7.81738281 364.76757812 C-13.39231316 363.37119283 -16.8183998 365.09058356 -21.6328125 367.625 Z M-56.59375 382.62890625 C-57.41601074 382.9542334 -58.23827148 383.27956055 -59.08544922 383.61474609 C-59.9673291 383.96875488 -60.84920898 384.32276367 -61.7578125 384.6875 C-75.06057962 389.89964061 -88.62884942 394.26489592 -102.3828125 398.125 C-100.98808974 402.88303858 -98.94705474 406.97272374 -96.3828125 411.1875 C-95.98908447 411.83726807 -95.59535645 412.48703613 -95.18969727 413.15649414 C-85.95291628 428.10513615 -74.12892436 444.25619495 -56.3828125 449.125 C-46.69889415 450.4329578 -39.46634574 448.51402216 -31.3828125 443.125 C-27.79784523 440.34652029 -24.56390475 437.35469978 -21.3828125 434.125 C-20.35220703 433.09246094 -20.35220703 433.09246094 -19.30078125 432.0390625 C-12.52988113 424.85416257 1.6171875 408.19732203 1.6171875 398.125 C0.84866455 397.89425781 0.0801416 397.66351563 -0.71166992 397.42578125 C-4.33362394 396.33333882 -7.9529504 395.2325346 -11.5703125 394.125 C-12.22442108 393.92480255 -12.87852966 393.7246051 -13.55245972 393.51834106 C-23.20063765 390.5522997 -32.67268768 387.30655322 -42.03393555 383.51367188 C-42.8206665 383.19849609 -43.60739746 382.88332031 -44.41796875 382.55859375 C-45.092229 382.28072021 -45.76648926 382.00284668 -46.46118164 381.71655273 C-50.23209443 380.55571908 -53.08630925 381.21091266 -56.59375 382.62890625 Z " fill="#000000" transform="translate(304.3828125,17.875)"/>
<path d="M0 0 C4.27890542 3.26722421 5.68676644 7.4784708 7.52734375 12.3515625 C7.86281723 13.2153653 8.19829071 14.07916809 8.54393005 14.96914673 C9.70701941 17.97528487 10.85324359 20.9875959 12 24 C12.90720562 26.35664141 13.81494452 28.71307757 14.72314453 31.06933594 C16.94311551 36.8400703 19.13651185 42.62050787 21.31333351 48.40764999 C22.57241735 51.75448732 23.83721079 55.09891322 25.11547852 58.43847656 C26.37573066 61.7312388 27.62197886 65.0289801 28.85838127 68.33076859 C29.550981 70.16997556 30.25746397 72.00393541 30.96424866 73.83773804 C31.3789592 74.95395538 31.79366974 76.07017273 32.22094727 77.22021484 C32.58986588 78.19469574 32.95878448 79.16917664 33.33888245 80.17318726 C34.11650293 83.49814436 33.87587819 85.71416789 33 89 C30.875 91.4375 30.875 91.4375 28 93 C24.4375 93.125 24.4375 93.125 21 92 C16.44913354 87.05905927 15.37032678 81.51839864 13 75 C1.12 74.67 -10.76 74.34 -23 74 C-23.99 77.3 -24.98 80.6 -26 84 C-27.42179727 87.55449318 -28.38705242 89.48644933 -31.3125 91.9375 C-34.70942585 93.28047068 -36.52829883 93.0566047 -40 92 C-42.01648813 90.42607047 -42.88969884 89.5575748 -43.39102173 87.02337646 C-43.31709804 81.44457127 -42.32716947 77.03232078 -40.2109375 71.890625 C-39.91577744 71.13729385 -39.62061737 70.38396271 -39.31651306 69.60780334 C-38.35001177 67.14939911 -37.36281331 64.69990913 -36.375 62.25 C-35.34789369 59.65818054 -34.32567073 57.06446775 -33.30360413 54.47065735 C-32.6001361 52.68664247 -31.8948247 50.90335343 -31.18772888 49.12077332 C-28.72189055 42.89128515 -26.34838994 36.63241506 -24.02734375 30.34765625 C-23.71210754 29.4975296 -23.39687134 28.64740295 -23.07208252 27.77151489 C-21.24158513 22.83402069 -21.24158513 22.83402069 -19.43011475 17.88952637 C-18.60510573 15.62702913 -17.76682034 13.36985908 -16.92578125 11.11328125 C-16.68778305 10.44837173 -16.44978485 9.78346222 -16.20457458 9.09840393 C-14.74895586 5.23516436 -13.22681088 2.60432051 -10 0 C-6.19426871 -1.2685771 -3.89430952 -0.88817586 0 0 Z M-5 28 C-7.79763934 34.04290098 -10.31066213 40.18069857 -12.75 46.375 C-13.06783447 47.17212402 -13.38566895 47.96924805 -13.71313477 48.79052734 C-14.00889404 49.5480127 -14.30465332 50.30549805 -14.609375 51.0859375 C-14.87717773 51.7670459 -15.14498047 52.4481543 -15.42089844 53.14990234 C-16.14935977 55.15406832 -16.14935977 55.15406832 -16 58 C-8.41 58 -0.82 58 7 58 C1.83452495 42.87448602 1.83452495 42.87448602 -4 28 C-4.33 28 -4.66 28 -5 28 Z " fill="#000000" transform="translate(259,210)"/>
</svg>
