<?xml version="1.0" encoding="UTF-8"?>
<svg version="1.1" xmlns="http://www.w3.org/2000/svg" width="512" height="512">
<path d="M0 0 C-3.44464821 3.49475219 -6.98146014 6.83501118 -10.625 10.125 C-26.51855418 24.67526399 -39.15162578 39.76232691 -49 59 C-49.31807617 59.61697754 -49.63615234 60.23395508 -49.96386719 60.86962891 C-61.07468568 82.71393925 -67.56908541 107.46864816 -68 132 C-68.05800781 133.30904297 -68.05800781 133.30904297 -68.1171875 134.64453125 C-69.33975115 178.86058321 -51.03377415 221.5731078 -21.23339844 253.62158203 C9.65988335 286.15720993 51.91797888 304.71259954 96.7421875 306.18359375 C126.94476347 306.79309711 156.56181188 299.63797752 183 285 C183.94866943 284.47817139 183.94866943 284.47817139 184.91650391 283.94580078 C204.22841938 273.18961028 221.99619327 258.62186164 234.73828125 240.46875 C235.15464844 239.9840625 235.57101562 239.499375 236 239 C236.66 239 237.32 239 238 239 C237.62945348 259.4137449 232.97421591 279.87164997 226 299 C225.71286133 299.79535156 225.42572266 300.59070313 225.12988281 301.41015625 C218.58979481 319.25575854 210.20390011 336.59719766 199 352 C198.36505615 352.89332031 198.36505615 352.89332031 197.71728516 353.8046875 C190.236692 364.30968685 181.98481914 373.76261891 173 383 C172.24847656 383.79148437 171.49695313 384.58296875 170.72265625 385.3984375 C135.77040229 421.56580049 81.01900956 446.9736133 30.45605469 448.16113281 C28.86138597 448.18063686 27.26663919 448.194413 25.671875 448.203125 C24.37759834 448.21371445 24.37759834 448.21371445 23.05717468 448.22451782 C-12.28968245 448.44815292 -12.28968245 448.44815292 -28 445 C-29.44802002 444.70198486 -29.44802002 444.70198486 -30.92529297 444.39794922 C-73.65260827 435.5089098 -112.15051751 414.96042647 -143.40771484 384.54541016 C-144.77528763 383.2180971 -146.16130336 381.90983314 -147.55078125 380.60546875 C-154.10868436 374.32712101 -159.56278005 367.24313982 -165 360 C-165.64437012 359.14680176 -165.64437012 359.14680176 -166.30175781 358.27636719 C-187.04090031 330.64014266 -199.95547887 299.70352644 -207 266 C-207.18079102 265.17999512 -207.36158203 264.35999023 -207.54785156 263.51513672 C-212.96398829 238.15189605 -212.57575334 207.2896691 -207 182 C-206.79600586 181.02401855 -206.59201172 180.04803711 -206.38183594 179.04248047 C-200.30966708 150.33888751 -189.56174518 123.3266959 -173 99 C-172.58363281 98.38302246 -172.16726562 97.76604492 -171.73828125 97.13037109 C-166.35486405 89.20639509 -160.54382436 82.01212064 -154 75 C-152.87017688 73.69164952 -151.74495294 72.37930927 -150.625 71.0625 C-141.93826509 61.16320026 -132.52756893 52.85536325 -122 45 C-121.43410156 44.57332031 -120.86820312 44.14664063 -120.28515625 43.70703125 C-87.09751286 18.79713725 -42.24340315 -0.89879581 0 0 Z " fill="#000000" transform="translate(242,32)"/>
<path d="M0 0 C10.14500648 5.68735212 13.94437155 18.99766669 18.4375 29.09375 C19.46162956 31.38446495 20.48741346 33.67441386 21.51568604 35.96327209 C22.15163956 37.37990254 22.78498669 38.79770651 23.41546631 40.21678162 C24.69569833 43.41325743 24.69569833 43.41325743 26.6875 46.15625 C29.68907322 46.55392937 32.6804986 46.89639952 35.69140625 47.20703125 C37.56582724 47.41275622 39.44017397 47.61915866 41.31445312 47.82617188 C44.27383894 48.14884939 47.23343676 48.46703751 50.19458008 48.77319336 C53.04939115 49.07053457 55.90152263 49.38734074 58.75390625 49.70703125 C59.62817764 49.79261795 60.50244904 49.87820465 61.4032135 49.96638489 C67.84026287 50.70906327 73.81144422 52.30461932 78.52734375 56.98046875 C81.82306583 62.5749863 83.57660866 67.81989546 82.2421875 74.328125 C80.68016002 79.10397914 78.3379556 81.65988932 74.6875 85.15625 C73.89730469 85.95804687 73.10710937 86.75984375 72.29296875 87.5859375 C68.49495505 91.42690127 64.69752424 95.23000886 60.625 98.78125 C59.9959375 99.33296875 59.366875 99.8846875 58.71875 100.453125 C57.23525313 101.69698006 55.70731227 102.88836553 54.15625 104.046875 C53.3209375 104.70171875 52.485625 105.3565625 51.625 106.03125 C50.46291016 106.89363281 50.46291016 106.89363281 49.27734375 107.7734375 C47.24510098 110.81930505 47.5646568 112.8663795 48.13452148 116.39990234 C49.53753756 123.39330258 51.03607518 130.36188123 52.60351562 137.3203125 C56.26072246 154.25149764 56.26072246 154.25149764 53.625 162.46875 C50.73752023 166.47396387 47.13508019 169.93245991 42.6875 172.15625 C36.21654335 172.98883237 30.87599488 172.64612496 25.05859375 169.5859375 C24.02154297 169.04155029 22.98449219 168.49716309 21.91601562 167.9362793 C16.59388654 165.00194452 11.34818982 161.950225 6.125 158.84375 C4.02103566 157.59511781 1.91563444 156.34890263 -0.19140625 155.10546875 C-1.56147827 154.29082153 -1.56147827 154.29082153 -2.95922852 153.4597168 C-5.34819564 152.04266212 -5.34819564 152.04266212 -8.3125 151.15625 C-11.09416321 152.33151383 -11.09416321 152.33151383 -14.125 154.12890625 C-14.69395996 154.44903183 -15.26291992 154.76915741 -15.84912109 155.09898376 C-17.67578739 156.12946168 -19.49415498 157.1736715 -21.3125 158.21875 C-22.50597261 158.89613072 -23.69997829 159.57257315 -24.89453125 160.24804688 C-25.48063675 160.57987473 -26.06674225 160.91170258 -26.67060852 161.25358582 C-27.25368271 161.58369156 -27.8367569 161.9137973 -28.4375 162.25390625 C-31.77492488 164.14346263 -35.10875354 166.03760978 -38.4230957 167.9675293 C-39.37273193 168.50933838 -40.32236816 169.05114746 -41.30078125 169.609375 C-42.12360596 170.08665039 -42.94643066 170.56392578 -43.79418945 171.05566406 C-49.25259743 173.44117091 -55.16002589 173.32878523 -60.70703125 171.265625 C-65.51710374 168.58840469 -68.34636741 165.26069903 -70.3125 160.15625 C-71.53880465 153.8132949 -70.99202306 148.75517703 -69.66015625 142.4765625 C-69.48117294 141.58258759 -69.30218964 140.68861267 -69.11778259 139.76754761 C-68.54853853 136.93626462 -67.96235115 134.10882638 -67.375 131.28125 C-66.79493423 128.43160185 -66.21832993 125.58127579 -65.64292908 122.73068237 C-65.2847588 120.96265325 -64.92317959 119.19531063 -64.55787659 117.42874146 C-63.65084459 113.3268493 -63.65084459 113.3268493 -63.3125 109.15625 C-63.89515625 108.90230469 -64.4778125 108.64835937 -65.078125 108.38671875 C-67.55438033 107.02304667 -69.11770626 105.51399797 -71.0625 103.46875 C-73.67025672 100.7937583 -76.29875782 98.22446963 -79.125 95.78125 C-79.77597656 95.21535156 -80.42695313 94.64945312 -81.09765625 94.06640625 C-82.76501432 92.62842019 -84.44098542 91.20041186 -86.12109375 89.77734375 C-97.35278548 80.00741269 -97.35278548 80.00741269 -98.67578125 71.94140625 C-99.01563066 66.26106612 -97.56043939 61.80670868 -94.3125 57.15625 C-88.47156343 51.46508103 -82.65692759 50.85860855 -74.8828125 50.39453125 C-73.01660955 50.24545966 -71.15072657 50.09233709 -69.28515625 49.93554688 C-66.36007276 49.69183082 -63.44148942 49.46896062 -60.51025391 49.31420898 C-49.93094956 49.15380881 -49.93094956 49.15380881 -40.79824829 44.71990967 C-38.32023764 41.1466383 -37.04166687 37.23185281 -35.87719727 33.07357788 C-35.0609197 30.30205438 -33.86582684 27.74280341 -32.65234375 25.125 C-31.44197753 22.37399106 -30.23550081 19.62237913 -29.05273438 16.859375 C-26.05141787 10.09312201 -22.69500604 4.59480087 -16.625 0.21875 C-11.100478 -1.55326649 -5.53214043 -2.01848367 0 0 Z " fill="#000000" transform="translate(418.3125,15.84375)"/>
</svg>
