<?xml version="1.0" encoding="UTF-8"?>
<svg version="1.1" xmlns="http://www.w3.org/2000/svg" width="512" height="512">
<path d="M0 0 C0.86454803 -0.00960754 1.72909607 -0.01921509 2.61984253 -0.02911377 C3.55111969 -0.03336365 4.48239685 -0.03761353 5.44189453 -0.04199219 C6.88267868 -0.0505423 6.88267868 -0.0505423 8.35256958 -0.05926514 C10.38510029 -0.06871176 12.4176463 -0.07524778 14.45019531 -0.07910156 C17.5557736 -0.08880801 20.66069029 -0.11983505 23.76611328 -0.15136719 C25.74136977 -0.15789736 27.71663099 -0.16314777 29.69189453 -0.16699219 C30.61912323 -0.17933899 31.54635193 -0.19168579 32.50167847 -0.20440674 C37.39412847 -0.18754656 40.74719234 -0.05489441 44.69970703 3.16113281 C48.12857708 7.06623482 49.82590676 9.36736479 49.81996155 14.53970337 C49.82202354 15.91954155 49.82202354 15.91954155 49.8241272 17.32725525 C49.82053192 18.3392952 49.81693665 19.35133514 49.81323242 20.39404297 C49.81337845 21.45747421 49.81352448 22.52090546 49.81367493 23.61656189 C49.81297622 27.14446019 49.80518574 30.6723062 49.79736328 34.20019531 C49.79549895 36.64114351 49.79407512 39.08209207 49.79307556 41.52304077 C49.78925154 47.95761136 49.77942223 54.39215949 49.76837158 60.82672119 C49.75815499 67.38870947 49.75357741 73.95070137 49.74853516 80.51269531 C49.73779987 93.39551741 49.72091618 106.27832392 49.69970703 119.16113281 C50.6422745 119.15698474 50.6422745 119.15698474 51.60388374 119.15275288 C66.90272154 119.08646302 82.2015152 119.03683767 97.50045967 119.0056963 C104.89895922 118.99023578 112.29736282 118.96916194 119.69580078 118.93481445 C126.14524204 118.90488702 132.59461381 118.88555188 139.04412258 118.87886733 C142.45824531 118.8749607 145.87216924 118.86579684 149.28622818 118.84394264 C153.10011881 118.82219287 156.91359647 118.81916495 160.72753906 118.82055664 C161.85610825 118.80977081 162.98467743 118.79898499 164.14744568 118.78787231 C170.54650275 118.81316943 175.39756953 119.14920692 180.34423828 123.66113281 C184.58905299 129.11266742 184.87854393 133.20847665 184.93798828 139.92285156 C184.94606003 140.78747513 184.95413177 141.65209869 184.96244812 142.54292297 C184.97627785 144.37454226 184.98700498 146.2061872 184.99487305 148.0378418 C185.00637431 149.90282794 185.0267967 151.76778165 185.05639648 153.63256836 C185.09927195 156.33372264 185.11527133 159.03389832 185.12548828 161.73535156 C185.14299637 162.55960129 185.16050446 163.38385101 185.17854309 164.233078 C185.15808568 169.76105083 184.38672007 174.83966327 180.69970703 179.16113281 C174.45308456 183.75392037 169.11359557 183.71147878 161.5222168 183.61523438 C159.70651939 183.61611053 159.70651939 183.61611053 157.85414124 183.61700439 C154.55261039 183.61470338 151.25209352 183.59471469 147.95074201 183.56670856 C144.49412381 183.54161713 141.03749051 183.53934685 137.58079529 183.53460693 C131.0431117 183.52219976 124.50569729 183.48940913 117.96813196 183.44920897 C110.52195836 183.40442057 103.07577157 183.38248653 95.62949669 183.36242723 C80.31941119 183.32067417 65.00959389 183.25036656 49.69970703 183.16113281 C49.70198535 184.17020681 49.70198535 184.17020681 49.7043097 185.19966614 C49.79379222 225.05671674 49.86243819 264.91375438 49.90396835 304.77088506 C49.90897127 309.55493917 49.91414855 314.33899307 49.91943359 319.12304688 C49.92048284 320.07547912 49.92153208 321.02791137 49.92261311 322.00920521 C49.94002562 337.43754882 49.97156797 352.86583291 50.00831822 368.29414119 C50.0457041 384.12112013 50.0679379 399.94806786 50.07606101 415.77508914 C50.08155367 425.54382598 50.09891126 435.31239459 50.1313729 445.08107965 C50.15249175 451.7768345 50.15891305 458.47250219 50.15371254 465.16828795 C50.15114665 469.03335529 50.15512218 472.89812832 50.17652893 476.76314354 C50.19956012 480.95199976 50.19167221 485.14022711 50.1807251 489.32913208 C50.19820215 491.16473527 50.19820215 491.16473527 50.21603227 493.03742135 C50.17108429 499.37620496 50.04524864 503.38663348 45.69970703 508.16113281 C40.59602107 512.72228788 36.18014872 512.73715299 29.66455078 512.65722656 C28.70827286 512.65868179 27.75199493 512.66013702 26.76673889 512.66163635 C24.75209495 512.65998154 22.73743782 512.64846726 20.72290039 512.62768555 C17.64365875 512.59869356 14.56613634 512.60709317 11.48681641 512.62011719 C9.52521952 512.6138803 7.56362805 512.60548975 5.60205078 512.59472656 C4.68423325 512.5976622 3.76641571 512.60059784 2.82078552 512.60362244 C-2.03436739 512.53211083 -5.37308803 512.33334315 -9.30029297 509.16113281 C-13.06450776 504.87411041 -14.42555929 502.59024291 -14.4233408 496.93309593 C-14.42533185 495.81791065 -14.42732289 494.70272536 -14.42937428 493.55374658 C-14.42646144 492.31835976 -14.42354859 491.08297293 -14.42054749 489.81015015 C-14.42182912 487.85360707 -14.42182912 487.85360707 -14.42313665 485.85753787 C-14.42538129 482.22494352 -14.42136075 478.59237846 -14.41635859 474.95978785 C-14.41205384 471.04703933 -14.41350053 467.13429257 -14.41426086 463.22154236 C-14.41478608 456.43841534 -14.41163949 449.65529791 -14.40602303 442.87217331 C-14.39790775 433.06482509 -14.39529278 423.25748152 -14.39403503 413.4501303 C-14.39184456 397.53966757 -14.38518459 381.62920995 -14.37573242 365.71875 C-14.36655819 350.26009141 -14.35947741 334.8014342 -14.35522461 319.34277344 C-14.35496189 318.3904473 -14.35469916 317.43812115 -14.35442848 316.45693664 C-14.35312347 311.67955919 -14.35185976 306.90218173 -14.35061657 302.12480426 C-14.3402441 262.47024353 -14.3226259 222.81568851 -14.30029297 183.16113281 C-15.24920835 183.16666357 -15.24920835 183.16666357 -16.21729374 183.17230606 C-31.62495663 183.26072389 -47.03253103 183.32687475 -62.44038486 183.3683815 C-69.89158311 183.38898847 -77.34261178 183.41707311 -84.79370117 183.46289062 C-91.28966432 183.50281586 -97.78550463 183.52857919 -104.28158706 183.53748679 C-107.71984215 183.54269202 -111.15774589 183.55488649 -114.59588814 183.58405304 C-118.43825894 183.616383 -122.28028905 183.61708857 -126.12280273 183.61523438 C-127.25712738 183.62961548 -128.39145203 183.64399658 -129.56015015 183.65881348 C-136.03859848 183.62498297 -140.03449377 183.03341798 -145.30029297 179.16113281 C-149.55934858 174.1509306 -149.88336421 168.14959276 -149.79638672 161.84082031 C-149.79784195 160.97852814 -149.79929718 160.11623596 -149.80079651 159.22781372 C-149.79914677 157.41762895 -149.78769006 155.60742879 -149.7668457 153.79736328 C-149.73779684 151.03650113 -149.74627482 148.27755223 -149.75927734 145.51660156 C-149.75304143 143.74966521 -149.74465163 141.98273487 -149.73388672 140.21582031 C-149.73682236 139.39693329 -149.739758 138.57804626 -149.74278259 137.73434448 C-149.65110118 132.13584586 -148.71439057 127.80783878 -144.80029297 123.51660156 C-140.4829724 120.15493789 -137.67461498 119.03536898 -132.26997375 119.0408783 C-131.23090881 119.03950363 -130.19184387 119.03812897 -129.12129211 119.03671265 C-127.9819371 119.04030792 -126.84258209 119.0439032 -125.66870117 119.04760742 C-123.86851028 119.04738838 -123.86851028 119.04738838 -122.0319519 119.04716492 C-118.74088765 119.04774261 -115.44988597 119.05276127 -112.15883279 119.05973887 C-108.71951243 119.06598601 -105.28019125 119.06657729 -101.84086609 119.06776428 C-95.32796156 119.07087358 -88.8150738 119.07908157 -82.30217665 119.08911377 C-74.88749837 119.10028736 -67.47281928 119.1057885 -60.05813468 119.11080921 C-44.80551106 119.1212645 -29.55290418 119.13885619 -14.30029297 119.16113281 C-14.30398014 118.60490675 -14.30766731 118.04868069 -14.31146622 117.47559929 C-14.39987809 103.92929165 -14.46577654 90.38303469 -14.50754166 76.83650017 C-14.52841802 70.28542201 -14.55673732 63.73455207 -14.60205078 57.18359375 C-14.64550563 50.86178668 -14.6694297 44.54017991 -14.67980194 38.21823502 C-14.68719386 35.80608085 -14.70162845 33.39393766 -14.7232132 30.98186874 C-14.75224134 27.60371949 -14.75624907 24.2263984 -14.75439453 20.84814453 C-14.76877563 19.85048569 -14.78315674 18.85282684 -14.79797363 17.82493591 C-14.75592578 10.74853626 -13.33574606 7.6822584 -8.73779297 2.34863281 C-6.04477239 0.12396364 -3.33759388 0.02998911 0 0 Z " fill="#000000" transform="translate(238.30029296875,-0.1611328125)"/>
</svg>
