<?xml version="1.0" encoding="UTF-8"?>
<svg version="1.1" xmlns="http://www.w3.org/2000/svg" width="512" height="512">
<path d="M0 0 C3.17241047 3.16399559 5.24466069 6.18088131 5.69775391 10.72753906 C5.70120874 16.49251127 5.07015701 21.5180918 3.41015625 27.03125 C3.1481543 27.91683594 2.88615234 28.80242187 2.61621094 29.71484375 C-2.65095767 46.88525009 -9.23115611 63.65815677 -15.52734375 80.46875 C-16.02375652 81.79555251 -16.52011248 83.12237628 -17.01641846 84.44921875 C-20.66349988 94.19844569 -24.31945558 103.94431624 -27.98240662 113.68759155 C-28.82735738 115.93553078 -29.67170324 118.18369653 -30.51599121 120.43188477 C-35.92911194 134.8398907 -41.37124627 149.23421163 -47.0625 163.53515625 C-47.45609207 164.52813721 -47.84968414 165.52111816 -48.25520325 166.54418945 C-53.14303628 178.72016078 -58.86717978 189.50589188 -67.52734375 199.46875 C-67.97078125 200.05527344 -68.41421875 200.64179688 -68.87109375 201.24609375 C-75.4066284 209.71439322 -85.24767362 215.78327134 -93.76611328 222.11279297 C-106.07567867 231.27468046 -115.65277921 240.0626662 -123.52734375 253.46875 C-122.64046875 254.005 -121.75359375 254.54125 -120.83984375 255.09375 C-116.51004778 257.97686058 -113.19765905 261.45780409 -111.52734375 266.46875 C-111.42137679 267.97138243 -111.3688425 269.47812438 -111.3503418 270.984375 C-111.33108894 272.35094238 -111.33108894 272.35094238 -111.31144714 273.74511719 C-111.30406021 274.72641602 -111.29667328 275.70771484 -111.2890625 276.71875 C-111.28099075 277.7284082 -111.27291901 278.73806641 -111.26460266 279.77832031 C-111.25077377 281.91339403 -111.24004627 284.04848975 -111.23217773 286.18359375 C-111.21491023 289.45614989 -111.17100697 292.72770993 -111.12695312 296 C-111.11683087 298.07290923 -111.10831331 300.14582705 -111.1015625 302.21875 C-111.08405441 303.20004883 -111.06654633 304.18134766 -111.04850769 305.19238281 C-111.05289604 306.5589502 -111.05289604 306.5589502 -111.05737305 307.953125 C-111.05150681 308.75459961 -111.04564056 309.55607422 -111.03959656 310.38183594 C-111.52734375 312.46875 -111.52734375 312.46875 -113.24709034 314.0753727 C-115.91705819 315.70688987 -117.39183549 315.84565494 -120.49914551 315.84970093 C-121.50014786 315.8581604 -122.50115021 315.86661987 -123.53248596 315.87533569 C-124.62455856 315.869263 -125.71663116 315.86319031 -126.84179688 315.85693359 C-127.99663071 315.86219055 -129.15146454 315.86744751 -130.34129333 315.87286377 C-134.16386383 315.88608238 -137.98601891 315.8773187 -141.80859375 315.8671875 C-144.461309 315.86920769 -147.11401156 315.87211393 -149.76672363 315.87588501 C-155.32841504 315.88134135 -160.8899869 315.87415422 -166.45166016 315.85986328 C-172.87967081 315.84353688 -179.30739599 315.84882548 -185.73539972 315.8653425 C-191.25654114 315.87896091 -196.77759666 315.88087532 -202.29874945 315.87302649 C-205.59534524 315.86835187 -208.89177759 315.8688988 -212.18836975 315.87763596 C-215.86340755 315.88523811 -219.53789398 315.87366267 -223.21289062 315.85693359 C-224.85099953 315.86604263 -224.85099953 315.86604263 -226.52220154 315.87533569 C-227.52320389 315.86687622 -228.52420624 315.85841675 -229.55554199 315.84970093 C-230.42420647 315.84856985 -231.29287094 315.84743877 -232.18785858 315.84627342 C-235.0659358 315.38183724 -236.42565965 314.46476957 -238.52734375 312.46875 C-239.79278534 308.67242522 -239.68974449 305.10041206 -239.6953125 301.14453125 C-239.6986409 300.32429977 -239.7019693 299.5040683 -239.70539856 298.65898132 C-239.7104615 296.92150431 -239.71280708 295.18401758 -239.71264648 293.4465332 C-239.71482121 290.80858952 -239.73295079 288.17107217 -239.75195312 285.53320312 C-239.75488966 283.84114725 -239.75687271 282.14908941 -239.7578125 280.45703125 C-239.76499802 279.67652908 -239.77218353 278.89602692 -239.77958679 278.09187317 C-239.74491927 269.6352118 -238.2703492 263.34952733 -232.31640625 257.1015625 C-227.75198884 252.93578417 -223.40228755 253.26959936 -217.52734375 253.46875 C-217.39070313 252.16679687 -217.2540625 250.86484375 -217.11328125 249.5234375 C-216.5945703 244.85503897 -215.89076362 240.2314518 -215.15234375 235.59375 C-214.03711313 228.47280105 -213.17538773 221.35455685 -212.44970703 214.18359375 C-210.28620123 192.97712713 -206.06529766 175.84584266 -191.52734375 159.46875 C-191.00914062 158.87964844 -190.4909375 158.29054688 -189.95703125 157.68359375 C-185.79501273 153.2601419 -180.99755708 149.63844468 -176.20458984 145.93554688 C-169.70923078 140.89437268 -163.550452 135.49403088 -157.37109375 130.07421875 C-155.59130964 128.52444911 -153.79779313 126.99295551 -151.99609375 125.46875 C-141.95403565 116.97238261 -132.11834384 108.21396947 -122.93359375 98.7890625 C-120.1519463 95.99420427 -117.32724766 93.74612841 -113.96484375 91.65625 C-112.63259766 90.81126953 -112.63259766 90.81126953 -111.2734375 89.94921875 C-104.81392362 86.46677812 -98.76799143 85.58799229 -91.52734375 86.46875 C-88.61884034 87.54945401 -86.2260713 88.89858125 -83.52734375 90.46875 C-82.86734375 90.46875 -82.20734375 90.46875 -81.52734375 90.46875 C-70.97437107 72.03082482 -61.4528922 53.10943719 -52.77734375 33.71875 C-46.35282908 19.47799189 -38.59111881 2.64414875 -23.3515625 -3.8828125 C-15.31644408 -6.73897879 -6.67593075 -5.42912572 0 0 Z " fill="#041148" transform="translate(501.52734375,187.53125)"/>
<path d="M0 0 C10.34204558 9.65021063 16.13407238 22.59013769 21.95587158 35.23660278 C23.78881824 39.21547004 25.65051653 43.18089407 27.5078125 47.1484375 C27.87140869 47.92689529 28.23500488 48.70535309 28.60961914 49.50740051 C38.02361462 69.94726 38.02361462 69.94726 49.71484375 89.125 C50.64296875 88.485625 51.57109375 87.84625 52.52734375 87.1875 C58.14562603 83.55214088 63.1908324 83.53268844 69.71484375 84.125 C82.30764483 87.10251471 90.96056701 97.22498068 99.6953125 106.09375 C103.20532359 109.64370892 106.89710553 112.91077635 110.71484375 116.125 C112.32704368 117.50535583 113.93648394 118.88889862 115.54614258 120.2722168 C117.358241 121.82829805 119.17298535 123.38124437 120.98828125 124.93359375 C123.45658749 127.04530934 125.91987684 129.1626464 128.37890625 131.28515625 C133.51215315 135.71089633 138.64291219 140.11316338 143.96484375 144.3125 C164.41519002 160.57220154 176.07101762 178.37868906 179.09912109 204.43115234 C179.61978114 209.37035045 180.10416675 214.31219041 180.56494141 219.25732422 C181.57092713 229.72865853 183.36511372 239.87922285 185.71484375 250.125 C186.7193457 250.28282959 186.7193457 250.28282959 187.74414062 250.44384766 C196.59974836 251.99213202 196.59974836 251.99213202 200.21484375 255.5 C200.84390625 256.08523438 201.47296875 256.67046875 202.12109375 257.2734375 C207.18620691 263.1579072 206.87797583 270.46474529 206.91796875 277.84765625 C206.92366882 278.6707579 206.9293689 279.49385956 206.9352417 280.34190369 C206.94464691 282.0740329 206.95120776 283.80617965 206.95507812 285.53833008 C206.96482631 288.18276934 206.99590834 290.82644444 207.02734375 293.47070312 C207.03387085 295.15884958 207.03912247 296.84700156 207.04296875 298.53515625 C207.05531555 299.32173111 207.06766235 300.10830597 207.0803833 300.91871643 C207.06183512 305.49871569 206.5881712 308.49748968 203.71484375 312.125 C201.27759708 313.34362333 199.70830591 313.25613098 196.98355103 313.26544189 C195.985298 313.27115204 194.98704498 313.27686218 193.95854187 313.28274536 C192.85927872 313.28386322 191.76001556 313.28498108 190.62744141 313.28613281 C189.47289963 313.29109772 188.31835785 313.29606262 187.12882996 313.30117798 C183.29551607 313.31582708 179.46224357 313.32260594 175.62890625 313.328125 C173.64407958 313.33242182 171.65925292 313.33671914 169.67442644 313.3410995 C164.14315056 313.35291523 158.61188474 313.36044955 153.08059752 313.3638947 C145.92481033 313.36837603 138.7692141 313.38592677 131.61348498 313.4148953 C126.08391224 313.43650438 120.55439325 313.44659856 115.02477872 313.44793582 C111.72141667 313.44898441 108.41827519 313.45634485 105.11494827 313.47275543 C101.43016222 313.48975525 97.74584419 313.48795034 94.06103516 313.48144531 C92.96582047 313.4906601 91.87060577 313.49987488 90.74220276 313.5093689 C89.73831009 313.50379974 88.73441742 313.49823059 87.70010376 313.49249268 C86.82884165 313.49395924 85.95757954 313.4954258 85.05991554 313.4969368 C82.19866688 313.0431325 80.8169868 312.08735727 78.71484375 310.125 C78.20690918 308.06500244 78.20690918 308.06500244 78.19726562 305.67285156 C78.18465698 304.77471741 78.17204834 303.87658325 78.15905762 302.95123291 C78.16715454 301.9824823 78.17525146 301.01373169 78.18359375 300.015625 C78.17785339 298.51536774 78.17785339 298.51536774 78.17199707 296.98480225 C78.16927361 294.86648555 78.17666505 292.74813547 78.19335938 290.62988281 C78.21467266 287.40091957 78.19361836 284.17420428 78.16796875 280.9453125 C78.17061371 278.88541178 78.17574215 276.82551245 78.18359375 274.765625 C78.17549683 273.80497131 78.1673999 272.84431763 78.15905762 271.85455322 C78.24359367 265.74837607 79.16234143 262.13046091 82.71484375 257.125 C84.85546875 255.12890625 84.85546875 255.12890625 86.96484375 253.6875 C88.02445313 252.94693359 88.02445313 252.94693359 89.10546875 252.19140625 C89.90210938 251.66353516 89.90210938 251.66353516 90.71484375 251.125 C83.01124739 238.09576628 73.84558014 229.00442996 61.71484375 220.125 C31.13906054 197.53815649 18.28542677 173.64130961 5.28947449 138.3591423 C3.88832211 134.56305073 2.47325016 130.77215288 1.05957031 126.98071289 C-0.97052655 121.53229268 -2.99574883 116.08210483 -5.01504898 110.62967396 C-8.27884398 101.81782019 -11.57382587 93.01817389 -14.89014435 84.22596359 C-16.39531983 80.23365516 -17.89637312 76.23979516 -19.39745712 72.24594688 C-20.5675699 69.13315912 -21.73970393 66.02117693 -22.91516113 62.91040039 C-41.53425891 13.58633217 -41.53425891 13.58633217 -37.19140625 3.61328125 C-33.45794181 -2.3940219 -29.6192918 -5.39226942 -22.91015625 -7.6875 C-13.71200969 -8.34451047 -7.10285413 -5.82798287 0 0 Z " fill="#041148" transform="translate(43.28515625,189.875)"/>
<path d="M0 0 C5.17381849 4.63291929 8.63628635 10.27172255 9.17578125 17.28515625 C9.18586497 19.19097841 9.10195285 21.09688009 9 23 C13.71233456 19.04379935 18.13164631 14.89682243 22.4375 10.5 C35.42972184 -2.5614244 35.42972184 -2.5614244 44.4453125 -3.3203125 C53.22333535 -2.21970413 58.13162463 3.59102348 64.0625 9.63671875 C65.02140836 10.60056185 65.98114061 11.5635859 66.94165039 12.52583313 C68.94802089 14.53981777 70.9477833 16.56005123 72.94238281 18.58569336 C75.47880493 21.1615538 78.02575156 23.72665638 80.57710266 26.28772259 C83.03407094 28.75474933 85.48614318 31.22661788 87.9375 33.69921875 C88.84185791 34.61096359 89.74621582 35.52270844 90.67797852 36.46208191 C95.06438644 40.91412425 99.30309539 45.42866064 103.3795166 50.16529846 C106.01575361 53.15003012 108.8521245 55.91759508 111.703125 58.6953125 C112.94299098 59.91768212 114.18256597 61.14034696 115.421875 62.36328125 C117.34313444 64.25350496 119.26665081 66.14125376 121.1953125 68.02392578 C123.07974502 69.86592043 124.95450379 71.71733059 126.828125 73.5703125 C127.69065887 74.40491501 127.69065887 74.40491501 128.57061768 75.25637817 C133.08591464 79.7426713 136.41330091 84.2641941 136.5 90.875 C136.54640625 92.04675781 136.54640625 92.04675781 136.59375 93.2421875 C134.98679753 100.70605886 129.35032055 105.95368596 123.84375 110.84375 C122.4089222 112.15347701 120.9767392 113.46610589 119.546875 114.78125 C118.80179688 115.46638672 118.05671875 116.15152344 117.2890625 116.85742188 C113.38391341 120.51266808 109.61407715 124.30032621 105.84375 128.09375 C104.69374512 129.24883057 104.69374512 129.24883057 103.52050781 130.42724609 C101.17823591 132.78275394 98.83867917 135.14092537 96.5 137.5 C93.36758119 140.65924621 90.23167695 143.81497578 87.09375 146.96875 C86.04979065 148.02515686 86.04979065 148.02515686 84.98474121 149.10290527 C81.06042712 153.04661037 77.03723234 156.8004037 72.8057251 160.41349792 C69.19799859 163.58323046 65.91085031 167.08747163 62.58203125 170.54492188 C57.92501898 175.29686126 54.98533674 177.28771836 48.125 177.375 C47.11695313 177.40335938 46.10890625 177.43171875 45.0703125 177.4609375 C38.68064641 176.50167465 34.25146549 171.5508862 29.8671875 167.1328125 C29.30806671 166.57560516 28.74894592 166.01839783 28.17288208 165.44430542 C26.9990272 164.27180383 25.8276632 163.09680364 24.65869141 161.91943359 C22.88010647 160.13013723 21.0910994 158.35176645 19.30078125 156.57421875 C18.15560824 155.42772399 17.01105587 154.28060891 15.8671875 153.1328125 C15.07331131 152.345009 15.07331131 152.345009 14.26339722 151.54129028 C6.57043211 143.75149606 6.57043211 143.75149606 5.46875 138.4375 C5.54100205 132.80184047 6.13428731 129.40261723 10 125 C13.32943293 121.92495071 15.98151115 121.54741744 20.4375 121.125 C25.88341822 120.5005013 25.88341822 120.5005013 30.25 117.5 C32.90382222 113.7088254 33.36492972 111.65285387 33 107 C31.73896101 104.22571423 30.68910086 102.51682565 28.25 100.6875 C24.35701719 99.49797748 20.66529519 99.537418 16.75 100.625 C13.33430574 103.30875978 12.18642471 106.61132617 11.6171875 110.8515625 C11.43542969 112.41003906 11.43542969 112.41003906 11.25 114 C10.61390744 118.23185546 9.99986287 120.75569407 6.8125 123.6875 C3.27587314 126.15729314 0.37277706 127.07671539 -4 127 C-10.40497981 125.11521411 -14.15436418 122.57472262 -18.765625 117.828125 C-19.36630798 117.2274823 -19.96699097 116.6268396 -20.58587646 116.00799561 C-21.84548589 114.74305598 -23.09902375 113.4720438 -24.34667969 112.1953125 C-26.24478499 110.25533006 -28.16336002 108.33757561 -30.0859375 106.421875 C-31.31376947 105.18354909 -32.54037434 103.94400502 -33.765625 102.703125 C-34.33234924 102.13619934 -34.89907349 101.56927368 -35.48297119 100.98516846 C-39.58579815 96.76019213 -43.38735251 92.28514124 -44.49609375 86.33984375 C-44.47675781 85.54707031 -44.45742188 84.75429687 -44.4375 83.9375 C-44.43621094 83.14214844 -44.43492187 82.34679687 -44.43359375 81.52734375 C-43.07776324 73.62443977 -37.30284071 68.91882782 -31.8125 63.5625 C-30.98685547 62.74201172 -30.16121094 61.92152344 -29.31054688 61.07617188 C-24.84747371 56.66937071 -20.30350068 52.42768996 -15.50268555 48.39038086 C-13.87904612 47.05208273 -13.87904612 47.05208273 -13 45 C-13.76183594 44.92523438 -14.52367187 44.85046875 -15.30859375 44.7734375 C-24.32715473 43.62500651 -30.62303637 41.15626293 -36.4375 34 C-40.1581929 26.85626964 -41.24189013 20.27410301 -39.3828125 12.37890625 C-36.86837585 5.06923863 -32.68338779 0.47893603 -25.8671875 -3.12890625 C-17.31002923 -6.54870247 -7.47856658 -5.41212055 0 0 Z " fill="#FAD935" transform="translate(319,80)"/>
<path d="M0 0 C4.77912734 4.01274476 7.82875923 9.36522127 8.44140625 15.60546875 C8.68666265 23.51970397 7.68757645 29.22550464 3.16796875 35.8203125 C2.18042956 36.83261994 1.18214482 37.83469244 0.16796875 38.8203125 C1.40885254 38.83489502 2.64973633 38.84947754 3.92822266 38.86450195 C8.54667496 38.92261973 13.16464659 38.99985197 17.78271484 39.08276367 C19.77872904 39.11594963 21.77483564 39.14400118 23.77099609 39.16674805 C26.64590715 39.20041043 29.51997618 39.25273227 32.39453125 39.30859375 C33.28226227 39.31498367 34.16999329 39.3213736 35.08462524 39.32795715 C40.87447918 39.4643241 45.40023839 40.23665922 49.8125 44.35546875 C52.9619832 48.47402371 54.27604727 50.61299013 54.484375 55.74609375 C54.5265918 56.76082764 54.56880859 57.77556152 54.61230469 58.82104492 C54.6707959 60.46036987 54.6707959 60.46036987 54.73046875 62.1328125 C54.77075195 63.24825439 54.81103516 64.36369629 54.85253906 65.51293945 C54.96859369 68.94849788 55.07144741 72.38415275 55.16796875 75.8203125 C55.19810059 76.85639648 55.22823242 77.89248047 55.25927734 78.95996094 C55.33263759 81.80932907 55.38082208 84.6577659 55.41796875 87.5078125 C55.43931885 88.36093018 55.46066895 89.21404785 55.48266602 90.09301758 C55.51887549 96.63639922 54.04042381 100.66698918 49.66796875 105.6953125 C46.03961362 108.45034146 42.42919316 108.63223653 37.9765625 108.45703125 C33.81833235 107.51434486 31.37562931 105.22439299 28.2265625 102.45703125 C25.23537334 100.07883721 22.94689793 99.6777114 19.16796875 99.8203125 C15.99183187 100.95892761 13.93402793 101.88014896 11.79296875 104.5078125 C10.84909874 108.00013155 10.4575477 111.27524111 11.16796875 114.8203125 C14.08593971 118.42938184 16.2651868 120.60408728 20.91796875 121.1328125 C25.62844244 120.67988234 28.55577341 118.43250784 31.85546875 115.1328125 C34.41541975 112.5728615 37.55476683 112.60779458 40.98046875 112.5078125 C45.82280086 112.57134164 48.52543972 113.44430998 52.16796875 116.8203125 C55.7339528 122.2409921 55.62037022 127.20904349 55.6015625 133.4765625 C55.60680435 134.49705688 55.6120462 135.51755127 55.6174469 136.56896973 C55.62385329 138.72061251 55.62254807 140.87229038 55.61401367 143.02392578 C55.60549664 146.30955478 55.63429702 149.59344847 55.66601562 152.87890625 C55.66762767 154.97395781 55.66705005 157.06901245 55.6640625 159.1640625 C55.67529648 160.14234009 55.68653046 161.12061768 55.69810486 162.12854004 C55.63957347 167.87598931 55.06035474 171.28923779 51.16796875 175.8203125 C46.02065907 180.46544563 42.00545851 180.98977317 35.28125 181.13671875 C34.45989563 181.15768112 33.63854126 181.17864349 32.79229736 181.20024109 C30.02179546 181.26773981 27.25121649 181.32633672 24.48046875 181.3828125 C23.52365204 181.40299438 22.56683533 181.42317627 21.58102417 181.44396973 C3.74284114 181.80886866 -14.09824148 181.98446255 -31.93984985 182.05148315 C-34.82321005 182.06258446 -37.70640666 182.08045062 -40.58969116 182.10403442 C-44.66923742 182.1366264 -48.74845052 182.14380982 -52.828125 182.1484375 C-54.05440613 182.16073898 -55.28068726 182.17304047 -56.54412842 182.18571472 C-63.2227752 182.16835476 -68.26582546 181.9968616 -73.4765625 177.35546875 C-77.50894744 172.27115731 -77.94876442 168.92827436 -78.03735352 162.546875 C-78.05727356 161.26626694 -78.0771936 159.98565887 -78.09771729 158.66624451 C-78.11474989 157.25926869 -78.13165279 155.8522913 -78.1484375 154.4453125 C-78.16930338 152.9778239 -78.19053068 151.51034041 -78.21209717 150.04286194 C-78.27989684 145.30209233 -78.33757074 140.56122269 -78.39453125 135.8203125 C-78.41453189 134.20132385 -78.43458196 132.58233581 -78.4546814 130.96334839 C-78.56358172 122.12382543 -78.6629891 113.28422901 -78.75725079 104.44453907 C-78.82091932 98.58174809 -78.90339883 92.71933649 -78.99024963 86.85684204 C-79.04650938 82.78346823 -79.08576652 78.71010247 -79.11813354 74.63647461 C-79.13557831 72.81673381 -79.15980898 70.99704401 -79.19119263 69.17749023 C-79.23251329 66.69488179 -79.2485609 64.21337392 -79.2578125 61.73046875 C-79.27527527 61.0347023 -79.29273804 60.33893585 -79.31072998 59.62208557 C-79.28467956 53.70877637 -77.37535819 48.47069012 -73.26557922 44.18792725 C-66.80237044 38.72709449 -56.80937862 40.03412196 -48.83203125 40.0078125 C-47.18225899 39.98464245 -45.53251608 39.95927193 -43.8828125 39.93164062 C-39.86577585 39.86911274 -35.84951093 39.83652227 -31.83203125 39.8203125 C-32.24195313 39.30082031 -32.651875 38.78132813 -33.07421875 38.24609375 C-39.56348252 29.84730978 -40.92792466 23.51110243 -39.83203125 12.8203125 C-37.90059026 5.79774306 -34.33914955 1.57423974 -28.08203125 -2.05859375 C-18.35372128 -6.90585931 -8.98923886 -5.91660555 0 0 Z " fill="#4DAFFA" transform="translate(206.83203125,14.1796875)"/>
<path d="M0 0 C0.91417694 -0.0065712 1.82835388 -0.0131424 2.77023315 -0.01991272 C5.79970379 -0.03964424 8.82912483 -0.05130895 11.85864258 -0.0612793 C12.89399958 -0.06535482 13.92935658 -0.06943035 14.99608803 -0.07362938 C20.47769598 -0.09449099 25.9592789 -0.10879148 31.44091797 -0.11816406 C37.09568109 -0.12921962 42.75004974 -0.16360965 48.40467358 -0.20333576 C52.75851662 -0.22951619 57.11226596 -0.23785726 61.4661808 -0.24144554 C63.55011975 -0.24630896 65.63405458 -0.25791592 67.71791649 -0.27648354 C70.64038447 -0.30090154 73.56183566 -0.29990478 76.484375 -0.29296875 C77.33921982 -0.30577881 78.19406464 -0.31858887 79.07481384 -0.33178711 C84.81326202 -0.28234987 89.30820717 0.85942347 94.06567383 4.17700195 C98.77563705 9.97387977 99.21670991 14.53442776 99.16333008 21.78637695 C99.16120766 22.87659149 99.16120766 22.87659149 99.15904236 23.98883057 C99.15346175 26.30159689 99.14091287 28.61426507 99.12817383 30.92700195 C99.12315632 32.49861513 99.11859385 34.07022984 99.11450195 35.6418457 C99.10349867 39.48693539 99.08624744 43.33195205 99.06567383 47.17700195 C99.67403076 46.6883667 100.2823877 46.19973145 100.90917969 45.69628906 C101.71234619 45.05957275 102.5155127 44.42285645 103.34301758 43.7668457 C104.53399048 42.81733032 104.53399048 42.81733032 105.74902344 41.84863281 C110.89797575 38.13329121 116.86165817 37.43160266 123.06567383 38.17700195 C130.55157288 39.89487158 135.55633069 42.65488278 139.81567383 49.17700195 C143.49899779 55.14491926 143.86011739 61.28269284 143.06567383 68.17700195 C140.89007413 74.99648264 137.16263956 80.35348107 131.06567383 84.17700195 C124.61986612 87.36147254 116.36236343 87.45350698 109.51489258 85.41918945 C105.64539515 83.56824342 103.07641945 81.22572094 100.06567383 78.17700195 C100.05165527 79.61366211 100.05165527 79.61366211 100.03735352 81.0793457 C99.99719046 84.66557692 99.93136257 88.25097375 99.8581543 91.83666992 C99.83009596 93.38245853 99.80880676 94.92838656 99.79467773 96.47436523 C99.63947187 112.50195721 99.63947187 112.50195721 95.06567383 119.17700195 C88.10701689 125.63861197 80.62026546 124.50254505 71.63671875 124.58203125 C69.80644826 124.60357528 67.97627981 124.63763571 66.14648438 124.68457031 C63.5005924 124.75180023 60.8568324 124.77906851 58.21020508 124.7980957 C56.99419365 124.83984169 56.99419365 124.83984169 55.75361633 124.88243103 C50.23884465 124.86265814 47.40798964 123.5115284 43.37309265 119.76063538 C40.57191401 116.36765981 40.79284065 112.56586476 40.84692383 108.38793945 C41.25990401 104.21388973 43.47999068 101.831589 46.19067383 98.80200195 C48.54896822 95.50038981 48.92167523 93.20896266 49.06567383 89.17700195 C48.29367738 85.78021756 47.5319536 84.55261622 44.81567383 82.36450195 C41.52164871 80.94208202 39.62314435 80.66879188 36.06567383 81.17700195 C31.84085637 83.45288425 31.84085637 83.45288425 29.06567383 87.17700195 C28.45994751 91.49280199 28.23552809 93.86065833 30.59301758 97.59887695 C31.83996145 99.15946929 33.12041224 100.69402661 34.43676758 102.1965332 C37.50819615 105.93086003 37.45484581 109.50693812 37.06567383 114.17700195 C35.25015201 118.99208156 32.76065279 122.02622725 28.06567383 124.17700195 C25.1401097 124.47665591 22.43418765 124.6215493 19.51098633 124.6105957 C18.69121307 124.61583755 17.87143982 124.62107941 17.02682495 124.6264801 C15.29711028 124.63288661 13.56735197 124.63158108 11.83764648 124.62304688 C9.20582519 124.61455086 6.57618643 124.64329231 3.94458008 124.67504883 C2.25838281 124.67666152 0.57218173 124.676082 -1.11401367 124.6730957 C-1.89340302 124.68432968 -2.67279236 124.69556366 -3.47579956 124.70713806 C-8.79524581 124.64007714 -12.83616446 123.71391436 -16.93432617 120.17700195 C-20.96600578 115.46128174 -21.49519184 110.85225939 -21.32495117 104.8371582 C-21.31929138 104.07020126 -21.31363159 103.30324432 -21.30780029 102.51304626 C-21.28559111 100.08786882 -21.2354288 97.66422501 -21.18432617 95.23950195 C-21.16424097 93.58522657 -21.14599375 91.93092779 -21.12963867 90.27661133 C-21.08577776 86.24282647 -21.01686254 82.21017329 -20.93432617 78.17700195 C-21.69358398 78.67071289 -22.4528418 79.16442383 -23.23510742 79.6730957 C-24.22897461 80.31375977 -25.2228418 80.95442383 -26.24682617 81.61450195 C-27.23295898 82.25258789 -28.2190918 82.89067383 -29.23510742 83.5480957 C-35.10809696 87.09228765 -41.25834171 86.74584323 -47.93432617 86.17700195 C-54.80011029 84.16856908 -59.17173902 79.72296117 -63.18432617 73.92700195 C-66.47025088 67.75587506 -66.53988821 61.04694928 -64.78198242 54.3762207 C-62.02042207 47.21143508 -56.79642024 42.41357669 -49.93432617 39.17700195 C-42.65437345 36.94142592 -36.3399144 38.01355595 -29.39135742 40.8137207 C-26.20505871 42.58163525 -23.71381346 44.81900308 -20.93432617 47.17700195 C-20.95003662 46.14816895 -20.96574707 45.11933594 -20.98193359 44.05932617 C-21.03643952 40.22395732 -21.07075095 36.38862238 -21.09912109 32.55297852 C-21.11416082 30.89634433 -21.13459794 29.23974964 -21.16064453 27.58325195 C-21.19724133 25.19513166 -21.21410057 22.80754007 -21.22729492 20.41918945 C-21.24277878 19.68457489 -21.25826263 18.94996033 -21.2742157 18.19308472 C-21.27598199 12.7344489 -20.15587405 8.61260523 -16.43432617 4.5324707 C-10.91350454 0.23370594 -6.79188387 0.0211138 0 0 Z " fill="#2CD42D" transform="translate(205.934326171875,206.822998046875)"/>
<path d="M0 0 C3.93791365 0.72329026 5.9241603 2.06463779 9.0625 4.5625 C9.86300781 5.18705078 9.86300781 5.18705078 10.6796875 5.82421875 C20.9128239 14.80768642 26.08948376 29.59075616 31.54931641 41.71044922 C35.4225186 50.27093221 39.49955214 58.71530525 43.6875 67.125 C44.16890442 68.09595108 44.16890442 68.09595108 44.66003418 69.08651733 C48.24605476 76.30181143 51.98692976 83.27189922 56.4375 90 C60.29362312 96.10373306 60.83626399 100.99088132 60.91796875 108.12890625 C61.68915674 126.44983167 79.93413864 142.77905877 92.20288086 154.90869141 C93.89574045 156.58301333 95.58017957 158.26548321 97.26367188 159.94921875 C98.34848352 161.02912301 99.433753 162.10856761 100.51953125 163.1875 C101.0174971 163.68435303 101.51546295 164.18120605 102.02851868 164.69311523 C105.78620434 168.45248653 105.78620434 168.45248653 110.0625 171.5625 C113.75065293 171.33381906 113.75065293 171.33381906 117.0625 170.5625 C118.00857807 167.81288489 118.00857807 167.81288489 118.0625 164.5625 C115.90998236 162.10451498 115.90998236 162.10451498 113.0625 159.5625 C112.06075912 158.58873978 111.0625067 157.61138077 110.06738281 156.63085938 C109.27065155 155.85349426 109.27065155 155.85349426 108.45782471 155.0604248 C106.03651291 152.69352156 103.62654789 150.31518891 101.21679688 147.93652344 C99.95805884 146.69779611 98.69574067 145.46269516 97.4296875 144.23144531 C72.73069466 120.19126452 72.73069466 120.19126452 71.4375 103.875 C71.6607557 99.54075999 73.26239806 96.93148415 76.29296875 93.88671875 C79.28850797 91.64502384 81.35511273 91.37073859 85.0625 91.5625 C94.87600089 94.36928418 102.21914476 103.64958779 109.140625 110.66796875 C111.64506415 113.13677563 114.2754374 115.43085847 116.94140625 117.72265625 C119.28741058 119.75758819 121.5798645 121.84540967 123.875 123.9375 C128.18808704 127.82979806 132.62981712 131.52461569 137.14453125 135.1796875 C140.8760067 138.22680935 144.54446983 141.34453202 148.21264648 144.46728516 C151.74640328 147.46884649 155.32641365 150.40384415 158.9375 153.3125 C175.94921324 167.26703579 183.41906194 183.6969606 185.5859375 205.4921875 C185.83165088 208.13236786 186.06447411 210.77322345 186.2890625 213.4152832 C186.92292063 220.69078607 187.92297832 227.87206849 189.09765625 235.07885742 C189.22269531 235.85720947 189.34773437 236.63556152 189.4765625 237.4375 C189.5895166 238.11554688 189.7024707 238.79359375 189.81884766 239.4921875 C190.09447531 241.834194 190.0625 244.20433015 190.0625 246.5625 C167.9525 246.5625 145.8425 246.5625 123.0625 246.5625 C120.7525 242.2725 118.4425 237.9825 116.0625 233.5625 C113.78045866 230.43970659 111.53804546 227.50512951 109.0625 224.5625 C108.6396875 223.9953125 108.216875 223.428125 107.78125 222.84375 C101.22856945 214.37321172 91.41206747 208.29525312 82.875 201.9699707 C55.00441237 181.26167542 45.31982695 155.98972181 33.71435165 124.28988266 C32.29378902 120.4143655 30.86522468 116.54180238 29.43676758 112.66918945 C29.14959838 111.8906319 28.86242918 111.11207434 28.56655788 110.30992413 C27.98445222 108.73179993 27.40231506 107.15368734 26.82014656 105.57558632 C25.94458362 103.20114835 25.07004622 100.82633458 24.19566345 98.45146179 C20.46353035 88.32059683 16.68564213 78.20799994 12.8671875 68.109375 C12.38088837 66.8217596 11.89463599 65.53412655 11.40843201 64.24647522 C9.58668011 59.42346739 7.76416835 54.6007752 5.93008423 49.78244019 C-7.01124885 15.77508317 -7.01124885 15.77508317 -7.9375 5.5625 C-5.54466289 2.22703009 -4.06577784 0.7785532 0 0 Z " fill="#FDCCBF" transform="translate(24.9375,194.4375)"/>
<path d="M0 0 C2.7578125 2.0859375 2.7578125 2.0859375 5 5 C4.89301845 14.8066419 -0.10792095 25.3823599 -3.390625 34.51171875 C-3.82401688 35.72059753 -4.25740875 36.92947632 -4.70393372 38.17498779 C-9.92283799 52.6843182 -15.3839073 67.1033282 -20.84430695 81.52306366 C-23.14590858 87.60176687 -25.44441158 93.68164327 -27.74263763 99.76162338 C-28.31097964 101.26508067 -28.8794451 102.7684913 -29.44803619 104.2718544 C-32.91921326 113.45115049 -36.36018615 122.64038128 -39.74609375 131.8515625 C-40.42414474 133.68916092 -41.10228178 135.5267276 -41.78051758 137.36425781 C-42.9596971 140.5601315 -44.12587087 143.76029295 -45.28393555 146.96386719 C-53.85746545 170.37587505 -66.32238241 187.7511877 -86.75 202.3125 C-104.54771655 214.99930469 -115.31230943 226.1514318 -126 246 C-148.11 246 -170.22 246 -193 246 C-192.40445727 238.8534873 -191.79096896 232.06407198 -190.5625 225.0625 C-189.39359776 218.13473585 -188.62891372 211.25102618 -188.0625 204.25 C-186.05088885 181.00920002 -177.13082898 165.18410686 -159.5 150.3125 C-157.34623738 148.52548986 -155.17623258 146.75953621 -153 145 C-151.18719857 143.52120277 -149.37468532 142.04205218 -147.5625 140.5625 C-146.675625 139.83933594 -145.78875 139.11617187 -144.875 138.37109375 C-136.42562729 131.40265729 -128.1607178 124.23846059 -120.12402344 116.79785156 C-117.39515653 114.27139555 -114.6347718 111.7964758 -111.8125 109.375 C-108.87800806 106.84757009 -106.18977813 104.16100528 -103.5 101.375 C-98.17091861 96.04591861 -93.63964666 91.86513643 -85.875 91.25 C-82.07976215 91.4667034 -80.05633823 92.22454221 -77.375 94.9375 C-74.88178603 98.46483112 -74.21657632 101.35200691 -74.5625 105.6328125 C-77.71345194 122.68171318 -92.06169657 135.6256597 -103.9375 147.1875 C-105.26461781 148.4944829 -106.59079484 149.80242177 -107.91601562 151.11132812 C-110.32362829 153.48663175 -112.73616286 155.8566402 -115.15600586 158.21948242 C-116.09452393 159.13705322 -117.03304199 160.05462402 -118 161 C-118.55881363 161.48789505 -119.11762726 161.9757901 -119.69337463 162.47846985 C-120.124561 162.9805748 -120.55574738 163.48267975 -121 164 C-120.85909916 167.83266292 -120.85909916 167.83266292 -119 171 C-115.35874688 171.4357055 -113.5636071 171.38276121 -110.4921875 169.296875 C-109.62851562 168.45640625 -108.76484375 167.6159375 -107.875 166.75 C-107.38201416 166.27401367 -106.88902832 165.79802734 -106.38110352 165.30761719 C-105.24045281 164.19915746 -104.10729695 163.08295556 -102.97998047 161.9609375 C-100.72894944 159.73155634 -98.4445603 157.53890911 -96.16015625 155.34375 C-74.13562126 134.86521951 -74.13562126 134.86521951 -63.84375 107.52734375 C-63.85921875 105.75037109 -63.85921875 105.75037109 -63.875 103.9375 C-63.59774633 95.94607083 -60.52963276 90.82924167 -56.41821289 84.09765625 C-51.23810581 75.59727512 -46.73518493 66.84725549 -42.3125 57.9375 C-41.94489563 57.20001526 -41.57729126 56.46253052 -41.19854736 55.70269775 C-36.89988577 47.06956227 -32.74295809 38.39897733 -28.875 29.5625 C-14.95222682 -2.1360324 -14.95222682 -2.1360324 0 0 Z " fill="#FDCCBF" transform="translate(490,195)"/>
<path d="M0 0 C0.91417694 -0.0065712 1.82835388 -0.0131424 2.77023315 -0.01991272 C5.79970379 -0.03964424 8.82912483 -0.05130895 11.85864258 -0.0612793 C12.89399958 -0.06535482 13.92935658 -0.06943035 14.99608803 -0.07362938 C20.47769598 -0.09449099 25.9592789 -0.10879148 31.44091797 -0.11816406 C37.09568109 -0.12921962 42.75004974 -0.16360965 48.40467358 -0.20333576 C52.75851662 -0.22951619 57.11226596 -0.23785726 61.4661808 -0.24144554 C63.55011975 -0.24630896 65.63405458 -0.25791592 67.71791649 -0.27648354 C70.64038447 -0.30090154 73.56183566 -0.29990478 76.484375 -0.29296875 C77.33921982 -0.30577881 78.19406464 -0.31858887 79.07481384 -0.33178711 C84.81326202 -0.28234987 89.30820717 0.85942347 94.06567383 4.17700195 C98.77563705 9.97387977 99.21670991 14.53442776 99.16333008 21.78637695 C99.16120766 22.87659149 99.16120766 22.87659149 99.15904236 23.98883057 C99.15346175 26.30159689 99.14091287 28.61426507 99.12817383 30.92700195 C99.12315632 32.49861513 99.11859385 34.07022984 99.11450195 35.6418457 C99.10349867 39.48693539 99.08624744 43.33195205 99.06567383 47.17700195 C99.67403076 46.6883667 100.2823877 46.19973145 100.90917969 45.69628906 C101.71234619 45.05957275 102.5155127 44.42285645 103.34301758 43.7668457 C104.53399048 42.81733032 104.53399048 42.81733032 105.74902344 41.84863281 C110.89797575 38.13329121 116.86165817 37.43160266 123.06567383 38.17700195 C130.55157288 39.89487158 135.55633069 42.65488278 139.81567383 49.17700195 C143.49899779 55.14491926 143.86011739 61.28269284 143.06567383 68.17700195 C140.89007413 74.99648264 137.16263956 80.35348107 131.06567383 84.17700195 C124.61986612 87.36147254 116.36236343 87.45350698 109.51489258 85.41918945 C105.64539515 83.56824342 103.07641945 81.22572094 100.06567383 78.17700195 C100.05165527 79.61366211 100.05165527 79.61366211 100.03735352 81.0793457 C99.99719046 84.66557692 99.93136257 88.25097375 99.8581543 91.83666992 C99.83009596 93.38245853 99.80880676 94.92838656 99.79467773 96.47436523 C99.63947187 112.50195721 99.63947187 112.50195721 95.06567383 119.17700195 C88.10701689 125.63861197 80.62026546 124.50254505 71.63671875 124.58203125 C69.80644826 124.60357528 67.97627981 124.63763571 66.14648438 124.68457031 C63.5005924 124.75180023 60.8568324 124.77906851 58.21020508 124.7980957 C56.99419365 124.83984169 56.99419365 124.83984169 55.75361633 124.88243103 C50.23884465 124.86265814 47.40798964 123.5115284 43.37309265 119.76063538 C40.57191401 116.36765981 40.79284065 112.56586476 40.84692383 108.38793945 C41.25990401 104.21388973 43.47999068 101.831589 46.19067383 98.80200195 C48.54896822 95.50038981 48.92167523 93.20896266 49.06567383 89.17700195 C48.29367738 85.78021756 47.5319536 84.55261622 44.81567383 82.36450195 C41.52164871 80.94208202 39.62314435 80.66879188 36.06567383 81.17700195 C31.84085637 83.45288425 31.84085637 83.45288425 29.06567383 87.17700195 C28.45994751 91.49280199 28.23552809 93.86065833 30.59301758 97.59887695 C31.83996145 99.15946929 33.12041224 100.69402661 34.43676758 102.1965332 C37.50819615 105.93086003 37.45484581 109.50693812 37.06567383 114.17700195 C35.25015201 118.99208156 32.76065279 122.02622725 28.06567383 124.17700195 C25.1401097 124.47665591 22.43418765 124.6215493 19.51098633 124.6105957 C18.69121307 124.61583755 17.87143982 124.62107941 17.02682495 124.6264801 C15.29711028 124.63288661 13.56735197 124.63158108 11.83764648 124.62304688 C9.20582519 124.61455086 6.57618643 124.64329231 3.94458008 124.67504883 C2.25838281 124.67666152 0.57218173 124.676082 -1.11401367 124.6730957 C-1.89340302 124.68432968 -2.67279236 124.69556366 -3.47579956 124.70713806 C-8.79524581 124.64007714 -12.83616446 123.71391436 -16.93432617 120.17700195 C-20.96600578 115.46128174 -21.49519184 110.85225939 -21.32495117 104.8371582 C-21.31929138 104.07020126 -21.31363159 103.30324432 -21.30780029 102.51304626 C-21.28559111 100.08786882 -21.2354288 97.66422501 -21.18432617 95.23950195 C-21.16424097 93.58522657 -21.14599375 91.93092779 -21.12963867 90.27661133 C-21.08577776 86.24282647 -21.01686254 82.21017329 -20.93432617 78.17700195 C-21.69358398 78.67071289 -22.4528418 79.16442383 -23.23510742 79.6730957 C-24.22897461 80.31375977 -25.2228418 80.95442383 -26.24682617 81.61450195 C-27.23295898 82.25258789 -28.2190918 82.89067383 -29.23510742 83.5480957 C-35.10809696 87.09228765 -41.25834171 86.74584323 -47.93432617 86.17700195 C-54.80011029 84.16856908 -59.17173902 79.72296117 -63.18432617 73.92700195 C-66.47025088 67.75587506 -66.53988821 61.04694928 -64.78198242 54.3762207 C-62.02042207 47.21143508 -56.79642024 42.41357669 -49.93432617 39.17700195 C-42.65437345 36.94142592 -36.3399144 38.01355595 -29.39135742 40.8137207 C-26.20505871 42.58163525 -23.71381346 44.81900308 -20.93432617 47.17700195 C-20.95003662 46.14816895 -20.96574707 45.11933594 -20.98193359 44.05932617 C-21.03643952 40.22395732 -21.07075095 36.38862238 -21.09912109 32.55297852 C-21.11416082 30.89634433 -21.13459794 29.23974964 -21.16064453 27.58325195 C-21.19724133 25.19513166 -21.21410057 22.80754007 -21.22729492 20.41918945 C-21.24277878 19.68457489 -21.25826263 18.94996033 -21.2742157 18.19308472 C-21.27598199 12.7344489 -20.15587405 8.61260523 -16.43432617 4.5324707 C-10.91350454 0.23370594 -6.79188387 0.0211138 0 0 Z M-7.93920898 13.47740173 C-9.68705118 16.46261092 -9.35401414 19.8053519 -9.34057617 23.16918945 C-9.35141235 23.95214386 -9.36224854 24.73509827 -9.37341309 25.54177856 C-9.40769255 28.04527022 -9.42326702 30.54830643 -9.43432617 33.05200195 C-9.44891797 36.34150123 -9.48266421 39.6299872 -9.52807617 42.91918945 C-9.52505493 43.67142792 -9.52203369 44.42366638 -9.5189209 45.19869995 C-9.58296245 49.7000425 -10.13375748 52.60984818 -12.93432617 56.17700195 C-17.31009532 59.06103162 -20.73532481 59.82687712 -25.93432617 59.17700195 C-29.13826258 57.38279756 -31.61845745 55.48433368 -34.24682617 52.92700195 C-38.10231026 50.41645417 -41.45875722 50.24098665 -45.93432617 51.17700195 C-49.0001602 52.90432217 -51.33660175 54.9815531 -52.93432617 58.17700195 C-53.33589036 63.39733635 -52.83478955 66.7762989 -49.93432617 71.17700195 C-46.96757809 73.88197815 -44.59189135 74.43134645 -40.68432617 74.30200195 C-36.63510206 73.73216081 -34.50624696 72.26215396 -31.43432617 69.61450195 C-28.29686985 66.94327603 -26.34826921 65.65541113 -22.18432617 65.55200195 C-17.53831247 65.95670698 -14.63115734 67.48636454 -11.32910156 70.77636719 C-9.34007728 74.19980072 -9.49350898 77.48483266 -9.49291992 81.3371582 C-9.47971207 82.12344101 -9.46650421 82.90972382 -9.45289612 83.71983337 C-9.41206859 86.22642595 -9.39034554 88.73265247 -9.37182617 91.23950195 C-9.34803291 93.74981078 -9.3199177 96.25977516 -9.28004456 98.7698822 C-9.25570486 100.33011367 -9.24083216 101.89052788 -9.23643494 103.45094299 C-9.182117 107.22411952 -9.07935844 108.95945355 -6.93432617 112.17700195 C-3.73007292 112.59554244 -3.73007292 112.59554244 0.04223633 112.4699707 C1.07010757 112.46360344 1.07010757 112.46360344 2.1187439 112.45710754 C4.30978512 112.44029948 6.49991014 112.402646 8.69067383 112.36450195 C10.17503555 112.34945775 11.65941168 112.33576888 13.14379883 112.32348633 C16.78472216 112.29038986 20.4251086 112.23859402 24.06567383 112.17700195 C23.48668453 109.37067629 23.05175405 108.15983423 21.19067383 105.86450195 C16.93004888 100.47606452 15.41082471 95.60349669 15.65942383 88.7980957 C16.708138 82.03187252 19.79230334 76.78778098 25.19067383 72.61450195 C31.37109603 68.36997076 37.77107663 68.52246903 45.06567383 69.17700195 C48.08800737 70.20468878 50.31398758 71.49541591 53.06567383 73.17700195 C54.55067383 73.67200195 54.55067383 73.67200195 56.06567383 74.17700195 C57.06567383 75.86450195 57.06567383 75.86450195 58.06567383 78.17700195 C58.60192383 78.98137695 59.13817383 79.78575195 59.69067383 80.61450195 C62.11938725 86.90707763 62.27647552 93.70232582 60.04614258 100.1027832 C58.08006309 104.11215981 55.79552147 107.64661248 53.06567383 111.17700195 C55.4958342 113.60716232 61.32342513 112.3502275 64.7199707 112.36254883 C65.4224292 112.36246826 66.1248877 112.3623877 66.84863281 112.36230469 C68.99084383 112.36448938 71.13253854 112.38263707 73.2746582 112.40161133 C74.63077623 112.40454554 75.98689671 112.40653015 77.34301758 112.4074707 C78.58301514 112.41157959 79.8230127 112.41568848 81.10058594 112.41992188 C84.18489453 112.48912 84.18489453 112.48912 86.06567383 110.17700195 C86.2626955 107.52568542 86.34259871 104.97007682 86.33911133 102.31762695 C86.35941073 100.71084929 86.38026171 99.10407851 86.40161133 97.49731445 C86.42415975 94.96502891 86.44065988 92.43301588 86.4465332 89.90063477 C86.45609455 87.45579721 86.48992569 85.0121875 86.52661133 82.56762695 C86.52156586 81.81741272 86.51652039 81.06719849 86.51132202 80.29425049 C86.60747294 75.11933092 87.80613494 72.16993709 91.06567383 68.17700195 C95.06302792 65.44363334 99.3887381 65.50886828 104.06567383 66.17700195 C107.35256461 67.94686622 109.76894047 69.90309424 112.50317383 72.42700195 C115.96527411 74.79136312 117.94540061 74.75528591 122.06567383 74.17700195 C125.76957404 72.15033957 127.71930393 70.69655679 130.06567383 67.17700195 C130.61169417 63.78592824 130.61195307 60.5682602 130.06567383 57.17700195 C127.87544465 54.35275907 126.23550176 52.76191592 123.06567383 51.17700195 C117.67602992 50.82358268 114.4852392 50.76762295 110.06567383 54.17700195 C109.04626193 55.1572057 108.04321027 56.15503204 107.06567383 57.17700195 C103.35009468 59.65405472 100.37246206 59.82954562 96.06567383 59.17700195 C91.06305905 56.72288904 89.12611911 54.28068043 87.06567383 49.17700195 C86.78699402 46.37959424 86.64784198 43.79720216 86.65942383 41.00512695 C86.64858765 40.24149841 86.63775146 39.47786987 86.62658691 38.69110107 C86.58089775 35.44476148 86.56917445 32.19850825 86.55444336 28.9519043 C86.53880544 26.57351863 86.50584114 24.19581053 86.47192383 21.81762695 C86.47494507 21.08118958 86.47796631 20.3447522 86.4810791 19.58599854 C86.48143435 17.30248806 86.48143435 17.30248806 86.06567383 14.17700195 C82.21900401 11.6125554 79.06242197 11.88881595 74.6027832 11.90234375 C73.30725273 11.89467735 73.30725273 11.89467735 71.98554993 11.88685608 C69.12677101 11.87294043 66.26823261 11.87391815 63.40942383 11.8762207 C61.4254955 11.87233522 59.44156801 11.86800086 57.4576416 11.86323547 C53.29814966 11.85576928 49.13874259 11.8560677 44.97924805 11.86132812 C39.64240027 11.86712717 34.30589904 11.85018315 28.96910858 11.82698345 C24.87194784 11.81227098 20.77487107 11.81137095 16.6776886 11.81449318 C14.70965386 11.81397884 12.74161455 11.80872012 10.77360535 11.79868126 C8.02502732 11.78638054 5.2771311 11.79306975 2.52856445 11.8046875 C1.3034893 11.79322189 1.3034893 11.79322189 0.05366516 11.78152466 C-4.16601466 11.79433125 -4.16601466 11.79433125 -7.93920898 13.47740173 Z " fill="#021146" transform="translate(205.934326171875,206.822998046875)"/>
<path d="M0 0 C5.17381849 4.63291929 8.63628635 10.27172255 9.17578125 17.28515625 C9.18586497 19.19097841 9.10195285 21.09688009 9 23 C13.71233456 19.04379935 18.13164631 14.89682243 22.4375 10.5 C35.42972184 -2.5614244 35.42972184 -2.5614244 44.4453125 -3.3203125 C53.22333535 -2.21970413 58.13162463 3.59102348 64.0625 9.63671875 C65.02140836 10.60056185 65.98114061 11.5635859 66.94165039 12.52583313 C68.94802089 14.53981777 70.9477833 16.56005123 72.94238281 18.58569336 C75.47880493 21.1615538 78.02575156 23.72665638 80.57710266 26.28772259 C83.03407094 28.75474933 85.48614318 31.22661788 87.9375 33.69921875 C88.84185791 34.61096359 89.74621582 35.52270844 90.67797852 36.46208191 C95.06438644 40.91412425 99.30309539 45.42866064 103.3795166 50.16529846 C106.01575361 53.15003012 108.8521245 55.91759508 111.703125 58.6953125 C112.94299098 59.91768212 114.18256597 61.14034696 115.421875 62.36328125 C117.34313444 64.25350496 119.26665081 66.14125376 121.1953125 68.02392578 C123.07974502 69.86592043 124.95450379 71.71733059 126.828125 73.5703125 C127.69065887 74.40491501 127.69065887 74.40491501 128.57061768 75.25637817 C133.08591464 79.7426713 136.41330091 84.2641941 136.5 90.875 C136.54640625 92.04675781 136.54640625 92.04675781 136.59375 93.2421875 C134.98679753 100.70605886 129.35032055 105.95368596 123.84375 110.84375 C122.4089222 112.15347701 120.9767392 113.46610589 119.546875 114.78125 C118.80179688 115.46638672 118.05671875 116.15152344 117.2890625 116.85742188 C113.38391341 120.51266808 109.61407715 124.30032621 105.84375 128.09375 C104.69374512 129.24883057 104.69374512 129.24883057 103.52050781 130.42724609 C101.17823591 132.78275394 98.83867917 135.14092537 96.5 137.5 C93.36758119 140.65924621 90.23167695 143.81497578 87.09375 146.96875 C86.04979065 148.02515686 86.04979065 148.02515686 84.98474121 149.10290527 C81.06042712 153.04661037 77.03723234 156.8004037 72.8057251 160.41349792 C69.19799859 163.58323046 65.91085031 167.08747163 62.58203125 170.54492188 C57.92501898 175.29686126 54.98533674 177.28771836 48.125 177.375 C47.11695313 177.40335938 46.10890625 177.43171875 45.0703125 177.4609375 C38.68064641 176.50167465 34.25146549 171.5508862 29.8671875 167.1328125 C29.30806671 166.57560516 28.74894592 166.01839783 28.17288208 165.44430542 C26.9990272 164.27180383 25.8276632 163.09680364 24.65869141 161.91943359 C22.88010647 160.13013723 21.0910994 158.35176645 19.30078125 156.57421875 C18.15560824 155.42772399 17.01105587 154.28060891 15.8671875 153.1328125 C15.07331131 152.345009 15.07331131 152.345009 14.26339722 151.54129028 C6.57043211 143.75149606 6.57043211 143.75149606 5.46875 138.4375 C5.54100205 132.80184047 6.13428731 129.40261723 10 125 C13.32943293 121.92495071 15.98151115 121.54741744 20.4375 121.125 C25.88341822 120.5005013 25.88341822 120.5005013 30.25 117.5 C32.90382222 113.7088254 33.36492972 111.65285387 33 107 C31.73896101 104.22571423 30.68910086 102.51682565 28.25 100.6875 C24.35701719 99.49797748 20.66529519 99.537418 16.75 100.625 C13.33430574 103.30875978 12.18642471 106.61132617 11.6171875 110.8515625 C11.43542969 112.41003906 11.43542969 112.41003906 11.25 114 C10.61390744 118.23185546 9.99986287 120.75569407 6.8125 123.6875 C3.27587314 126.15729314 0.37277706 127.07671539 -4 127 C-10.40497981 125.11521411 -14.15436418 122.57472262 -18.765625 117.828125 C-19.36630798 117.2274823 -19.96699097 116.6268396 -20.58587646 116.00799561 C-21.84548589 114.74305598 -23.09902375 113.4720438 -24.34667969 112.1953125 C-26.24478499 110.25533006 -28.16336002 108.33757561 -30.0859375 106.421875 C-31.31376947 105.18354909 -32.54037434 103.94400502 -33.765625 102.703125 C-34.33234924 102.13619934 -34.89907349 101.56927368 -35.48297119 100.98516846 C-39.58579815 96.76019213 -43.38735251 92.28514124 -44.49609375 86.33984375 C-44.47675781 85.54707031 -44.45742188 84.75429687 -44.4375 83.9375 C-44.43621094 83.14214844 -44.43492187 82.34679687 -44.43359375 81.52734375 C-43.07776324 73.62443977 -37.30284071 68.91882782 -31.8125 63.5625 C-30.98685547 62.74201172 -30.16121094 61.92152344 -29.31054688 61.07617188 C-24.84747371 56.66937071 -20.30350068 52.42768996 -15.50268555 48.39038086 C-13.87904612 47.05208273 -13.87904612 47.05208273 -13 45 C-13.76183594 44.92523438 -14.52367187 44.85046875 -15.30859375 44.7734375 C-24.32715473 43.62500651 -30.62303637 41.15626293 -36.4375 34 C-40.1581929 26.85626964 -41.24189013 20.27410301 -39.3828125 12.37890625 C-36.86837585 5.06923863 -32.68338779 0.47893603 -25.8671875 -3.12890625 C-17.31002923 -6.54870247 -7.47856658 -5.41212055 0 0 Z M-26 13 C-27.72589785 16.45179569 -27.36043965 20.21866039 -27 24 C-25.23042479 28.28423473 -23.07559836 29.93085006 -19 32 C-15.82283726 32.56386035 -15.82283726 32.56386035 -12.5 32.8125 C-5.2982517 33.82384404 -5.2982517 33.82384404 -2.6875 36.5625 C-0.58073313 40.85406213 0.08728797 44.31341392 -1 49 C-3.47816505 54.0529558 -6.01314288 57.28935153 -10.3125 61 C-11.36693684 61.93746367 -12.41888835 62.87772791 -13.46875 63.8203125 C-14.03078125 64.32336914 -14.5928125 64.82642578 -15.171875 65.34472656 C-18.61248812 68.4600253 -21.97646322 71.64828325 -25.3125 74.875 C-25.98901611 75.50535156 -26.66553223 76.13570313 -27.36254883 76.78515625 C-27.98154053 77.38972656 -28.60053223 77.99429688 -29.23828125 78.6171875 C-29.79555908 79.14940918 -30.35283691 79.68163086 -30.92700195 80.22998047 C-32.19263772 81.98465059 -32.19263772 81.98465059 -32.04785156 84.31176758 C-30.55277186 88.14735066 -27.90303052 90.59010724 -24.99609375 93.39453125 C-24.39821548 93.98674973 -23.80033722 94.5789682 -23.18434143 95.18913269 C-21.27792983 97.07320469 -19.35806809 98.94287154 -17.4375 100.8125 C-16.14036347 102.08956854 -14.84412838 103.36755339 -13.54882812 104.64648438 C-10.37623663 107.77504052 -7.19151172 110.89075189 -4 114 C-2.515 113.505 -2.515 113.505 -1 113 C-0.90203125 112.20335937 -0.8040625 111.40671875 -0.703125 110.5859375 C0.18441008 104.29668027 1.05879485 99.99219319 5 95 C5 94.34 5 93.68 5 93 C5.57363281 92.71382813 6.14726562 92.42765625 6.73828125 92.1328125 C8.17951334 91.41095187 9.61514729 90.67772398 11.04296875 89.9296875 C17.92736893 86.54391692 23.35880171 85.76569549 30.6875 88.25 C32.3271875 89.11625 32.3271875 89.11625 34 90 C35.03125 90.53625 36.0625 91.0725 37.125 91.625 C41.98085341 95.63635716 44.555602 99.87375668 45.44921875 106.16015625 C45.70903031 113.82011769 44.81447539 120.62489567 39.64453125 126.5546875 C33.61617875 132.0173769 26.82538753 133.48540536 19 134 C19 138.56930117 19.93538074 139.4314848 22.98832703 142.59541321 C23.5632338 143.16849716 24.13814056 143.74158112 24.73046875 144.33203125 C25.31790359 144.92803635 25.90533844 145.52404144 26.51057434 146.1381073 C27.75559275 147.39460908 29.00588322 148.64590559 30.26098633 149.89233398 C32.18057868 151.80560149 34.07200111 153.74395799 35.96289062 155.68554688 C37.17545965 156.90266145 38.38960179 158.11821122 39.60546875 159.33203125 C40.17025436 159.91523636 40.73503998 160.49844147 41.31694031 161.09931946 C44.47967205 164.25574496 44.47967205 164.25574496 48.72265625 165.0090332 C52.10098953 163.51217949 54.34011919 161.03756395 56.8125 158.375 C59.9714072 155.04317532 63.13856462 151.83440013 66.63745117 148.85595703 C71.31538016 144.78691704 75.67192433 140.43655965 80.03125 136.03125 C80.86660278 135.1921106 81.70195557 134.35297119 82.56262207 133.48840332 C85.21087086 130.828031 87.85584406 128.16443987 90.5 125.5 C93.98662601 121.98662727 97.47664926 118.47668029 100.96875 114.96875 C101.75544067 114.17376099 102.54213135 113.37877197 103.35266113 112.55969238 C108.64361369 107.24557231 114.14581403 102.27569082 119.85754395 97.42126465 C121.77975577 95.74558296 121.77975577 95.74558296 124 93 C124.06356522 89.35127768 122.72507811 87.46078212 120.33544922 84.8972168 C119.16855542 83.73770547 117.99089328 82.58896587 116.8046875 81.44921875 C116.17901886 80.83158157 115.55335022 80.2139444 114.90872192 79.57759094 C112.90672429 77.60454801 110.89161921 75.64558619 108.875 73.6875 C106.88237585 71.73767858 104.89267311 69.7849693 102.9055481 67.82954407 C101.67042552 66.6157466 100.43179499 65.40550363 99.18893433 64.19963074 C96.21315988 61.29084875 93.37251511 58.32804211 90.65307617 55.17724609 C83.91531917 47.37409575 76.53203642 40.14968189 69.28442383 32.82446289 C67.37518726 30.89276279 65.47623849 28.95171792 63.58520508 27.00219727 C60.84597123 24.17849273 58.07857708 21.3834061 55.30859375 18.58984375 C54.46469589 17.71295395 53.62079803 16.83606415 52.75132751 15.93260193 C51.95352371 15.1374971 51.15571991 14.34239227 50.33374023 13.52319336 C49.63981674 12.81674179 48.94589325 12.11029022 48.23094177 11.38243103 C45.99624472 9.70604865 45.99624472 9.70604865 42.89297485 10.14846802 C39.12411427 11.25781237 37.47419011 13.00075171 34.77734375 15.83984375 C34.30937881 16.32199844 33.84141388 16.80415314 33.35926819 17.30091858 C31.87282589 18.834963 30.40414676 20.38453735 28.9375 21.9375 C27.46563782 23.48506483 25.9901861 25.02856338 24.50502014 26.56336975 C23.15822736 27.95660216 21.82470633 29.36262787 20.49194336 30.76928711 C16.38602126 34.44478532 12.53009261 35.52271494 6.99609375 35.38671875 C3.31161885 34.6728968 1.56517612 32.68732737 -1 30 C-2.97891466 26.82153776 -3.24125062 24.27147325 -3.375 20.5625 C-3.73223454 15.86204546 -4.34062008 13.24116507 -8 10 C-11.02218498 7.73336126 -14.22315599 7.52853685 -17.96484375 7.60546875 C-21.61727597 8.31352183 -23.43783808 10.37534632 -26 13 Z " fill="#031146" transform="translate(319,80)"/>
<path d="M0 0 C4.77912734 4.01274476 7.82875923 9.36522127 8.44140625 15.60546875 C8.68666265 23.51970397 7.68757645 29.22550464 3.16796875 35.8203125 C2.18042956 36.83261994 1.18214482 37.83469244 0.16796875 38.8203125 C1.40885254 38.83489502 2.64973633 38.84947754 3.92822266 38.86450195 C8.54667496 38.92261973 13.16464659 38.99985197 17.78271484 39.08276367 C19.77872904 39.11594963 21.77483564 39.14400118 23.77099609 39.16674805 C26.64590715 39.20041043 29.51997618 39.25273227 32.39453125 39.30859375 C33.28226227 39.31498367 34.16999329 39.3213736 35.08462524 39.32795715 C40.87447918 39.4643241 45.40023839 40.23665922 49.8125 44.35546875 C52.9619832 48.47402371 54.27604727 50.61299013 54.484375 55.74609375 C54.5265918 56.76082764 54.56880859 57.77556152 54.61230469 58.82104492 C54.6707959 60.46036987 54.6707959 60.46036987 54.73046875 62.1328125 C54.77075195 63.24825439 54.81103516 64.36369629 54.85253906 65.51293945 C54.96859369 68.94849788 55.07144741 72.38415275 55.16796875 75.8203125 C55.19810059 76.85639648 55.22823242 77.89248047 55.25927734 78.95996094 C55.33263759 81.80932907 55.38082208 84.6577659 55.41796875 87.5078125 C55.43931885 88.36093018 55.46066895 89.21404785 55.48266602 90.09301758 C55.51887549 96.63639922 54.04042381 100.66698918 49.66796875 105.6953125 C46.03961362 108.45034146 42.42919316 108.63223653 37.9765625 108.45703125 C33.81833235 107.51434486 31.37562931 105.22439299 28.2265625 102.45703125 C25.23537334 100.07883721 22.94689793 99.6777114 19.16796875 99.8203125 C15.99183187 100.95892761 13.93402793 101.88014896 11.79296875 104.5078125 C10.84909874 108.00013155 10.4575477 111.27524111 11.16796875 114.8203125 C14.08593971 118.42938184 16.2651868 120.60408728 20.91796875 121.1328125 C25.62844244 120.67988234 28.55577341 118.43250784 31.85546875 115.1328125 C34.41541975 112.5728615 37.55476683 112.60779458 40.98046875 112.5078125 C45.82280086 112.57134164 48.52543972 113.44430998 52.16796875 116.8203125 C55.7339528 122.2409921 55.62037022 127.20904349 55.6015625 133.4765625 C55.60680435 134.49705688 55.6120462 135.51755127 55.6174469 136.56896973 C55.62385329 138.72061251 55.62254807 140.87229038 55.61401367 143.02392578 C55.60549664 146.30955478 55.63429702 149.59344847 55.66601562 152.87890625 C55.66762767 154.97395781 55.66705005 157.06901245 55.6640625 159.1640625 C55.67529648 160.14234009 55.68653046 161.12061768 55.69810486 162.12854004 C55.63957347 167.87598931 55.06035474 171.28923779 51.16796875 175.8203125 C46.02065907 180.46544563 42.00545851 180.98977317 35.28125 181.13671875 C34.45989563 181.15768112 33.63854126 181.17864349 32.79229736 181.20024109 C30.02179546 181.26773981 27.25121649 181.32633672 24.48046875 181.3828125 C23.52365204 181.40299438 22.56683533 181.42317627 21.58102417 181.44396973 C3.74284114 181.80886866 -14.09824148 181.98446255 -31.93984985 182.05148315 C-34.82321005 182.06258446 -37.70640666 182.08045062 -40.58969116 182.10403442 C-44.66923742 182.1366264 -48.74845052 182.14380982 -52.828125 182.1484375 C-54.05440613 182.16073898 -55.28068726 182.17304047 -56.54412842 182.18571472 C-63.2227752 182.16835476 -68.26582546 181.9968616 -73.4765625 177.35546875 C-77.50894744 172.27115731 -77.94876442 168.92827436 -78.03735352 162.546875 C-78.05727356 161.26626694 -78.0771936 159.98565887 -78.09771729 158.66624451 C-78.11474989 157.25926869 -78.13165279 155.8522913 -78.1484375 154.4453125 C-78.16930338 152.9778239 -78.19053068 151.51034041 -78.21209717 150.04286194 C-78.27989684 145.30209233 -78.33757074 140.56122269 -78.39453125 135.8203125 C-78.41453189 134.20132385 -78.43458196 132.58233581 -78.4546814 130.96334839 C-78.56358172 122.12382543 -78.6629891 113.28422901 -78.75725079 104.44453907 C-78.82091932 98.58174809 -78.90339883 92.71933649 -78.99024963 86.85684204 C-79.04650938 82.78346823 -79.08576652 78.71010247 -79.11813354 74.63647461 C-79.13557831 72.81673381 -79.15980898 70.99704401 -79.19119263 69.17749023 C-79.23251329 66.69488179 -79.2485609 64.21337392 -79.2578125 61.73046875 C-79.27527527 61.0347023 -79.29273804 60.33893585 -79.31072998 59.62208557 C-79.28467956 53.70877637 -77.37535819 48.47069012 -73.26557922 44.18792725 C-66.80237044 38.72709449 -56.80937862 40.03412196 -48.83203125 40.0078125 C-47.18225899 39.98464245 -45.53251608 39.95927193 -43.8828125 39.93164062 C-39.86577585 39.86911274 -35.84951093 39.83652227 -31.83203125 39.8203125 C-32.24195313 39.30082031 -32.651875 38.78132813 -33.07421875 38.24609375 C-39.56348252 29.84730978 -40.92792466 23.51110243 -39.83203125 12.8203125 C-37.90059026 5.79774306 -34.33914955 1.57423974 -28.08203125 -2.05859375 C-18.35372128 -6.90585931 -8.98923886 -5.91660555 0 0 Z M-27.20703125 13.6328125 C-28.13663366 16.88642093 -28.18085653 19.44833475 -27.83203125 22.8203125 C-26.0403044 26.01982474 -24.20875449 28.4540538 -21.58203125 31.0078125 C-18.83663961 35.42004907 -18.95966609 39.77094467 -19.83203125 44.8203125 C-21.69775532 48.48767088 -23.87064769 50.49985131 -27.83203125 51.8203125 C-30.53777867 51.95028929 -33.22259124 52.02950174 -35.9296875 52.06640625 C-37.55143806 52.09932643 -39.17318272 52.13253837 -40.79492188 52.16601562 C-43.35160504 52.2135486 -45.90826121 52.25802245 -48.46508789 52.29711914 C-50.93269945 52.33671664 -53.39983568 52.38826891 -55.8671875 52.44140625 C-56.63490982 52.4498204 -57.40263214 52.45823456 -58.19361877 52.46690369 C-62.47493555 52.41903965 -62.47493555 52.41903965 -65.83203125 54.8203125 C-66.13547373 56.88732725 -66.13547373 56.88732725 -66.08599854 59.29931641 C-66.09163818 60.24156067 -66.09727783 61.18380493 -66.10308838 62.15460205 C-66.09903992 63.19155212 -66.09499146 64.2285022 -66.09082031 65.296875 C-66.09432495 66.38635437 -66.09782959 67.47583374 -66.10144043 68.59832764 C-66.11027182 72.21405331 -66.10440356 75.8295847 -66.09765625 79.4453125 C-66.09900249 81.94873085 -66.10094268 84.45214895 -66.10345459 86.95556641 C-66.10640776 92.20802813 -66.10229159 97.46043894 -66.09277344 102.71289062 C-66.08188858 108.78980068 -66.08541407 114.86657655 -66.09642625 120.94348335 C-66.10658685 126.78368799 -66.1055228 132.62384151 -66.09966278 138.46405029 C-66.09832483 140.9520469 -66.09997905 143.44004691 -66.10462189 145.92803955 C-66.10967846 149.40003647 -66.10198897 152.8717726 -66.09082031 156.34375 C-66.09486877 157.38070007 -66.09891724 158.41765015 -66.10308838 159.48602295 C-66.09744873 160.42826721 -66.09180908 161.37051147 -66.08599854 162.34130859 C-66.08524448 163.16279388 -66.08449043 163.98427917 -66.08371353 164.83065796 C-66.00922373 167.05163861 -66.00922373 167.05163861 -63.83203125 168.8203125 C-61.90241258 169.12600246 -61.90241258 169.12600246 -59.66346741 169.08100891 C-58.78998154 169.08809372 -57.91649567 169.09517853 -57.01654053 169.10247803 C-56.05596741 169.10000061 -55.09539429 169.09752319 -54.10571289 169.0949707 C-53.09586838 169.10008163 -52.08602386 169.10519257 -51.045578 169.11045837 C-47.6943882 169.124403 -44.34340293 169.12339394 -40.9921875 169.12109375 C-38.67052635 169.12497801 -36.34886592 169.12931212 -34.02720642 169.13407898 C-29.15556538 169.14155169 -24.28399679 169.14124231 -19.41235352 169.13598633 C-13.15963719 169.13019047 -6.90721695 169.14712065 -0.6545496 169.170331 C4.14174645 169.18504031 8.93797074 169.18594386 13.73428535 169.18282127 C16.04004058 169.1833359 18.34579967 169.1886 20.65153313 169.19863319 C23.87197152 169.21092584 27.09182727 169.20424888 30.31225586 169.19262695 C31.27080475 169.20027069 32.22935364 169.20791443 33.21694946 169.21578979 C34.531408 169.20526833 34.531408 169.20526833 35.87242126 169.1945343 C37.01477438 169.19478591 37.01477438 169.19478591 38.18020535 169.19504261 C40.70659893 168.71877076 41.59755463 167.81648157 43.16796875 165.8203125 C43.5987776 163.9107558 43.5987776 163.9107558 43.50854492 161.80786133 C43.50831833 161.00725784 43.50809174 160.20665436 43.50785828 159.38179016 C43.49237442 158.52232285 43.47689056 157.66285553 43.4609375 156.77734375 C43.45669266 155.8937468 43.45244781 155.01014984 43.44807434 154.09977722 C43.43127918 151.27714589 43.39362572 148.45522809 43.35546875 145.6328125 C43.34042298 143.71941135 43.32673439 141.80599901 43.31445312 139.89257812 C43.28137294 135.20154791 43.22958505 130.51105119 43.16796875 125.8203125 C38.80323914 125.8203125 38.32942859 126.13355384 35.16796875 128.7578125 C29.13881269 133.73893166 22.76268201 133.37845416 15.16796875 132.8203125 C10.48445497 131.67056904 6.56189403 129.21423778 3.16796875 125.8203125 C-0.93029123 119.00367806 -2.79039301 112.79162742 -1.83203125 104.8203125 C0.28752395 97.75857493 3.74985629 93.69309188 9.984375 89.87890625 C16.28589776 86.82396409 23.88595811 86.79295788 30.48046875 89.0078125 C34.15885225 90.55036042 36.43458554 92.93073597 39.16796875 95.8203125 C40.15796875 95.8203125 41.14796875 95.8203125 42.16796875 95.8203125 C42.19264207 90.01790682 42.21081599 84.21553152 42.22290039 78.41308594 C42.22793685 76.43814563 42.23476626 74.46320907 42.2434082 72.48828125 C42.25550383 69.65363645 42.26120385 66.81904084 42.265625 63.984375 C42.27078629 63.09787262 42.27594757 62.21137024 42.28126526 61.29800415 C42.42198967 56.92260011 42.42198967 56.92260011 41.16796875 52.8203125 C40.3389782 52.81151314 40.3389782 52.81151314 39.49324036 52.80253601 C33.73400928 52.73853428 27.97533349 52.65409734 22.21655273 52.55786133 C20.06818977 52.52463504 17.91974 52.49659597 15.77124023 52.47387695 C12.68045099 52.44028919 9.59045563 52.38797029 6.5 52.33203125 C5.54148636 52.32564133 4.58297272 52.3192514 3.59541321 52.31266785 C-1.32094798 52.20460659 -4.88643787 52.09321134 -8.83203125 48.8203125 C-11.58575138 44.83216611 -12.57332603 41.03245839 -12.46875 36.24609375 C-11.38097148 32.10185781 -8.39923761 29.40647934 -5.62890625 26.23828125 C-3.80500429 23.78394362 -3.19669159 22.5801464 -3.08203125 19.5703125 C-4.04923107 14.73431339 -5.66596568 11.52222116 -9.58203125 8.4453125 C-16.73920657 6.45720825 -22.54547862 7.48803857 -27.20703125 13.6328125 Z " fill="#021148" transform="translate(206.83203125,14.1796875)"/>
<path d="M0 0 C0.78920334 -0.0112793 1.57840668 -0.02255859 2.39152527 -0.03417969 C3.24825836 -0.02608276 4.10499146 -0.01798584 4.98768616 -0.00964355 C6.35176857 -0.02015747 6.35176857 -0.02015747 7.7434082 -0.03088379 C10.74970532 -0.04848966 13.75506108 -0.03683074 16.7613678 -0.02331543 C18.85117778 -0.02600983 20.94098655 -0.02989181 23.03079224 -0.03491211 C27.41140169 -0.04081087 31.79168493 -0.03223272 36.17225647 -0.0135498 C41.78589607 0.00922564 47.39877013 -0.00387234 53.01238155 -0.02783966 C57.32840738 -0.04229932 61.64425197 -0.03769058 65.96028328 -0.02732849 C68.02992913 -0.02466095 70.09959146 -0.02793191 72.16921806 -0.0372467 C75.06357717 -0.04741328 77.95670028 -0.03190875 80.85096741 -0.00964355 C81.70567627 -0.01774048 82.56038513 -0.0258374 83.44099426 -0.03417969 C84.62902901 -0.01726074 84.62902901 -0.01726074 85.84106445 0 C86.52444854 0.0015081 87.20783262 0.0030162 87.91192532 0.00457001 C89.98402405 0.50793457 89.98402405 0.50793457 94.98402405 4.50793457 C94.98402405 15.39793457 94.98402405 26.28793457 94.98402405 37.50793457 C60.99402405 37.50793457 27.00402405 37.50793457 -8.01597595 37.50793457 C-8.01597595 0.01769954 -8.01597595 0.01769954 0 0 Z " fill="#4DB0FB" transform="translate(283.01597595214844,452.4920654296875)"/>
<path d="M0 0 C0.78920334 -0.0112793 1.57840668 -0.02255859 2.39152527 -0.03417969 C3.24825836 -0.02608276 4.10499146 -0.01798584 4.98768616 -0.00964355 C6.35176857 -0.02015747 6.35176857 -0.02015747 7.7434082 -0.03088379 C10.74970532 -0.04848966 13.75506108 -0.03683074 16.7613678 -0.02331543 C18.85117778 -0.02600983 20.94098655 -0.02989181 23.03079224 -0.03491211 C27.41140169 -0.04081087 31.79168493 -0.03223272 36.17225647 -0.0135498 C41.78589607 0.00922564 47.39877013 -0.00387234 53.01238155 -0.02783966 C57.32840738 -0.04229932 61.64425197 -0.03769058 65.96028328 -0.02732849 C68.02992913 -0.02466095 70.09959146 -0.02793191 72.16921806 -0.0372467 C75.06357717 -0.04741328 77.95670028 -0.03190875 80.85096741 -0.00964355 C81.70567627 -0.01774048 82.56038513 -0.0258374 83.44099426 -0.03417969 C84.62902901 -0.01726074 84.62902901 -0.01726074 85.84106445 0 C86.52444854 0.0015081 87.20783262 0.0030162 87.91192532 0.00457001 C89.98402405 0.50793457 89.98402405 0.50793457 94.98402405 4.50793457 C94.98402405 15.39793457 94.98402405 26.28793457 94.98402405 37.50793457 C60.99402405 37.50793457 27.00402405 37.50793457 -8.01597595 37.50793457 C-8.01597595 0.01769954 -8.01597595 0.01769954 0 0 Z " fill="#4DB0FB" transform="translate(142.01597595214844,452.4920654296875)"/>
<path d="M0 0 C0.20753906 0.85078125 0.41507813 1.7015625 0.62890625 2.578125 C2.41860016 9.6170885 4.42336874 16.52512198 6.83984375 23.375 C7.13427368 24.2123468 7.42870361 25.0496936 7.73205566 25.91241455 C12.66012839 39.80048091 17.91046191 53.57381305 23.10227966 67.36483765 C24.61795063 71.39183935 26.13166987 75.41957456 27.64550781 79.44726562 C28.25152038 81.05957238 28.85753843 82.67187707 29.46356201 84.28417969 C29.76160484 85.07711426 30.05964767 85.87004883 30.36672211 86.68701172 C31.2607662 89.06520042 32.15516126 91.44325688 33.04962158 93.82128906 C36.33497775 102.55744719 39.60747844 111.29819256 42.859375 120.046875 C43.54160925 121.87925315 44.22389797 123.71161102 44.90625 125.54394531 C45.80788461 127.96534189 46.70831281 130.38713098 47.60351562 132.81091309 C50.43570284 140.47818125 53.37994527 148.07484872 56.625 155.578125 C56.89922791 156.21729858 57.17345581 156.85647217 57.45599365 157.51501465 C65.20631387 175.12206631 77.61763385 187.87135865 93 199 C109.57577275 211.0179513 124.46471643 223.31407167 132 243 C132 243.99 132 244.98 132 246 C129.36 246 126.72 246 124 246 C123.57589844 245.16597656 123.15179688 244.33195313 122.71484375 243.47265625 C119.02816155 236.39908799 115.15503188 230.1276794 110 224 C109.5771875 223.4328125 109.154375 222.865625 108.71875 222.28125 C102.16606945 213.81071172 92.34956747 207.73275312 83.8125 201.4074707 C55.94191237 180.69917542 46.25732695 155.42722181 34.65185165 123.72738266 C33.23128902 119.8518655 31.80272468 115.97930238 30.37426758 112.10668945 C30.08709838 111.3281319 29.79992918 110.54957434 29.50405788 109.74742413 C28.92195222 108.16929993 28.33981506 106.59118734 27.75764656 105.01308632 C26.88208362 102.63864835 26.00754622 100.26383458 25.13316345 97.88896179 C21.40103035 87.75809683 17.62314213 77.64549994 13.8046875 67.546875 C13.31838837 66.2592596 12.83213599 64.97162655 12.34593201 63.68397522 C10.52418011 58.86096739 8.70166835 54.0382752 6.86758423 49.21994019 C-6.14923629 15.01421656 -6.14923629 15.01421656 -7 5 C-2.97826087 0 -2.97826087 0 0 0 Z " fill="#F9AE9F" transform="translate(24,195)"/>
<path d="M0 0 C2.91429344 0.84361126 4.59043671 1.39747012 6.32446289 3.94848633 C7.37995388 8.716315 5.85987946 12.5465107 4.43359375 17.13671875 C4.11893661 18.17865891 3.80427948 19.22059906 3.48008728 20.29411316 C-1.05670726 34.90316682 -6.59828561 49.17054778 -12.04217148 63.4591713 C-13.56039168 67.44974133 -15.06862969 71.44407925 -16.57739258 75.43823242 C-18.38132911 80.21257616 -20.18576915 84.98672162 -21.99455261 89.75923157 C-25.37922851 98.69176614 -28.73721549 107.63308692 -32.046875 116.59375 C-32.41257095 117.58308029 -32.77826691 118.57241058 -33.15504456 119.59172058 C-34.47340196 123.16102652 -35.79088923 126.73062577 -37.10055542 130.3031311 C-40.29763974 139.02110795 -43.62370292 147.66456891 -47.2109375 156.23046875 C-47.53744797 157.01235062 -47.86395844 157.79423248 -48.20036316 158.59980774 C-56.53499293 178.25598198 -69.70027845 191.87626651 -86.9375 203.9375 C-103.35598388 215.45518329 -114.94967554 227.95755253 -124 246 C-126.64 246 -129.28 246 -132 246 C-125.92308238 225.40600138 -111.45241629 211.82548673 -94.30908203 199.78735352 C-88.64096883 195.79422373 -83.24812254 191.53403373 -78 187 C-77.37867188 186.47535156 -76.75734375 185.95070313 -76.1171875 185.41015625 C-72.10615709 181.74426101 -69.0547096 177.46276227 -66 173 C-65.41303345 172.15671143 -65.41303345 172.15671143 -64.81420898 171.29638672 C-57.3973664 160.09270621 -52.71538308 147.11512787 -48.078125 134.578125 C-47.53473403 133.12316966 -46.99079891 131.66841746 -46.44636536 130.21385193 C-45.00436043 126.35673384 -43.56976887 122.49689983 -42.13673782 118.63644028 C-40.64300424 114.6164178 -39.14230059 110.59899879 -37.64233398 106.58129883 C-34.93713059 99.33241386 -32.23771859 92.08138938 -29.54087543 84.82939053 C-26.74803466 77.32023814 -23.94685163 69.81421251 -21.14453125 62.30859375 C-14.9563982 45.72870307 -14.9563982 45.72870307 -8.7946167 29.13900757 C-8.09949866 27.26783781 -7.39816657 25.39897888 -6.69580078 23.53051758 C-4.70350414 18.18236304 -3.05236416 12.86889789 -1.75 7.3125 C-1.49089844 6.24225586 -1.49089844 6.24225586 -1.2265625 5.15039062 C-0.81209148 3.43494112 -0.40517177 1.71766967 0 0 Z " fill="#F9AE9F" transform="translate(488,195)"/>
<path d="M0 0 C3.306326 1.10402031 4.87406708 2.62201603 7.32711792 5.09339905 C8.22510101 5.98845657 9.12308411 6.8835141 10.04827881 7.80569458 C11.01666927 8.79121228 11.98477113 9.77701365 12.9526062 10.76307678 C13.95921614 11.77461642 14.96664568 12.78534106 15.97485352 13.79528809 C18.08731744 15.91538945 20.1931615 18.04177225 22.29391479 20.17347717 C24.96720219 22.88611034 27.65093708 25.5880752 30.33909416 28.28596592 C32.92209972 30.87903037 35.50020279 33.47694564 38.0776062 36.07557678 C38.56073147 36.5620978 39.04385674 37.04861881 39.54162216 37.54988289 C44.55848756 42.60923752 49.44585195 47.71532032 54.09008789 53.11880493 C56.46156026 55.80620571 59.02143805 58.27092426 61.6166687 60.73963928 C62.69290998 61.7838191 63.76841112 62.82876224 64.8432312 63.87440491 C66.50655835 65.48801035 68.17389506 67.09634956 69.85397339 68.69252014 C71.49702457 70.25711634 73.12046373 71.83995917 74.7416687 73.42713928 C75.24984131 73.90120712 75.75801392 74.37527496 76.28158569 74.8637085 C77.66940308 76.2403717 77.66940308 76.2403717 79.6479187 78.88417053 C79.57291393 82.57016727 78.82216752 83.67654189 76.42526245 86.53260803 C75.48811401 87.43237366 74.55096558 88.33213928 73.5854187 89.25917053 C72.20676636 90.60108459 72.20676636 90.60108459 70.80026245 91.97010803 C68.59033267 94.04678896 66.31814221 96.03296025 64.01535034 98.00575256 C59.34232352 102.08794382 54.97954157 106.44402627 50.6166687 110.85292053 C49.78131592 111.69205994 48.94596313 112.53119934 48.08529663 113.39576721 C45.43704784 116.05613953 42.79207464 118.71973066 40.1479187 121.38417053 C36.66129269 124.89754326 33.17126944 128.40749024 29.6791687 131.91542053 C28.89247803 132.71040955 28.10578735 133.50539856 27.29525757 134.32447815 C23.09617762 138.54194463 18.81781472 142.58576485 14.28907776 146.44850159 C12.360833 148.13531013 10.65841004 149.96804932 8.9604187 151.88417053 C6.02632039 154.85837042 6.02632039 154.85837042 2.8979187 155.07167053 C0.31722857 153.70963963 -0.68996816 152.23883082 -2.3520813 149.88417053 C-1.91380005 149.51807678 -1.4755188 149.15198303 -1.0239563 148.77479553 C3.92573475 144.54944952 8.54314405 140.0692593 13.08248901 135.41249084 C15.71828736 132.73023097 18.41745688 130.19405695 21.27706909 127.75062561 C25.95032559 123.67852411 30.33057377 119.34558645 34.70651245 114.95838928 C35.5362709 114.12958755 36.36602936 113.30078583 37.22093201 112.4468689 C38.95913443 110.70934258 40.69609232 108.97057042 42.43185425 107.23060608 C45.09844052 104.55862235 47.77037558 101.89206997 50.44284058 99.22596741 C52.13521896 97.53292894 53.82728751 95.83958069 55.51901245 94.14588928 C56.72043129 92.94750679 56.72043129 92.94750679 57.94612122 91.72491455 C58.68101273 90.98687088 59.41590424 90.24882721 60.17306519 89.48841858 C60.82178085 88.83890732 61.47049652 88.18939606 62.13887024 87.52020264 C64.17368981 85.31415676 64.61820493 84.14565169 64.9604187 81.13417053 C64.18910307 73.11248795 56.51461609 67.50950919 51.09713745 62.17323303 C49.67245928 60.75650467 48.24778381 59.33977359 46.82326221 57.9228878 C44.83458275 55.94729219 42.84138172 53.97628994 40.84811401 52.00532532 C37.37123331 48.56646247 33.89906172 45.12286269 30.43058777 41.67552185 C28.58800647 39.84507605 26.74275895 38.01730891 24.89442444 36.19267273 C20.46257887 31.79498128 16.19735598 27.33414756 12.13136292 22.59593201 C10.25696546 20.43304558 8.27682918 18.3996786 6.24557495 16.38417053 C5.50114136 15.64295959 4.75670776 14.90174866 3.98971558 14.13807678 C3.23754761 13.39428772 2.48537964 12.65049866 1.7104187 11.88417053 C0.93118042 11.10944397 0.15194214 10.33471741 -0.65090942 9.53651428 C-2.5490055 7.65006296 -4.44941279 5.76600808 -6.3520813 3.88417053 C-3.05118585 -0.15025724 -3.05118585 -0.15025724 0 0 Z " fill="#F8C42E" transform="translate(363.3520812988281,90.11582946777344)"/>
<path d="M0 0 C11.5523296 -0.0462914 23.10463722 -0.08185294 34.6570406 -0.10362434 C40.02098676 -0.11407224 45.38486959 -0.12824982 50.7487793 -0.15087891 C55.92291577 -0.17257138 61.09699123 -0.18456104 66.27116966 -0.18975449 C68.24758045 -0.19345671 70.22398781 -0.200686 72.2003727 -0.21146011 C74.96348985 -0.22592722 77.72635317 -0.22797995 80.48950195 -0.22705078 C81.31093185 -0.23424133 82.13236176 -0.24143188 82.97868347 -0.24884033 C86.84913877 -0.23470835 88.70296037 -0.19802642 92 2 C92.30145671 4.62053106 92.41701159 7.01745262 92.40625 9.640625 C92.41708618 10.40042664 92.42792236 11.16022827 92.43908691 11.9430542 C92.47342557 14.37878855 92.48894718 16.81405524 92.5 19.25 C92.51461544 22.44315551 92.54844222 25.6352737 92.59375 28.828125 C92.59072876 29.55646545 92.58770752 30.28480591 92.58459473 31.03521729 C92.65346186 35.76084673 93.50176386 38.98826646 96 43 C99.2474659 45.86985359 101.77097319 47.25126393 106.0625 47.4375 C112.11372297 46.76514189 114.88487384 44.25702706 119 40 C122.19123774 38.40438113 125.52745091 38.6200858 129 39 C132.58552881 40.63687185 133.79315055 41.68972583 136 45 C136.69920885 49.79689791 136.71482085 53.77459282 134.25 58 C131.00275228 60.88644242 129.11064104 61.80400452 124.8125 62.5625 C119.94412043 61.84421449 117.59922288 59.76525873 113.91796875 56.62890625 C110.41615239 53.65485855 107.70652441 53.72083271 103.25390625 53.78515625 C100.12648646 54.08326386 98.38293135 54.96749973 96 57 C92.74345253 61.25010401 92.55938661 65.12166662 92.55859375 70.29296875 C92.54538589 71.08020828 92.53217804 71.86744781 92.51856995 72.67854309 C92.47781726 75.18156558 92.45603211 77.68422156 92.4375 80.1875 C92.41372297 82.70138009 92.38566461 85.21491462 92.34571838 87.72859192 C92.32133217 89.28990103 92.30649733 90.85139419 92.30210876 92.41288757 C92.22456512 97.77543488 92.22456512 97.77543488 90 100 C88.35 100 86.7 100 85 100 C85.33 67.33 85.66 34.66 86 1 C57.62 1 29.24 1 0 1 C0 0.67 0 0.34 0 0 Z " fill="#27B133" transform="translate(200,219)"/>
<path d="M0 0 C-1.32 0.33 -2.64 0.66 -4 1 C-4.49115866 7.75343154 -3.21113084 12.08068652 0 18 C0.42796875 18.80953125 0.8559375 19.6190625 1.296875 20.453125 C6.74077394 29.8256108 14.47200349 37.30365953 22 45 C22.8146875 45.84304688 23.629375 46.68609375 24.46875 47.5546875 C27.60913196 50.75737863 30.84790634 53.76431166 34.25 56.6875 C41.64837548 63.12466921 41.64837548 63.12466921 42.5625 68 C41.80862751 72.02065326 40.16460606 73.49775335 37 76 C36.01 76 35.02 76 34 76 C33.505 74.7315625 33.505 74.7315625 33 73.4375 C31.21754753 70.37390981 30.20417473 69.142155 27.58984375 66.98046875 C22.53355163 62.65815452 17.78438934 58.04181856 13.06420898 53.359375 C12.06933562 52.3759853 11.0700221 51.39706583 10.06616211 50.42285156 C-0.45160632 40.21356757 -12.41083616 27.63163106 -13.625 12.3125 C-13.43507082 7.85707805 -11.52357545 5.45938308 -8.5078125 2.3125 C-5.68448976 -0.14510736 -3.64366382 -0.09588589 0 0 Z " fill="#FAAE9F" transform="translate(110,286)"/>
<path d="M0 0 C3.85036851 1.51264477 5.88348422 3.44727709 8 7 C9.6120012 15.15672606 6.3482858 22.27035204 2.08129883 29.04736328 C-4.57870669 38.82190052 -12.48548356 46.95893131 -20.9375 55.1875 C-22.26461781 56.4944829 -23.59079484 57.80242177 -24.91601562 59.11132812 C-27.32362829 61.48663175 -29.73616286 63.8566402 -32.15600586 66.21948242 C-33.56378296 67.59583862 -33.56378296 67.59583862 -35 69 C-35.51240738 69.49047318 -36.02481476 69.98094635 -36.55274963 70.48628235 C-38.22166189 72.14392742 -38.22166189 72.14392742 -40 75 C-45.875 72.25 -45.875 72.25 -47 70 C-47.59514663 66.87548021 -47.5546974 64.84993957 -45.7890625 62.14453125 C-41.87189775 57.53772481 -37.38087128 53.59981585 -32.8671875 49.59375 C-18.09447811 36.22988211 -1.55521945 20.99546263 0 0 Z " fill="#FAAE9F" transform="translate(407,287)"/>
<path d="M0 0 C4.1317657 1.30116378 7.0298713 3.5927766 9.4375 7.1875 C11.51194651 11.37231416 11.82615664 15.42693092 11 20 C8.29820537 25.3035228 4.70503105 29.09832298 -1 31 C-5.63522786 31.53856933 -9.07906346 31.45178019 -13.3125 29.375 C-18.36097571 24.91355635 -20.65355996 20.84646684 -21.08984375 14.16796875 C-20.88505602 9.22635177 -18.31303348 6.04156578 -15 2.625 C-10.39693986 -1.08085351 -5.6447818 -0.95603815 0 0 Z " fill="#03134A" transform="translate(223,457)"/>
<path d="M0 0 C4.39063739 2.15540381 7.47901962 4.79836603 10 9 C11.42475275 13.79819959 11.47704163 17.73244181 9.375 22.3125 C6.83240602 26.72904732 3.87081252 29.37639583 -1 31 C-5.66694522 31.54225459 -9.07771048 31.4698456 -13.3125 29.3125 C-16.8302775 26.28557517 -20.6392958 22.90337318 -21.23828125 18.08203125 C-21.43339091 12.11578332 -20.58975645 8.81783102 -17 4 C-11.96844758 -0.78611084 -6.6108623 -0.97537313 0 0 Z " fill="#03134A" transform="translate(299,457)"/>
<path d="M0 0 C-0.33 12.21 -0.66 24.42 -1 37 C-4.96 37 -8.92 37 -13 37 C-13.09901748 32.37359847 -13.17153649 27.74781613 -13.21972656 23.12060547 C-13.2398188 21.54725396 -13.26709799 19.97397692 -13.30175781 18.40087891 C-13.35038494 16.13685728 -13.37299135 13.87382427 -13.390625 11.609375 C-13.41127014 10.90818542 -13.43191528 10.20699585 -13.45318604 9.48455811 C-13.45462995 6.32844207 -13.15232414 4.25794369 -11.53808594 1.52441406 C-9 0 -9 0 0 0 Z " fill="#2A92FA" transform="translate(147,453)"/>
<path d="M0 0 C8 0 8 0 10.96948242 1.52441406 C13.67673949 4.82507376 13.63849451 7.52791211 13.48828125 11.609375 C13.47766914 12.69958954 13.47766914 12.69958954 13.46684265 13.81182861 C13.4389273 16.12561457 13.37620383 18.43694998 13.3125 20.75 C13.28741299 22.32157954 13.26460051 23.89319716 13.24414062 25.46484375 C13.18911132 29.3108352 13.10286666 33.15500265 13 37 C9.04 37 5.08 37 1 37 C0.67 24.79 0.34 12.58 0 0 Z " fill="#2A92FA" transform="translate(365,453)"/>
<path d="M0 0 C1.485 0.495 1.485 0.495 3 1 C3.07410727 6.64165361 3.12858167 12.28302447 3.16479492 17.92504883 C3.1798898 19.84469538 3.20036773 21.7643074 3.22631836 23.68383789 C3.26267109 26.44165564 3.27971912 29.1990178 3.29296875 31.95703125 C3.30845261 32.81649857 3.32393646 33.67596588 3.33988953 34.56147766 C3.34011612 35.36208115 3.34034271 36.16268463 3.34057617 36.98754883 C3.34723801 37.6914827 3.35389984 38.39541656 3.36076355 39.12068176 C2.88348178 41.606976 1.9992716 42.48610995 0 44 C-3.1862793 44.34057617 -3.1862793 44.34057617 -7.07421875 44.29296875 C-7.7580513 44.28872391 -8.44188385 44.28447906 -9.1464386 44.28010559 C-11.32719561 44.26333353 -13.50702309 44.22568657 -15.6875 44.1875 C-17.16730435 44.17245114 -18.6471232 44.15876308 -20.12695312 44.14648438 C-23.75160336 44.11343569 -27.37571094 44.06166446 -31 44 C-31 43.67 -31 43.34 -31 43 C-22.42 42.67 -13.84 42.34 -5 42 C-4.67 30.12 -4.34 18.24 -4 6 C-4.66 5.67 -5.32 5.34 -6 5 C-1.60546875 0.99609375 -1.60546875 0.99609375 0 0 Z " fill="#298BEF" transform="translate(247,139)"/>
<path d="M0 0 C1.98 0 3.96 0 6 0 C7.71802382 3.43604765 7.1196618 7.38438896 7.09765625 11.1640625 C7.0962413 12.07127045 7.09482635 12.97847839 7.09336853 13.91317749 C7.08776096 16.81715155 7.07520718 19.72104915 7.0625 22.625 C7.05748598 24.59114472 7.0529229 26.55729065 7.04882812 28.5234375 C7.03778906 33.3489879 7.02051935 38.17448097 7 43 C4 43 4 43 1.83691406 41.55761719 C-0.85919167 37.80370921 -0.50246843 34.58776115 -0.390625 30.078125 C-0.38496521 29.21813904 -0.37930542 28.35815308 -0.37347412 27.47210693 C-0.35111951 24.73083351 -0.30092602 21.99087696 -0.25 19.25 C-0.22993376 17.38934182 -0.21168321 15.52866311 -0.1953125 13.66796875 C-0.15125784 9.11147334 -0.08223754 4.55595978 0 0 Z " fill="#2991F9" transform="translate(242,67)"/>
<path d="M0 0 C2.375 -0.125 2.375 -0.125 5 0 C5.66 0.66 6.32 1.32 7 2 C6.625 4.125 6.625 4.125 6 6 C3.625 6.625 3.625 6.625 1 7 C0.34 6.34 -0.32 5.68 -1 5 C-0.625 2.375 -0.625 2.375 0 0 Z " fill="#005DD0" transform="translate(291,469)"/>
<path d="M0 0 C0.78375 0.04125 1.5675 0.0825 2.375 0.125 C3 2.5 3 2.5 3.375 5.125 C2.715 5.785 2.055 6.445 1.375 7.125 C-1.25 6.75 -1.25 6.75 -3.625 6.125 C-4.25 4.25 -4.25 4.25 -4.625 2.125 C-2.625 0.125 -2.625 0.125 0 0 Z " fill="#005DD0" transform="translate(218.625,468.875)"/>
</svg>
