<?xml version="1.0" encoding="UTF-8"?>
<svg version="1.1" xmlns="http://www.w3.org/2000/svg" width="512" height="512">
<path d="M0 0 C1.14364014 -0.02231689 2.28728027 -0.04463379 3.46557617 -0.06762695 C10.04515036 -0.0495095 14.26932448 0.40804305 19.5625 4.4375 C23.10860758 8.33821834 24.4728222 13.23618767 24.5625 18.4375 C23.35911792 28.06455667 16.29105183 32.73396653 9.09375 38.37109375 C-32.61901309 71.39369787 -58.9843038 120.66320505 -65.18359375 173.37890625 C-70.84608796 227.39073905 -55.5256779 281.11188276 -21.4375 323.4375 C-12.0295419 334.9682345 -2.20377736 345.25950616 9.5625 354.4375 C10.1076123 354.86434082 10.65272461 355.29118164 11.21435547 355.73095703 C40.01557932 378.10282504 74.42221898 392.48430709 110.5625 397.4375 C111.24344727 397.5317627 111.92439453 397.62602539 112.62597656 397.72314453 C118.22164353 398.38791652 123.79393469 398.55046784 129.421875 398.6484375 C130.61955505 398.67000916 130.61955505 398.67000916 131.84143066 398.6920166 C135.17792696 398.74948244 138.51425368 398.80420892 141.85107422 398.83886719 C144.31257439 398.86652985 146.77321075 398.91234246 149.234375 398.9609375 C149.98136658 398.96419037 150.72835815 398.96744324 151.49798584 398.97079468 C156.24505344 399.08186523 159.52469083 399.93700804 163.5625 402.4375 C168.42944811 407.71002712 170.0796943 411.82258657 169.8515625 418.92578125 C169.01489157 426.19577321 164.29408203 429.97727715 158.88476562 434.39233398 C146.66058422 443.99781928 133.34349959 452.26939511 119.5625 459.4375 C118.39775146 460.04440674 118.39775146 460.04440674 117.20947266 460.66357422 C59.78178426 490.17738918 -7.4333098 493.94425114 -68.69042969 474.7956543 C-87.08287387 468.76935256 -104.31954298 460.58517086 -120.74951172 450.38623047 C-122.59078787 449.28132123 -122.59078787 449.28132123 -125.4375 448.4375 C-125.79521484 449.46617187 -125.79521484 449.46617187 -126.16015625 450.515625 C-127.69190001 454.01943029 -129.71892735 457.04980753 -131.875 460.1875 C-132.78623946 461.53312127 -133.69635576 462.87950366 -134.60546875 464.2265625 C-135.0751709 464.92168945 -135.54487305 465.61681641 -136.02880859 466.33300781 C-138.29235635 469.71459909 -140.48737961 473.1394608 -142.6875 476.5625 C-144.08604792 478.72180346 -145.48634657 480.8799652 -146.88671875 483.03808594 C-147.9876672 484.74150555 -149.08350018 486.44823624 -150.17578125 488.15722656 C-152.00065355 491.00883376 -153.84279224 493.84869427 -155.6875 496.6875 C-156.53683105 498.02772217 -156.53683105 498.02772217 -157.40332031 499.39501953 C-161.42941712 505.54450092 -165.24315359 510.03938453 -172.4375 512.4375 C-174.66138902 512.63530461 -176.89321287 512.74976869 -179.125 512.8125 C-180.30449219 512.86148438 -181.48398438 512.91046875 -182.69921875 512.9609375 C-192.35955355 511.60828874 -199.03903911 503.29468687 -205.61328125 496.6953125 C-206.67047086 495.64269309 -207.72802866 494.59044334 -208.78593445 493.5385437 C-210.99034788 491.34301827 -213.18905994 489.14197344 -215.3840332 486.93701172 C-218.18750712 484.122021 -221.00657768 481.32325292 -223.83033466 478.5286274 C-226.01392874 476.36343196 -228.18808092 474.1889439 -230.35964012 472.01168442 C-231.39511557 470.97605638 -232.43366875 469.94349556 -233.47542763 468.91418839 C-244.6635618 457.8411226 -244.6635618 457.8411226 -245.87109375 449.41015625 C-245.88125939 441.83675701 -245.09420616 436.31950085 -239.7890625 430.6875 C-234.65370729 426.02307256 -230.13610074 424.14274097 -223.125 424 C-222.05636719 423.96003906 -220.98773438 423.92007812 -219.88671875 423.87890625 C-209.61027661 425.54315452 -202.37734235 435.15310742 -195.4375 442.25 C-194.27023608 443.43233689 -193.1022729 444.61398385 -191.93359375 445.79492188 C-189.09343198 448.66788443 -186.26291694 451.55003843 -183.4375 454.4375 C-178.67368638 447.72350299 -174.08622139 440.91827681 -169.625 434 C-168.49359536 432.25123364 -167.36208944 430.50253281 -166.23046875 428.75390625 C-165.49606567 427.61610718 -165.49606567 427.61610718 -164.74682617 426.45532227 C-163.65620323 424.77454684 -162.54890444 423.10460666 -161.4375 421.4375 C-161.60375145 416.44995645 -166.26737611 413.53346111 -169.65625 410.359375 C-203.11583815 378.50401368 -224.18098745 331.2242803 -232.4375 286.4375 C-232.60121094 285.56383789 -232.76492187 284.69017578 -232.93359375 283.79003906 C-238.0963641 254.76545615 -237.24574756 223.26874362 -231.4375 194.4375 C-231.16462158 193.07987549 -231.16462158 193.07987549 -230.88623047 191.69482422 C-219.55815979 137.6865516 -188.25180861 86.22892755 -144.4375 52.4375 C-143.8914209 52.01500977 -143.3453418 51.59251953 -142.78271484 51.15722656 C-128.03177474 39.82181427 -112.28801602 30.30671212 -95.4375 22.4375 C-94.8069873 22.1389209 -94.17647461 21.8403418 -93.52685547 21.53271484 C-64.30343918 7.79329161 -32.27238751 0.37614519 0 0 Z " fill="#FDE359" transform="translate(272.4375,-0.4375)"/>
<path d="M0 0 C1.14364014 -0.02231689 2.28728027 -0.04463379 3.46557617 -0.06762695 C10.00448968 -0.04962146 14.32824304 0.36641125 19.5625 4.4375 C19.8925 5.4275 20.2225 6.4175 20.5625 7.4375 C19.81492432 7.65253174 19.06734863 7.86756348 18.29711914 8.08911133 C-20.3782722 19.33610991 -54.71647785 36.1930904 -84.95800781 63.12548828 C-86.31125841 64.32554913 -87.6821355 65.50565733 -89.0546875 66.68359375 C-93.28848163 70.34005232 -97.10276135 74.12690215 -100.7109375 78.40234375 C-102.46311662 80.46769516 -104.28898045 82.44658991 -106.125 84.4375 C-116.72674085 96.41050849 -125.47846539 109.6015411 -133.4375 123.4375 C-134.03473877 124.46713867 -134.03473877 124.46713867 -134.64404297 125.51757812 C-161.75591079 172.76157086 -170.67605744 230.9959985 -161.4375 284.4375 C-161.24462402 285.66339844 -161.24462402 285.66339844 -161.04785156 286.9140625 C-157.49625359 309.39847918 -149.51435623 331.09134759 -139.4375 351.4375 C-139.06625 352.18708984 -138.695 352.93667969 -138.3125 353.70898438 C-133.76074117 362.78879495 -128.71707522 371.42154698 -123.08984375 379.875 C-121.4375 382.4375 -121.4375 382.4375 -121.4375 383.4375 C-122.36369141 383.54964844 -122.36369141 383.54964844 -123.30859375 383.6640625 C-124.57896484 383.86128906 -124.57896484 383.86128906 -125.875 384.0625 C-127.11056641 384.23652344 -127.11056641 384.23652344 -128.37109375 384.4140625 C-138.00639873 387.62992225 -142.73343793 393.94706722 -147.75 402.4375 C-148.93339 404.37512445 -150.11697824 406.31262785 -151.30078125 408.25 C-152.11216553 409.59964844 -152.11216553 409.59964844 -152.93994141 410.9765625 C-154.69281395 413.85705732 -156.53392093 416.65498442 -158.4375 419.4375 C-162.28383879 417.87047309 -164.55326819 415.37300705 -167.4375 412.4375 C-168.53578125 411.40882813 -168.53578125 411.40882813 -169.65625 410.359375 C-203.11583815 378.50401368 -224.18098745 331.2242803 -232.4375 286.4375 C-232.68306641 285.12700684 -232.68306641 285.12700684 -232.93359375 283.79003906 C-238.0963641 254.76545615 -237.24574756 223.26874362 -231.4375 194.4375 C-231.16462158 193.07987549 -231.16462158 193.07987549 -230.88623047 191.69482422 C-219.55815979 137.6865516 -188.25180861 86.22892755 -144.4375 52.4375 C-143.8914209 52.01500977 -143.3453418 51.59251953 -142.78271484 51.15722656 C-128.03177474 39.82181427 -112.28801602 30.30671212 -95.4375 22.4375 C-94.8069873 22.1389209 -94.17647461 21.8403418 -93.52685547 21.53271484 C-64.30343918 7.79329161 -32.27238751 0.37614519 0 0 Z " fill="#FED15A" transform="translate(272.4375,-0.4375)"/>
<path d="M0 0 C2.85343114 2.74706336 4.15993135 5.23438431 5.84765625 8.8203125 C6.52928411 10.23339331 7.21163841 11.64612383 7.89453125 13.05859375 C8.47364258 14.27216553 8.47364258 14.27216553 9.06445312 15.51025391 C11.56304183 20.72773504 14.10352217 25.92405761 16.66506958 31.11083984 C17.58463517 32.98132634 18.49153671 34.85760535 19.39819336 36.734375 C19.9731958 37.90097656 20.54819824 39.06757813 21.140625 40.26953125 C21.65004639 41.31455811 22.15946777 42.35958496 22.68432617 43.4362793 C25.62257201 48.34637947 28.83217801 51.77815994 34.41015625 53.3203125 C37.9042431 53.96006125 41.41286269 54.43847573 44.93359375 54.90625 C47.02741092 55.20004252 49.12115887 55.49432871 51.21484375 55.7890625 C54.50118122 56.24465276 57.78797813 56.69569182 61.07617188 57.13769531 C64.25977372 57.56835051 67.44037943 58.01732797 70.62109375 58.46875 C71.59734711 58.5949472 72.57360046 58.72114441 73.57943726 58.85116577 C80.84905081 59.90025035 86.15580446 61.43011789 90.84765625 67.4453125 C93.07899989 71.94663776 93.1586061 76.41557731 92.41015625 81.3203125 C89.08702512 89.77919175 81.34208129 95.79851689 74.60546875 101.625 C70.25687595 105.41003812 66.12618715 109.38498352 62.03515625 113.4453125 C60.96974609 114.47978516 60.96974609 114.47978516 59.8828125 115.53515625 C59.20347656 116.20933594 58.52414062 116.88351563 57.82421875 117.578125 C56.9108374 118.47748779 56.9108374 118.47748779 55.97900391 119.39501953 C52.24353199 123.9791981 51.97708663 128.58624234 52.41015625 134.3203125 C52.80591823 137.4158538 53.35868315 140.46990015 53.94140625 143.53515625 C54.26041838 145.29101531 54.57942874 147.0468747 54.8984375 148.80273438 C55.40333029 151.53254104 55.91090579 154.2618351 56.41943359 156.9909668 C56.91245821 159.65037705 57.39593868 162.31140412 57.87890625 164.97265625 C58.03202271 165.77605942 58.18513916 166.57946259 58.34289551 167.4072113 C60.83791116 181.19263895 60.83791116 181.19263895 57.78515625 187.1328125 C54.61411216 191.38868746 51.42689257 193.64806706 46.41015625 195.3203125 C40.68697495 195.80887676 36.68317439 194.48337786 31.66015625 191.9453125 C30.93497803 191.59170654 30.2097998 191.23810059 29.46264648 190.8737793 C19.62565827 186.03129304 9.86212434 180.94802286 0.3046875 175.57421875 C-0.52675781 175.11917969 -1.35820312 174.66414062 -2.21484375 174.1953125 C-2.86710937 173.82148438 -3.519375 173.44765625 -4.19140625 173.0625 C-10.59446661 171.08109696 -16.19297098 172.10346645 -22.04554749 175.11456299 C-23.15222023 175.71914337 -23.15222023 175.71914337 -24.28125 176.3359375 C-25.07079575 176.74817566 -25.86034149 177.16041382 -26.67381287 177.58514404 C-29.17609947 178.89647319 -31.66408916 180.23258277 -34.15234375 181.5703125 C-35.82527161 182.45353025 -37.49909366 183.33505645 -39.17382812 184.21484375 C-42.26426874 185.84010209 -45.34852854 187.47609761 -48.42797852 189.12207031 C-49.81463828 189.85600667 -51.20192291 190.58876371 -52.58984375 191.3203125 C-53.66418167 191.89187073 -53.66418167 191.89187073 -54.76022339 192.47497559 C-55.4580191 192.83740356 -56.15581482 193.19983154 -56.87475586 193.57324219 C-57.80305458 194.05987335 -57.80305458 194.05987335 -58.75010681 194.55633545 C-62.82961472 196.2504094 -66.57976654 195.94020857 -70.73046875 194.66015625 C-74.88928491 192.88110711 -77.96213481 190.74511488 -79.97851562 186.52124023 C-82.8817609 176.06886159 -79.56836532 164.09693598 -77.58984375 153.6953125 C-73.68208229 137.75975951 -73.68208229 137.75975951 -76.08984375 122.2578125 C-76.58484375 121.6184375 -77.07984375 120.9790625 -77.58984375 120.3203125 C-77.58984375 119.6603125 -77.58984375 119.0003125 -77.58984375 118.3203125 C-78.47873795 117.91743011 -78.47873795 117.91743011 -79.3855896 117.50640869 C-81.60162691 116.31397205 -83.07284869 115.10243612 -84.85791016 113.34277344 C-85.47179596 112.74164734 -86.08568176 112.14052124 -86.71817017 111.5211792 C-87.69492203 110.54776581 -87.69492203 110.54776581 -88.69140625 109.5546875 C-89.36908051 108.88367004 -90.04675476 108.21265259 -90.7449646 107.52130127 C-92.1747327 106.10164678 -93.60180771 104.67927558 -95.02636719 103.25439453 C-97.20347558 101.08165785 -99.39605655 98.92540965 -101.58984375 96.76953125 C-102.97884408 95.38639962 -104.36689698 94.00231576 -105.75390625 92.6171875 C-106.40912262 91.97634216 -107.06433899 91.33549683 -107.7394104 90.67523193 C-111.94789513 86.42412592 -114.32072637 82.94779046 -114.77734375 76.79296875 C-114.33770493 71.14177803 -113.14577949 67.85313838 -109.2578125 63.6953125 C-106.06422333 61.0626582 -102.99636208 60.05801456 -98.93237305 59.49829102 C-98.01429367 59.36797989 -97.09621429 59.23766876 -96.15031433 59.10340881 C-95.16485123 58.97002609 -94.17938812 58.83664337 -93.1640625 58.69921875 C-91.06703987 58.40051287 -88.97003522 58.10168079 -86.87304688 57.80273438 C-83.57537737 57.34117352 -80.27729733 56.88280609 -76.97875977 56.42749023 C-73.78929944 55.98467541 -70.60169469 55.52998 -67.4140625 55.07421875 C-66.43467209 54.94286026 -65.45528168 54.81150177 -64.44621277 54.67616272 C-55.14271923 53.34086074 -55.14271923 53.34086074 -47.45288086 48.2265625 C-44.89650459 44.23873613 -42.83711581 40.08352562 -40.78125 35.8203125 C-39.86023054 33.94521204 -38.93900012 32.07021519 -38.01757812 30.1953125 C-36.5812528 27.25434731 -35.14823302 24.31184028 -33.71948242 21.3671875 C-32.33215378 18.51385374 -30.93241599 15.66687084 -29.53125 12.8203125 C-29.11025528 11.94310547 -28.68926056 11.06589844 -28.25550842 10.16210938 C-25.35416754 4.28773463 -22.59958159 -0.32235475 -16.40234375 -3.1171875 C-10.44507188 -3.99612925 -5.10476333 -3.31078165 0 0 Z " fill="#FEE459" transform="translate(392.58984375,107.6796875)"/>
<path d="M0 0 C5.14895851 2.86490808 8.84748638 6.1745486 10.58984375 11.94921875 C12.40046666 20.69015696 11.33366596 27.05399001 6.515625 34.5234375 C5.69253613 35.72863701 4.86815614 36.9329551 4.04296875 38.13671875 C2.27081568 40.77992118 0.50442004 43.42691276 -1.26123047 46.07446289 C-2.49297582 47.91377773 -3.73258928 49.74785398 -4.98095703 51.57592773 C-8.00457586 56.03290713 -10.70650792 60.42655411 -13.02416992 65.28662109 C-14.59049488 68.39303577 -16.55051612 71.21242527 -18.51953125 74.07421875 C-19.41254535 75.39249346 -20.30443154 76.71153279 -21.1953125 78.03125 C-21.65244629 78.70752441 -22.10958008 79.38379883 -22.58056641 80.08056641 C-24.83346916 83.44593479 -27.01721774 86.85511908 -29.20703125 90.26171875 C-30.60558929 92.42101563 -32.00587783 94.57918397 -33.40625 96.73730469 C-34.50719845 98.4407243 -35.60303143 100.14745499 -36.6953125 101.85644531 C-38.5201848 104.70805251 -40.36232349 107.54791302 -42.20703125 110.38671875 C-42.77325195 111.2802002 -43.33947266 112.17368164 -43.92285156 113.09423828 C-47.94894837 119.24371967 -51.76268484 123.73860328 -58.95703125 126.13671875 C-61.18092027 126.33452336 -63.41274412 126.44898744 -65.64453125 126.51171875 C-66.82402344 126.56070313 -68.00351563 126.6096875 -69.21875 126.66015625 C-78.8790848 125.30750749 -85.55857036 116.99390562 -92.1328125 110.39453125 C-93.19000211 109.34191184 -94.24755991 108.28966209 -95.3054657 107.23776245 C-97.50987913 105.04223702 -99.70859119 102.84119219 -101.90356445 100.63623047 C-104.70703837 97.82123975 -107.52610893 95.02247167 -110.34986591 92.22784615 C-112.53345999 90.06265071 -114.70761217 87.88816265 -116.87917137 85.71090317 C-117.91464682 84.67527513 -118.9532 83.64271431 -119.99495888 82.61340714 C-131.18309305 71.54034135 -131.18309305 71.54034135 -132.390625 63.109375 C-132.40079064 55.53597576 -131.61373741 50.0187196 -126.30859375 44.38671875 C-121.17323854 39.72229131 -116.65563199 37.84195972 -109.64453125 37.69921875 C-108.57589844 37.65925781 -107.50726563 37.61929688 -106.40625 37.578125 C-96.12980786 39.24237327 -88.8968736 48.85232617 -81.95703125 55.94921875 C-80.78976733 57.13155564 -79.62180415 58.3132026 -78.453125 59.49414062 C-75.61296323 62.36710318 -72.78244819 65.24925718 -69.95703125 68.13671875 C-65.22267992 61.45949683 -60.6502927 54.69820558 -56.20703125 47.82421875 C-55.36205078 46.52387695 -55.36205078 46.52387695 -54.5 45.19726562 C-52.3239673 41.84061944 -50.1690685 38.50966038 -48.19140625 35.03125 C-47.7840625 34.40605469 -47.37671875 33.78085937 -46.95703125 33.13671875 C-46.29703125 33.13671875 -45.63703125 33.13671875 -44.95703125 33.13671875 C-44.72371094 32.45996094 -44.49039063 31.78320312 -44.25 31.0859375 C-42.63636099 27.40528054 -40.53036575 24.26011706 -38.26953125 20.94921875 C-37.82109863 20.28937988 -37.37266602 19.62954102 -36.91064453 18.94970703 C-36.00958016 17.62537146 -35.1069387 16.3021074 -34.20263672 14.97998047 C-33.11709689 13.37358579 -32.06705245 11.7433176 -31.0234375 10.109375 C-23.5328658 -1.3946208 -12.88015833 -6.31814996 0 0 Z " fill="#ACED53" transform="translate(158.95703125,385.86328125)"/>
<path d="M0 0 C2.7689324 3.09468915 4.97183231 6.35388928 6.125 10.375 C5.60345803 14.86247599 3.74645818 18.64755919 1.7734375 22.65234375 C1.43631744 23.34131241 1.09919739 24.03028107 0.75186157 24.74012756 C0.03726309 26.19321028 -0.68071607 27.64463473 -1.40185547 29.09448242 C-2.4910554 31.29443381 -3.55621499 33.50499293 -4.62109375 35.71679688 C-12.15714322 51.09127221 -12.15714322 51.09127221 -20.49121094 54.41992188 C-24.75470862 55.62329871 -28.98007014 56.21024057 -33.3671875 56.77734375 C-35.22528482 57.03041983 -37.08335697 57.28368078 -38.94140625 57.53710938 C-41.84609592 57.92637998 -44.7511384 58.31264983 -47.65673828 58.69506836 C-50.47803798 59.0686094 -53.29759651 59.45364582 -56.1171875 59.83984375 C-57.40506668 60.00407082 -57.40506668 60.00407082 -58.71896362 60.1716156 C-65.15945572 61.06164447 -71.61964448 62.06181486 -76.3125 66.875 C-78.95434317 71.10194908 -79.77092712 75.47616916 -78.875 80.375 C-75.87040241 86.910199 -71.23382203 91.39974194 -66.125 96.375 C-64.96484375 97.52742188 -64.96484375 97.52742188 -63.78125 98.703125 C-59.53632957 102.89106663 -55.20173439 106.92769526 -50.67211914 110.80615234 C-39.19286305 120.82730431 -39.19286305 120.82730431 -38.68554688 126.48950195 C-38.58900861 134.92936014 -39.89564708 143.02794055 -41.3125 151.3125 C-41.54569241 152.72187793 -41.77811896 154.13138281 -42.00976562 155.54101562 C-43.69113724 165.67390477 -43.69113724 165.67390477 -44.44335938 168.54223633 C-44.92350172 170.58094026 -44.98851005 172.39167304 -44.97265625 174.484375 C-44.96943359 175.23847656 -44.96621094 175.99257813 -44.96289062 176.76953125 C-44.95451172 177.54683594 -44.94613281 178.32414063 -44.9375 179.125 C-44.93298828 179.91777344 -44.92847656 180.71054687 -44.92382812 181.52734375 C-44.91208565 183.47659508 -44.89415146 185.42580738 -44.875 187.375 C-47.36556142 188.72909164 -49.86505045 190.05772152 -52.375 191.375 C-53.07109375 191.7565625 -53.7671875 192.138125 -54.484375 192.53125 C-60.24742541 195.51949836 -64.81890412 196.44204483 -71.265625 194.74609375 C-75.23868796 192.7512155 -78.27059475 190.75098628 -80.26367188 186.57592773 C-83.16691715 176.12354909 -79.85352157 164.15162348 -77.875 153.75 C-73.96723854 137.81444701 -73.96723854 137.81444701 -76.375 122.3125 C-76.87 121.673125 -77.365 121.03375 -77.875 120.375 C-77.875 119.715 -77.875 119.055 -77.875 118.375 C-78.7638942 117.97211761 -78.7638942 117.97211761 -79.67074585 117.56109619 C-81.88678316 116.36865955 -83.35800494 115.15712362 -85.14306641 113.39746094 C-85.75695221 112.79633484 -86.37083801 112.19520874 -87.00332642 111.5758667 C-87.98007828 110.60245331 -87.98007828 110.60245331 -88.9765625 109.609375 C-89.65423676 108.93835754 -90.33191101 108.26734009 -91.03012085 107.57598877 C-92.45988895 106.15633428 -93.88696396 104.73396308 -95.31152344 103.30908203 C-97.48863183 101.13634535 -99.6812128 98.98009715 -101.875 96.82421875 C-103.26400033 95.44108712 -104.65205323 94.05700326 -106.0390625 92.671875 C-106.69427887 92.03102966 -107.34949524 91.39018433 -108.02456665 90.72991943 C-112.23305138 86.47881342 -114.60588262 83.00247796 -115.0625 76.84765625 C-114.62286118 71.19646553 -113.43093574 67.90782588 -109.54296875 63.75 C-106.34937958 61.1173457 -103.28151833 60.11270206 -99.2175293 59.55297852 C-98.29944992 59.42266739 -97.38137054 59.29235626 -96.43547058 59.15809631 C-95.45000748 59.02471359 -94.46454437 58.89133087 -93.44921875 58.75390625 C-91.35219612 58.45520037 -89.25519147 58.15636829 -87.15820312 57.85742188 C-83.86053362 57.39586102 -80.56245358 56.93749359 -77.26391602 56.48217773 C-74.07445569 56.03936291 -70.88685094 55.5846675 -67.69921875 55.12890625 C-66.71982834 54.99754776 -65.74043793 54.86618927 -64.73136902 54.73085022 C-55.42787548 53.39554824 -55.42787548 53.39554824 -47.73803711 48.28125 C-45.18166084 44.29342363 -43.12227206 40.13821312 -41.06640625 35.875 C-40.14538679 33.99989954 -39.22415637 32.12490269 -38.30273438 30.25 C-36.86640905 27.30903481 -35.43338927 24.36652778 -34.00463867 21.421875 C-32.61731003 18.56854124 -31.21757224 15.72155834 -29.81640625 12.875 C-29.39541153 11.99779297 -28.97441681 11.12058594 -28.54066467 10.21679688 C-25.63932379 4.34242213 -22.88473784 -0.26766725 -16.6875 -3.0625 C-10.62054684 -3.95762424 -5.35032025 -3.02409405 0 0 Z " fill="#FED15A" transform="translate(392.875,107.625)"/>
<path d="M0 0 C3.95214546 3.27943985 7.66669013 6.63234392 11.25 10.3125 C16.18484116 15.29735645 21.49959952 19.6571905 27 24 C28.41152344 25.15435547 28.41152344 25.15435547 29.8515625 26.33203125 C62.72553013 52.62271079 102.54175405 68.90756959 144 75 C144 75.66 144 76.32 144 77 C85.14810361 84.59379308 28.62793566 71.6544844 -22 41 C-21.3490873 37.21933339 -19.62194961 34.57812066 -17.54296875 31.38671875 C-16.49206055 29.7615332 -16.49206055 29.7615332 -15.41992188 28.10351562 C-14.67608603 26.96464463 -13.93194308 25.82597416 -13.1875 24.6875 C-4.71882072 13.14752911 -4.71882072 13.14752911 0 0 Z " fill="#FED15A" transform="translate(170,407)"/>
<path d="M0 0 C1.1034375 -0.01675781 2.206875 -0.03351563 3.34375 -0.05078125 C6.79823407 0.34682645 8.68673608 1.32327048 11.5 3.3125 C11.09007812 3.84359375 10.68015625 4.3746875 10.2578125 4.921875 C9.71898437 5.62828125 9.18015625 6.3346875 8.625 7.0625 C8.09132813 7.75859375 7.55765625 8.4546875 7.0078125 9.171875 C3.9340201 13.53570463 3.14267422 16.59621382 3 22 C2.9484375 23.15886719 2.896875 24.31773437 2.84375 25.51171875 C4.55343612 35.41365085 13.26626665 42.45518946 20.1484375 49.18359375 C21.17199983 50.19645646 22.19474167 51.21014891 23.21670532 52.22462463 C25.8834447 54.86877885 28.55825457 57.50459027 31.23583984 60.13775635 C35.54325042 64.37443532 39.84262486 68.61915331 44.13325882 72.8728199 C45.63130687 74.35415425 47.13560726 75.82892532 48.64047241 77.30332947 C49.54206085 78.19508377 50.44364929 79.08683807 51.37255859 80.00561523 C52.17164642 80.79121323 52.97073425 81.57681122 53.79403687 82.38621521 C55.5 84.3125 55.5 84.3125 55.5 86.3125 C51.47947821 88.19782943 48.11599923 88.66699616 43.6875 88.75 C42.52605469 88.78996094 41.36460938 88.82992187 40.16796875 88.87109375 C30.5483078 87.40611876 23.8909451 79.16214235 17.32421875 72.5703125 C16.26702914 71.51769309 15.20947134 70.46544334 14.15156555 69.4135437 C11.94715212 67.21801827 9.74844006 65.01697344 7.5534668 62.81201172 C4.74999288 59.997021 1.93092232 57.19825292 -0.89283466 54.4036274 C-3.07642874 52.23843196 -5.25058092 50.0639439 -7.42214012 47.88668442 C-8.45761557 46.85105638 -9.49616875 45.81849556 -10.53792763 44.78918839 C-21.7260618 33.7161226 -21.7260618 33.7161226 -22.93359375 25.28515625 C-22.94375939 17.71175701 -22.15670616 12.19450085 -16.8515625 6.5625 C-11.61596354 1.80702147 -7.14867561 0.02505377 0 0 Z " fill="#8DE802" transform="translate(49.5,423.6875)"/>
<path d="M0 0 C-1.51832887 3.3167285 -3.44639411 6.07023744 -5.6328125 8.984375 C-9.99017601 14.90818808 -13.95293803 21.0324136 -17.875 27.25 C-22.66891324 34.79713308 -27.48868151 42.31626979 -32.47949219 49.73461914 C-36.05744521 55.06003235 -39.53634098 60.44717453 -43.01220703 65.83959961 C-46.94595322 71.93528069 -50.95165341 77.97967942 -55 84 C-58.9282453 80.72646225 -62.77401983 77.37794615 -66.5 73.875 C-67.53640625 72.91207031 -67.53640625 72.91207031 -68.59375 71.9296875 C-70 70 -70 70 -69.70874023 68.08959961 C-68.54411794 64.65590954 -66.50579712 61.72337735 -64.5625 58.6875 C-64.12236572 57.99124512 -63.68223145 57.29499023 -63.22875977 56.57763672 C-59.61750402 50.8941181 -55.90385692 45.27939369 -52.13696289 39.69799805 C-49.92100259 36.43719598 -49.92100259 36.43719598 -48 33 C-47.34 33 -46.68 33 -46 33 C-45.76667969 32.32324219 -45.53335938 31.64648438 -45.29296875 30.94921875 C-43.67932974 27.26856179 -41.5733345 24.12339831 -39.3125 20.8125 C-38.86406738 20.15266113 -38.41563477 19.49282227 -37.95361328 18.81298828 C-37.05254891 17.48865271 -36.14990745 16.16538865 -35.24560547 14.84326172 C-34.16006564 13.23686704 -33.1100212 11.60659885 -32.06640625 9.97265625 C-24.05357153 -2.3334294 -13.51500618 -5.79214551 0 0 Z " fill="#8EE801" transform="translate(160,386)"/>
</svg>
