<?xml version="1.0" encoding="UTF-8"?>
<svg version="1.1" xmlns="http://www.w3.org/2000/svg" width="512" height="512">
<path d="M0 0 C2.54901708 0.00316769 5.09687617 -0.02045182 7.64575195 -0.0456543 C22.19130928 -0.10190967 36.19080582 1.76726289 50.24145508 5.62817383 C51.02955566 5.84272217 51.81765625 6.05727051 52.62963867 6.27832031 C75.785098 12.75392057 98.01503624 23.41854258 117.61645508 37.31567383 C118.68766602 38.06333008 119.75887695 38.81098633 120.86254883 39.58129883 C128.66844275 45.22509209 135.69942925 51.6343583 142.61645508 58.31567383 C143.1778418 58.84644531 143.73922852 59.3772168 144.31762695 59.92407227 C148.9095128 64.3601711 152.74192058 69.15624697 156.49145508 74.31567383 C157.10005371 75.15163086 157.70865234 75.98758789 158.33569336 76.84887695 C176.29614756 101.79844565 187.06977121 128.89074284 186.92895508 160.00317383 C186.92646759 160.66308319 186.9239801 161.32299255 186.92141724 162.00289917 C186.72969964 194.95691391 175.17814108 226.79236191 151.61645508 250.31567383 C148.06304985 253.46753326 144.35439816 256.38712787 140.61645508 259.31567383 C139.61356445 260.15743164 138.61067383 260.99918945 137.57739258 261.86645508 C128.16299059 269.69770165 117.84650741 275.68297805 107.25952148 281.78735352 C86.93474051 293.5399056 69.5312303 307.30233058 61.61645508 330.31567383 C60.86135841 333.40276759 60.23446406 336.51110693 59.61645508 339.62817383 C58.32457521 346.1395997 57.05199172 351.95516554 51.61645508 356.31567383 C46.26175564 359.67927339 41.78881884 359.7495899 35.66723633 359.71972656 C34.68113373 359.72658981 33.69503113 359.73345306 32.67904663 359.74052429 C29.42886846 359.75878248 26.17917338 359.75495648 22.92895508 359.74926758 C20.66503747 359.75382945 18.40112124 359.75913504 16.13720703 359.76515198 C11.39618294 359.77408088 6.65532733 359.7716619 1.91430664 359.76171875 C-4.15874262 359.75022254 -10.231211 359.77045218 -16.30418396 359.79963589 C-20.97794279 359.81798711 -25.65156209 359.81770765 -30.3253479 359.81199837 C-32.5644309 359.81184506 -34.80352331 359.81789722 -37.04257202 359.83028984 C-40.17352709 359.84517923 -43.30340466 359.83453754 -46.43432617 359.81738281 C-47.35710358 359.82705078 -48.27988098 359.83671875 -49.23062134 359.84667969 C-54.76869822 359.78319066 -58.01409743 359.05501384 -62.38354492 355.31567383 C-64.02807617 352.84301758 -64.02807617 352.84301758 -65.19604492 350.25317383 C-65.59436523 349.39594727 -65.99268555 348.5387207 -66.40307617 347.65551758 C-69.04503021 341.3506153 -68.60677868 335.05648424 -68.6237793 328.33203125 C-68.63335068 326.04949577 -68.66431506 323.76791464 -68.69604492 321.4855957 C-68.90842967 292.30981265 -56.13109432 269.17150406 -36.38354492 248.31567383 C-35.2465918 247.09944336 -35.2465918 247.09944336 -34.08666992 245.85864258 C-27.40279675 238.9235781 -20.11598305 233.02160793 -12.38354492 227.31567383 C-11.83166504 226.90349609 -11.27978516 226.49131836 -10.71118164 226.06665039 C-1.35440687 219.16925954 8.75567886 214.16668939 19.17944336 209.07324219 C34.94389264 201.30153216 49.23014704 192.52729747 55.61645508 175.31567383 C58.18133653 165.41073994 59.14400341 154.39513341 53.89770508 145.21411133 C44.24849272 130.91680277 28.52903211 122.84410514 11.88598633 119.58520508 C-8.78055989 116.54540707 -30.92672499 118.82435148 -48.13452148 131.61743164 C-52.15646046 134.91197355 -55.787688 138.56793954 -59.38354492 142.31567383 C-59.96910156 142.91895508 -60.5546582 143.52223633 -61.15795898 144.14379883 C-69.45062228 152.72455572 -77.29223061 161.58685731 -84.49682617 171.10864258 C-91.72731517 180.54504347 -91.72731517 180.54504347 -98.62573242 181.68676758 C-111.09225589 182.63826236 -120.58230754 172.19089953 -129.73510742 164.96411133 C-133.90148802 161.67884881 -138.12536796 158.48060004 -142.38354492 155.31567383 C-148.99584563 150.3926954 -155.51111877 145.35357596 -161.9934082 140.26074219 C-166.16712742 136.99314134 -170.39302396 133.88346589 -174.75854492 130.87817383 C-179.14117403 127.69386727 -181.5226321 125.45533781 -183.38354492 120.31567383 C-184.9847533 109.83034156 -179.87800022 102.65091685 -174.07104492 94.37817383 C-173.58394043 93.67797119 -173.09683594 92.97776855 -172.5949707 92.25634766 C-169.01602599 87.14297637 -165.30811925 82.16951518 -161.38354492 77.31567383 C-160.79186523 76.5396582 -160.20018555 75.76364258 -159.59057617 74.96411133 C-140.38785628 50.37571564 -115.61883401 31.34564976 -87.38354492 18.31567383 C-86.2465918 17.78329102 -85.10963867 17.2509082 -83.93823242 16.70239258 C-71.20171577 10.98425807 -57.93296403 6.84976737 -44.25854492 4.06567383 C-43.52104004 3.91469238 -42.78353516 3.76371094 -42.02368164 3.6081543 C-28.0603676 0.94747555 -14.19123769 -0.03669093 0 0 Z " fill="#000000" transform="translate(254.383544921875,-0.315673828125)"/>
<path d="M0 0 C0.89439285 -0.0071553 1.78878571 -0.01431061 2.71028137 -0.02168274 C3.69419357 -0.02437164 4.67810577 -0.02706055 5.6918335 -0.02983093 C7.24326302 -0.03968773 7.24326302 -0.03968773 8.82603455 -0.04974365 C12.26014269 -0.06950757 15.69420703 -0.08114633 19.12835693 -0.09111023 C20.88509861 -0.09722352 20.88509861 -0.09722352 22.67733002 -0.10346031 C28.87633591 -0.12433452 35.07531957 -0.13863025 41.27435303 -0.147995 C47.68151372 -0.15906055 54.08832722 -0.19345871 60.49536514 -0.23316669 C65.41787365 -0.25929774 70.34029902 -0.26768375 75.26287079 -0.27127647 C77.62477716 -0.27615171 79.9866796 -0.28779219 82.34851837 -0.30631447 C85.6546436 -0.33062975 88.9598652 -0.32975435 92.26605225 -0.32279968 C93.24186752 -0.33560974 94.2176828 -0.3484198 95.22306824 -0.36161804 C100.91428848 -0.31798328 104.24481352 0.30249735 108.73773193 4.14717102 C112.34007614 8.13895784 113.85708133 11.05257013 113.87817383 16.415802 C113.88388397 17.28632706 113.88959412 18.15685211 113.89547729 19.05375671 C113.89715408 20.48215378 113.89715408 20.48215378 113.89886475 21.93940735 C113.90382965 22.94457901 113.90879456 23.94975067 113.91390991 24.98538208 C113.92853638 28.3166624 113.93533441 31.64789509 113.94085693 34.97920227 C113.94660804 37.29224652 113.95236578 39.60529075 113.95812988 41.91833496 C113.96864129 46.77139 113.97448303 51.62442846 113.97796631 56.47749329 C113.98345092 62.69511498 114.00747786 68.91251768 114.03593826 75.13007069 C114.05456489 79.90931843 114.05977027 84.68851344 114.06130219 89.46779442 C114.06432924 91.75991195 114.0723595 94.05202855 114.08548737 96.34411049 C114.10254779 99.55182668 114.10066739 102.75900791 114.09417725 105.9667511 C114.10339203 106.91294312 114.11260681 107.85913513 114.12210083 108.83399963 C114.08462668 114.7485798 113.41751748 119.27645927 109.20257568 123.79170227 C105.34993158 126.73784188 103.29104116 128.26793866 98.47546387 128.29434204 C97.58107101 128.30149734 96.68667816 128.30865265 95.7651825 128.31602478 C94.78127029 128.31871368 93.79735809 128.32140259 92.78363037 128.32417297 C91.74934402 128.33074417 90.71505768 128.33731537 89.64942932 128.34408569 C86.21532118 128.36384961 82.78125684 128.37548837 79.34710693 128.38545227 C77.59036526 128.39156556 77.59036526 128.39156556 75.79813385 128.39780235 C69.59912796 128.41867656 63.4001443 128.43297229 57.20111084 128.44233704 C50.79395015 128.45340259 44.38713665 128.48780075 37.98009872 128.52750874 C33.05759022 128.55363978 28.13516485 128.56202579 23.21259308 128.56561852 C20.85068671 128.57049375 18.48878427 128.58213423 16.1269455 128.60065651 C12.82082027 128.6249718 9.51559866 128.6240964 6.20941162 128.61714172 C4.74568871 128.63635681 4.74568871 128.63635681 3.25239563 128.65596008 C-2.43882462 128.61232532 -5.76934965 127.99184469 -10.26226807 124.14717102 C-13.86461227 120.1553842 -15.38161746 117.24177191 -15.40270996 111.87854004 C-15.41127518 110.57275246 -15.41127518 110.57275246 -15.42001343 109.24058533 C-15.42113129 108.28832062 -15.42224915 107.33605591 -15.42340088 106.35493469 C-15.42836578 105.34976303 -15.43333069 104.34459137 -15.43844604 103.30895996 C-15.45307251 99.97767964 -15.45987054 96.64644695 -15.46539307 93.31513977 C-15.47114417 91.00209552 -15.47690191 88.68905129 -15.48266602 86.37600708 C-15.49317742 81.52295204 -15.49901916 76.66991358 -15.50250244 71.81684875 C-15.50798705 65.59922706 -15.53201399 59.38182436 -15.5604744 53.16427135 C-15.57910102 48.38502361 -15.5843064 43.6058286 -15.58583832 38.82654762 C-15.58886537 36.53443009 -15.59689563 34.24231349 -15.6100235 31.95023155 C-15.62708392 28.74251536 -15.62520352 25.53533413 -15.61871338 22.32759094 C-15.62792816 21.38139893 -15.63714294 20.43520691 -15.64663696 19.46034241 C-15.60916281 13.54576224 -14.94205362 9.01788277 -10.72711182 4.50263977 C-6.87446771 1.55650016 -4.81557729 0.02640338 0 0 Z " fill="#000000" transform="translate(201.26226806640625,383.8528289794922)"/>
</svg>
