<?xml version="1.0" encoding="UTF-8"?>
<svg version="1.1" xmlns="http://www.w3.org/2000/svg" width="512" height="512">
<path d="M0 0 C14.35546434 11.70990834 26.06794902 27.89121936 28.30664062 46.72021484 C29.76601625 68.44058871 26.97909464 88.67535502 12.32739258 105.62890625 C-0.87957734 120.09489289 -17.32732525 130.10586173 -37.24804688 131.03271484 C-57.93878131 131.62467515 -76.50369154 127.612305 -92.13085938 113.34521484 C-106.8738166 99.20544466 -115.50400135 82.70692505 -116.09399414 62.08496094 C-116.33065412 41.68831843 -111.22582647 23.74080029 -96.89331055 8.796875 C-71.34187485 -16.78517169 -29.7766123 -22.50418132 0 0 Z M-77.69335938 14.72021484 C-78.32757813 15.15849609 -78.96179688 15.59677734 -79.61523438 16.04833984 C-89.83046062 23.82690661 -95.95731377 36.46227948 -98.69335938 48.72021484 C-100.24834488 67.02614764 -96.89396492 82.11999491 -84.94335938 96.40771484 C-75.96990368 106.04398261 -64.00028804 112.95250742 -50.69335938 113.72021484 C-52.95387025 111.98136032 -55.15100482 110.45731214 -57.63085938 109.03271484 C-62.91609873 105.04181982 -66.29626081 99.19767181 -67.69335938 92.72021484 C-68.60179057 84.02722708 -67.36361676 75.84526337 -62.18554688 68.61474609 C-55.99102275 61.85839304 -49.18635292 59.77199409 -40.25585938 58.78271484 C-31.93744201 57.81584469 -25.19712618 55.71781937 -19.31835938 49.53271484 C-14.52192039 43.23738868 -11.94483231 36.17067055 -12.30664062 28.23583984 C-13.40947324 21.06185801 -16.43492645 14.74493963 -21.69335938 9.72021484 C-39.41304596 -1.78039303 -61.33683921 2.79578401 -77.69335938 14.72021484 Z M-45.00585938 83.34521484 C-46.89852327 85.65764713 -46.89852327 85.65764713 -47.25585938 88.72021484 C-46.92832936 91.86648517 -46.92832936 91.86648517 -44.56835938 94.15771484 C-41.78090189 95.95806441 -41.78090189 95.95806441 -38.56835938 95.78271484 C-35.574694 94.9259869 -35.574694 94.9259869 -33.69335938 92.53271484 C-32.41627067 89.69833346 -32.41627067 89.69833346 -33.31835938 86.53271484 C-34.52315294 83.46977895 -34.52315294 83.46977895 -37.69335938 81.72021484 C-40.99111369 81.21286803 -42.25139343 81.40964418 -45.00585938 83.34521484 Z " fill="#000000" transform="translate(235.693359375,149.27978515625)"/>
<path d="M0 0 C1.16982422 -0.07347656 1.16982422 -0.07347656 2.36328125 -0.1484375 C5.7843618 0.62202434 6.65385353 2.57259152 8.6875 5.375 C9.88404589 7.407482 11.03285449 9.46858298 12.140625 11.55078125 C12.759375 12.70771484 13.378125 13.86464844 14.015625 15.05664062 C14.65636232 16.26686763 15.29698592 17.47715484 15.9375 18.6875 C16.59327788 19.91756952 17.24952353 21.14738979 17.90625 22.37695312 C19.5046136 25.37388487 21.09817861 28.3732661 22.6875 31.375 C23.75186279 31.3843457 24.81622559 31.39369141 25.9128418 31.40332031 C29.87354911 31.44328657 33.83348507 31.50906299 37.79370117 31.58251953 C39.5055142 31.61069086 41.21745637 31.63192452 42.92944336 31.64599609 C45.39503919 31.66747965 47.85908861 31.71415416 50.32421875 31.765625 C51.08586838 31.76685364 51.84751801 31.76808228 52.63224792 31.76934814 C57.58202913 31.9048382 60.22854907 32.80543944 63.6875 36.375 C66.11277932 43.03161772 62.49619822 50.01133191 59.76098633 56.04321289 C58.05584236 59.6740561 56.24695471 63.23977118 54.37109375 66.78515625 C53.99662109 67.50171387 53.62214844 68.21827148 53.23632812 68.95654297 C52.50957771 70.33372862 51.76536188 71.70187403 51.00195312 73.05908203 C49.83629992 75.15541618 49.83629992 75.15541618 48.6875 78.375 C49.86247008 82.18154068 51.81034628 85.57008864 53.7265625 89.05078125 C54.30664062 90.12650391 54.88671875 91.20222656 55.484375 92.31054688 C56.70000393 94.55608364 57.92653978 96.79575113 59.1640625 99.02929688 C62.39695803 105.07293529 64.73870571 109.47395489 63.6875 116.375 C61.48009319 119.34358157 60.20152627 120.20365791 56.6875 121.375 C54.10119776 121.45981773 51.54271944 121.49098229 48.95703125 121.47265625 C48.20661057 121.4712413 47.45618988 121.46982635 46.68302917 121.46836853 C44.2886454 121.4627756 41.89435547 121.45022444 39.5 121.4375 C37.87565239 121.43248408 36.25130332 121.42792134 34.62695312 121.42382812 C30.64709931 121.41280848 26.66731556 121.39554873 22.6875 121.375 C22.41728027 122.09357178 22.14706055 122.81214355 21.86865234 123.55249023 C19.82421837 128.43791835 17.00468724 132.88628039 14.3125 137.4375 C13.44625 138.92733398 13.44625 138.92733398 12.5625 140.44726562 C11.99789062 141.40439453 11.43328125 142.36152344 10.8515625 143.34765625 C10.34061035 144.21656494 9.8296582 145.08547363 9.30322266 145.98071289 C7.07240493 149.28648947 5.05641051 151.88359623 1.25 153.25 C-2.05550448 153.41124412 -3.47842902 153.14629436 -6.3125 151.375 C-10.50388231 145.68869434 -13.7275818 139.17794871 -17.125 133 C-17.62708984 132.09894531 -18.12917969 131.19789063 -18.64648438 130.26953125 C-19.35708008 128.97982422 -19.35708008 128.97982422 -20.08203125 127.6640625 C-20.51104736 126.88756348 -20.94006348 126.11106445 -21.38208008 125.31103516 C-22.3125 123.375 -22.3125 123.375 -22.3125 121.375 C-23.31627686 121.38547363 -24.32005371 121.39594727 -25.35424805 121.40673828 C-29.09086518 121.44303453 -32.82746683 121.4659354 -36.56420898 121.48486328 C-38.17914453 121.49489896 -39.794062 121.50853051 -41.40893555 121.52587891 C-43.73490875 121.55023465 -46.06064095 121.56150747 -48.38671875 121.5703125 C-49.10462082 121.58063507 -49.82252289 121.59095764 -50.56217957 121.60159302 C-55.4558898 121.60267963 -59.16538195 121.02553789 -63.0859375 118.01171875 C-65.15850586 115.24609409 -64.95920836 112.86736631 -64.8515625 109.49609375 C-63.41605888 101.18473585 -58.9092756 93.3607738 -54.99609375 85.96484375 C-54.62162109 85.24828613 -54.24714844 84.53172852 -53.86132812 83.79345703 C-53.13457771 82.41627138 -52.39036188 81.04812597 -51.62695312 79.69091797 C-50.46129992 77.59458382 -50.46129992 77.59458382 -49.3125 74.375 C-50.48747008 70.56845932 -52.43534628 67.17991136 -54.3515625 63.69921875 C-54.93164062 62.62349609 -55.51171875 61.54777344 -56.109375 60.43945312 C-57.32500393 58.19391636 -58.55153978 55.95424887 -59.7890625 53.72070312 C-65.54702508 42.95665478 -65.54702508 42.95665478 -64.3125 36.375 C-62.76000977 34.14868164 -62.76000977 34.14868164 -60.3125 32.375 C-57.56024547 32.22254882 -55.21827279 32.28205553 -52.50390625 32.5390625 C-50.94199994 32.6294464 -49.37961069 32.71177356 -47.81689453 32.78686523 C-46.60286957 32.84522049 -46.60286957 32.84522049 -45.36431885 32.90475464 C-32.78844471 33.68532318 -32.78844471 33.68532318 -21.44580078 29.31494141 C-17.12301664 24.17170458 -14.71180591 18.34480183 -12.44238281 12.07763672 C-10.00117065 6.23835006 -6.59888937 0.2808038 0 0 Z M-1.3125 26.375 C-1.9725 28.025 -2.6325 29.675 -3.3125 31.375 C-1.3325 31.375 0.6475 31.375 2.6875 31.375 C2.0275 29.725 1.3675 28.075 0.6875 26.375 C0.0275 26.375 -0.6325 26.375 -1.3125 26.375 Z M-42.3125 48.375 C-41.3225 50.355 -40.3325 52.335 -39.3125 54.375 C-38.3225 54.045 -37.3325 53.715 -36.3125 53.375 C-35.09380071 50.87052484 -35.09380071 50.87052484 -34.3125 48.375 C-36.9525 48.375 -39.5925 48.375 -42.3125 48.375 Z M-24.7409668 63.39819336 C-28.09248433 70.15812816 -28.09248433 70.15812816 -27.3125 77.375 C-26.3345779 79.45308447 -25.28511701 81.49820001 -24.1875 83.515625 C-23.25164062 85.24425781 -23.25164062 85.24425781 -22.296875 87.0078125 C-21.97138672 87.60110352 -21.64589844 88.19439453 -21.31054688 88.80566406 C-20.30978876 90.62994231 -19.31816912 92.45895124 -18.328125 94.2890625 C-15.76255806 99.64117414 -15.76255806 99.64117414 -12.3125 104.375 C-3.93561376 106.19293962 5.49419911 107.26763489 13.6875 104.375 C20.44814419 98.48718524 25.32963587 88.98207625 27.6875 80.375 C27.38551281 76.14091407 25.57154252 72.92700417 23.5625 69.234375 C22.93859375 68.08195312 22.3146875 66.92953125 21.671875 65.7421875 C21.34638672 65.14889648 21.02089844 64.55560547 20.68554688 63.94433594 C19.68478876 62.12005769 18.69316912 60.29104876 17.703125 58.4609375 C15.13755806 53.10882586 15.13755806 53.10882586 11.6875 48.375 C-6.42120415 44.44507546 -16.06006394 46.76557862 -24.7409668 63.39819336 Z M31.6875 48.375 C33.00610889 52.99013112 34.90105437 56.47397612 37.6875 60.375 C40.43542483 56.97280735 43.6875 52.89035412 43.6875 48.375 C39.7275 48.375 35.7675 48.375 31.6875 48.375 Z M-39.3125 92.375 C-40.9625 96.005 -42.6125 99.635 -44.3125 103.375 C-40.3525 103.375 -36.3925 103.375 -32.3125 103.375 C-33.488125 100.9309375 -33.488125 100.9309375 -34.6875 98.4375 C-35.12835938 97.52097656 -35.56921875 96.60445313 -36.0234375 95.66015625 C-37.10449162 93.24596198 -37.10449162 93.24596198 -39.3125 92.375 Z M36.6875 97.375 C36.0275 99.355 35.3675 101.335 34.6875 103.375 C36.6675 103.375 38.6475 103.375 40.6875 103.375 C40.0275 101.395 39.3675 99.415 38.6875 97.375 C38.0275 97.375 37.3675 97.375 36.6875 97.375 Z M-3.3125 120.375 C-2.19395414 124.10114153 -2.19395414 124.10114153 0.6875 126.375 C1.6775 124.395 2.6675 122.415 3.6875 120.375 C1.3775 120.375 -0.9325 120.375 -3.3125 120.375 Z " fill="#000000" transform="translate(320.3125,7.625)"/>
<path d="M0 0 C1.11299973 -0.00857025 2.22599945 -0.0171405 3.37272644 -0.02597046 C5.71663709 -0.03740402 8.06061867 -0.03849682 10.40454102 -0.02978516 C13.96039991 -0.02347312 17.51291202 -0.0704106 21.06835938 -0.12109375 C44.23478143 -0.24996702 44.23478143 -0.24996702 54.0480957 8.2253418 C62.68472796 17.2290472 62.7308673 27.67331005 62.59375 39.4140625 C62.58881952 41.03547768 62.58552493 42.65689857 62.58378601 44.27832031 C62.57618416 47.65725207 62.55572983 51.03575441 62.5246582 54.41455078 C62.48483131 58.75363421 62.46700468 63.09244086 62.45734882 67.4316864 C62.447407 71.57168273 62.4275207 75.71161116 62.40625 79.8515625 C62.40115638 81.03958969 62.40115638 81.03958969 62.39595985 82.25161743 C62.38444169 84.47772444 62.36593633 86.70365191 62.3449707 88.9296875 C62.3351265 90.1971582 62.32528229 91.46462891 62.31513977 92.77050781 C62.16796875 95.6015625 62.16796875 95.6015625 61.16796875 96.6015625 C58.25139246 96.70214493 55.35845929 96.73771461 52.44140625 96.73095703 C51.52603088 96.73270935 50.61065552 96.73446167 49.6675415 96.73626709 C46.62599826 96.74068711 43.58451264 96.73774709 40.54296875 96.734375 C38.43929025 96.735048 36.33561183 96.73601798 34.23193359 96.73727417 C29.81672426 96.73875135 25.40153512 96.73659595 20.98632812 96.73193359 C15.31304314 96.7262363 9.63980546 96.7295152 3.96652222 96.73550606 C-0.37931681 96.73911114 -4.72514453 96.73797333 -9.07098389 96.73537827 C-11.16347255 96.73470885 -13.25596222 96.73553793 -15.34844971 96.73785782 C-18.26748391 96.74038348 -21.18644037 96.73654498 -24.10546875 96.73095703 C-25.4161734 96.73399338 -25.4161734 96.73399338 -26.75335693 96.73709106 C-32.71776889 96.71582486 -32.71776889 96.71582486 -33.83203125 95.6015625 C-33.95807128 93.39597569 -34.01290198 91.18630433 -34.04077148 88.97729492 C-34.05055527 88.28441376 -34.06033905 87.59153259 -34.07041931 86.87765503 C-34.1004688 84.57080004 -34.12180004 82.26400423 -34.140625 79.95703125 C-34.14719683 79.16754908 -34.15376865 78.3780669 -34.16053963 77.56466103 C-34.19319529 73.37523823 -34.21761537 69.18584127 -34.23706055 64.99633789 C-34.25478119 61.5441307 -34.28944022 58.09275471 -34.33959961 54.64086914 C-34.40022323 50.46394393 -34.43059584 46.28778157 -34.44023323 42.11043739 C-34.44872911 40.52655487 -34.46740022 38.94268943 -34.49697685 37.35906029 C-34.68854279 26.50592264 -33.52838773 17.32160055 -26.20823669 8.68595886 C-18.62576436 1.57184572 -10.0837118 -0.01744995 0 0 Z " fill="#000000" transform="translate(425.83203125,399.3984375)"/>
<path d="M0 0 C1.11299973 -0.00857025 2.22599945 -0.0171405 3.37272644 -0.02597046 C5.71663709 -0.03740402 8.06061867 -0.03849682 10.40454102 -0.02978516 C13.96039991 -0.02347312 17.51291202 -0.0704106 21.06835938 -0.12109375 C44.23478143 -0.24996702 44.23478143 -0.24996702 54.0480957 8.2253418 C62.68472796 17.2290472 62.7308673 27.67331005 62.59375 39.4140625 C62.58881952 41.03547768 62.58552493 42.65689857 62.58378601 44.27832031 C62.57618416 47.65725207 62.55572983 51.03575441 62.5246582 54.41455078 C62.48483131 58.75363421 62.46700468 63.09244086 62.45734882 67.4316864 C62.447407 71.57168273 62.4275207 75.71161116 62.40625 79.8515625 C62.40115638 81.03958969 62.40115638 81.03958969 62.39595985 82.25161743 C62.38444169 84.47772444 62.36593633 86.70365191 62.3449707 88.9296875 C62.3351265 90.1971582 62.32528229 91.46462891 62.31513977 92.77050781 C62.16796875 95.6015625 62.16796875 95.6015625 61.16796875 96.6015625 C58.25139246 96.70214493 55.35845929 96.73771461 52.44140625 96.73095703 C51.52603088 96.73270935 50.61065552 96.73446167 49.6675415 96.73626709 C46.62599826 96.74068711 43.58451264 96.73774709 40.54296875 96.734375 C38.43929025 96.735048 36.33561183 96.73601798 34.23193359 96.73727417 C29.81672426 96.73875135 25.40153512 96.73659595 20.98632812 96.73193359 C15.31304314 96.7262363 9.63980546 96.7295152 3.96652222 96.73550606 C-0.37931681 96.73911114 -4.72514453 96.73797333 -9.07098389 96.73537827 C-11.16347255 96.73470885 -13.25596222 96.73553793 -15.34844971 96.73785782 C-18.26748391 96.74038348 -21.18644037 96.73654498 -24.10546875 96.73095703 C-25.4161734 96.73399338 -25.4161734 96.73399338 -26.75335693 96.73709106 C-32.71776889 96.71582486 -32.71776889 96.71582486 -33.83203125 95.6015625 C-33.95807128 93.39597569 -34.01290198 91.18630433 -34.04077148 88.97729492 C-34.05055527 88.28441376 -34.06033905 87.59153259 -34.07041931 86.87765503 C-34.1004688 84.57080004 -34.12180004 82.26400423 -34.140625 79.95703125 C-34.14719683 79.16754908 -34.15376865 78.3780669 -34.16053963 77.56466103 C-34.19319529 73.37523823 -34.21761537 69.18584127 -34.23706055 64.99633789 C-34.25478119 61.5441307 -34.28944022 58.09275471 -34.33959961 54.64086914 C-34.40022323 50.46394393 -34.43059584 46.28778157 -34.44023323 42.11043739 C-34.44872911 40.52655487 -34.46740022 38.94268943 -34.49697685 37.35906029 C-34.68854279 26.50592264 -33.52838773 17.32160055 -26.20823669 8.68595886 C-18.62576436 1.57184572 -10.0837118 -0.01744995 0 0 Z " fill="#000000" transform="translate(305.83203125,399.3984375)"/>
<path d="M0 0 C1.11299973 -0.00857025 2.22599945 -0.0171405 3.37272644 -0.02597046 C5.71663709 -0.03740402 8.06061867 -0.03849682 10.40454102 -0.02978516 C13.96039991 -0.02347312 17.51291202 -0.0704106 21.06835938 -0.12109375 C44.23478143 -0.24996702 44.23478143 -0.24996702 54.0480957 8.2253418 C62.68472796 17.2290472 62.7308673 27.67331005 62.59375 39.4140625 C62.58881952 41.03547768 62.58552493 42.65689857 62.58378601 44.27832031 C62.57618416 47.65725207 62.55572983 51.03575441 62.5246582 54.41455078 C62.48483131 58.75363421 62.46700468 63.09244086 62.45734882 67.4316864 C62.447407 71.57168273 62.4275207 75.71161116 62.40625 79.8515625 C62.40115638 81.03958969 62.40115638 81.03958969 62.39595985 82.25161743 C62.38444169 84.47772444 62.36593633 86.70365191 62.3449707 88.9296875 C62.3351265 90.1971582 62.32528229 91.46462891 62.31513977 92.77050781 C62.16796875 95.6015625 62.16796875 95.6015625 61.16796875 96.6015625 C58.25139246 96.70214493 55.35845929 96.73771461 52.44140625 96.73095703 C51.52603088 96.73270935 50.61065552 96.73446167 49.6675415 96.73626709 C46.62599826 96.74068711 43.58451264 96.73774709 40.54296875 96.734375 C38.43929025 96.735048 36.33561183 96.73601798 34.23193359 96.73727417 C29.81672426 96.73875135 25.40153512 96.73659595 20.98632812 96.73193359 C15.31304314 96.7262363 9.63980546 96.7295152 3.96652222 96.73550606 C-0.37931681 96.73911114 -4.72514453 96.73797333 -9.07098389 96.73537827 C-11.16347255 96.73470885 -13.25596222 96.73553793 -15.34844971 96.73785782 C-18.26748391 96.74038348 -21.18644037 96.73654498 -24.10546875 96.73095703 C-25.4161734 96.73399338 -25.4161734 96.73399338 -26.75335693 96.73709106 C-32.71776889 96.71582486 -32.71776889 96.71582486 -33.83203125 95.6015625 C-33.95807128 93.39597569 -34.01290198 91.18630433 -34.04077148 88.97729492 C-34.05055527 88.28441376 -34.06033905 87.59153259 -34.07041931 86.87765503 C-34.1004688 84.57080004 -34.12180004 82.26400423 -34.140625 79.95703125 C-34.14719683 79.16754908 -34.15376865 78.3780669 -34.16053963 77.56466103 C-34.19319529 73.37523823 -34.21761537 69.18584127 -34.23706055 64.99633789 C-34.25478119 61.5441307 -34.28944022 58.09275471 -34.33959961 54.64086914 C-34.40022323 50.46394393 -34.43059584 46.28778157 -34.44023323 42.11043739 C-34.44872911 40.52655487 -34.46740022 38.94268943 -34.49697685 37.35906029 C-34.68854279 26.50592264 -33.52838773 17.32160055 -26.20823669 8.68595886 C-18.62576436 1.57184572 -10.0837118 -0.01744995 0 0 Z " fill="#000000" transform="translate(177.83203125,399.3984375)"/>
<path d="M0 0 C1.11299973 -0.00857025 2.22599945 -0.0171405 3.37272644 -0.02597046 C5.71663709 -0.03740402 8.06061867 -0.03849682 10.40454102 -0.02978516 C13.96039991 -0.02347312 17.51291202 -0.0704106 21.06835938 -0.12109375 C44.23478143 -0.24996702 44.23478143 -0.24996702 54.0480957 8.2253418 C62.68472796 17.2290472 62.7308673 27.67331005 62.59375 39.4140625 C62.58881952 41.03547768 62.58552493 42.65689857 62.58378601 44.27832031 C62.57618416 47.65725207 62.55572983 51.03575441 62.5246582 54.41455078 C62.48483131 58.75363421 62.46700468 63.09244086 62.45734882 67.4316864 C62.447407 71.57168273 62.4275207 75.71161116 62.40625 79.8515625 C62.40115638 81.03958969 62.40115638 81.03958969 62.39595985 82.25161743 C62.38444169 84.47772444 62.36593633 86.70365191 62.3449707 88.9296875 C62.3351265 90.1971582 62.32528229 91.46462891 62.31513977 92.77050781 C62.16796875 95.6015625 62.16796875 95.6015625 61.16796875 96.6015625 C58.25139246 96.70214493 55.35845929 96.73771461 52.44140625 96.73095703 C51.52603088 96.73270935 50.61065552 96.73446167 49.6675415 96.73626709 C46.62599826 96.74068711 43.58451264 96.73774709 40.54296875 96.734375 C38.43929025 96.735048 36.33561183 96.73601798 34.23193359 96.73727417 C29.81672426 96.73875135 25.40153512 96.73659595 20.98632812 96.73193359 C15.31304314 96.7262363 9.63980546 96.7295152 3.96652222 96.73550606 C-0.37931681 96.73911114 -4.72514453 96.73797333 -9.07098389 96.73537827 C-11.16347255 96.73470885 -13.25596222 96.73553793 -15.34844971 96.73785782 C-18.26748391 96.74038348 -21.18644037 96.73654498 -24.10546875 96.73095703 C-25.4161734 96.73399338 -25.4161734 96.73399338 -26.75335693 96.73709106 C-32.71776889 96.71582486 -32.71776889 96.71582486 -33.83203125 95.6015625 C-33.95807128 93.39597569 -34.01290198 91.18630433 -34.04077148 88.97729492 C-34.05055527 88.28441376 -34.06033905 87.59153259 -34.07041931 86.87765503 C-34.1004688 84.57080004 -34.12180004 82.26400423 -34.140625 79.95703125 C-34.14719683 79.16754908 -34.15376865 78.3780669 -34.16053963 77.56466103 C-34.19319529 73.37523823 -34.21761537 69.18584127 -34.23706055 64.99633789 C-34.25478119 61.5441307 -34.28944022 58.09275471 -34.33959961 54.64086914 C-34.40022323 50.46394393 -34.43059584 46.28778157 -34.44023323 42.11043739 C-34.44872911 40.52655487 -34.46740022 38.94268943 -34.49697685 37.35906029 C-34.68854279 26.50592264 -33.52838773 17.32160055 -26.20823669 8.68595886 C-18.62576436 1.57184572 -10.0837118 -0.01744995 0 0 Z " fill="#000000" transform="translate(57.83203125,399.3984375)"/>
<path d="M0 0 C0 0.66 0 1.32 0 2 C-0.90621094 2.29132812 -1.81242187 2.58265625 -2.74609375 2.8828125 C-10.22089897 5.39814378 -16.73238241 8.11402156 -23 13 C-23.61230469 13.44988281 -24.22460938 13.89976563 -24.85546875 14.36328125 C-34.36927919 21.81891636 -41.30929113 34.02841498 -43 46 C-44.13487878 62.82537706 -42.12443767 76.08170431 -32 90 C-31.35998047 90.95132813 -31.35998047 90.95132813 -30.70703125 91.921875 C-23.46061166 101.64322558 -10.57579162 107.68201487 1 110 C5.0002817 110.52079986 8.96915119 110.85474419 13 111 C13 111.66 13 112.32 13 113 C-4.31560088 123.04773746 -22.48466621 127.26389325 -42.4375 123 C-59.50694898 117.69496262 -73.6108679 106.85859999 -82 91 C-89.83391428 75.68825846 -92.25607019 57.37709818 -87.3125 40.625 C-86.59215966 38.73002802 -85.82460493 36.85198157 -85 35 C-84.63777344 34.12730469 -84.27554688 33.25460938 -83.90234375 32.35546875 C-76.9799626 17.07929883 -64.35962165 6.03063924 -48.99609375 -0.22265625 C-33.61393712 -5.93719913 -15.24960557 -6.67170244 0 0 Z " fill="#000000" transform="translate(105,20)"/>
<path d="M0 0 C3.12578143 1.6720747 5.39281175 3.7856235 7 7 C7.084915 8.8863912 7.107193 10.77578515 7.09765625 12.6640625 C7.09282227 14.34628906 7.09282227 14.34628906 7.08789062 16.0625 C7.07532227 17.8259375 7.07532227 17.8259375 7.0625 19.625 C7.05798828 20.80835938 7.05347656 21.99171875 7.04882812 23.2109375 C7.03701467 26.14067507 7.02054258 29.07031272 7 32 C7.96824707 31.97381592 8.93649414 31.94763184 9.93408203 31.9206543 C13.54566096 31.82977075 17.15714003 31.7726145 20.76953125 31.7253418 C22.32927479 31.70028373 23.8889019 31.66622699 25.44824219 31.62280273 C27.69755843 31.56175807 29.9453156 31.53370574 32.1953125 31.51171875 C32.8861795 31.48591232 33.57704651 31.4601059 34.28884888 31.43351746 C38.13483987 31.43131753 40.48776239 32.02667152 43.42529297 34.40551758 C46.68772747 37.69300966 47.19751727 39.24466913 47.375 43.75 C47.3533442 47.49103938 47.02882688 49.6566975 44.625 52.5625 C40.59648845 56.30326073 37.85265514 56.13586084 32.5859375 56.09765625 C31.85629791 56.0962413 31.12665833 56.09482635 30.37490845 56.09336853 C28.04156415 56.08776531 25.70831536 56.07521235 23.375 56.0625 C21.79427222 56.05748541 20.21354293 56.05292243 18.6328125 56.04882812 C14.75517146 56.03779484 10.87760193 56.02052811 7 56 C7.01110306 56.80100128 7.02220612 57.60200256 7.03364563 58.42727661 C7.13398283 65.98945154 7.21003272 73.55130207 7.25906086 81.1139698 C7.2851147 85.00172532 7.32043365 88.88892915 7.37719727 92.77636719 C7.43167052 96.53060168 7.46145222 100.2843068 7.47438622 104.0389061 C7.48359892 105.46865036 7.50158988 106.89836683 7.52865028 108.32788467 C7.75778348 120.93798471 7.75778348 120.93798471 4.59448242 124.86279297 C0.5013796 128.23448979 -2.25432581 128.38944674 -7.44921875 128.359375 C-11.55868504 127.78039966 -13.21349577 126.00085071 -16 123 C-17.3951713 120.20965739 -17.11955162 117.92774028 -17.11352539 114.80615234 C-17.11344986 113.50495453 -17.11337433 112.20375671 -17.11329651 110.86312866 C-17.10818947 109.43739789 -17.10297347 108.0116675 -17.09765625 106.5859375 C-17.09579147 105.13148039 -17.09436785 103.67702266 -17.09336853 102.2225647 C-17.08954805 98.39207224 -17.07972176 94.56161763 -17.06866455 90.73114014 C-17.05844035 86.82336947 -17.05386874 82.91559269 -17.04882812 79.0078125 C-17.03809908 71.3385244 -17.02102828 63.6692675 -17 56 C-18.75778871 56.03406567 -20.51557698 56.06815456 -22.27336311 56.1023531 C-23.76124348 56.13108345 -25.249132 56.15939449 -26.73702812 56.18729687 C-29.80540369 56.24525482 -32.87318663 56.30560934 -35.940979 56.38955688 C-38.02626769 56.44625477 -40.10938295 56.47193794 -42.1953125 56.48828125 C-42.877146 56.51386108 -43.55897949 56.53944092 -44.26147461 56.5657959 C-48.11646978 56.56927639 -50.47924155 55.98022875 -53.42529297 53.59448242 C-56.68772747 50.30699034 -57.19751727 48.75533087 -57.375 44.25 C-57.3533442 40.50896062 -57.02882688 38.3433025 -54.625 35.4375 C-50.59648845 31.69673927 -47.85265514 31.86413916 -42.5859375 31.90234375 C-41.49147812 31.90446617 -41.49147812 31.90446617 -40.37490845 31.90663147 C-38.04156415 31.91223469 -35.70831536 31.92478765 -33.375 31.9375 C-31.79427222 31.94251459 -30.21354293 31.94707757 -28.6328125 31.95117188 C-24.75517146 31.96220516 -20.87760193 31.97947189 -17 32 C-17.03927612 30.91114502 -17.03927612 30.91114502 -17.0793457 29.80029297 C-17.1836681 26.49208459 -17.24843872 23.1842228 -17.3125 19.875 C-17.35439453 18.73289063 -17.39628906 17.59078125 -17.43945312 16.4140625 C-17.5775945 6.90993617 -17.5775945 6.90993617 -14.60546875 3.2578125 C-10.05732161 -0.68346043 -5.87172261 -0.82725648 0 0 Z " fill="#000000" transform="translate(445,144)"/>
<path d="M0 0 C7.22538503 4.30603754 11.61183794 10.13263188 14.4375 18 C15.58377924 27.37083278 15.35041227 36.25894094 9.4375 44 C4.17173342 49.79454649 -1.46288906 53.49851854 -9.39453125 54.46875 C-18.96468152 54.54388366 -26.27935606 53.80103194 -33.6171875 47.1328125 C-40.09535088 40.22456359 -42.12992353 33.50211038 -42.04296875 24.06860352 C-41.74395838 15.54582427 -38.83865527 9.83070397 -32.6875 4.0625 C-23.90268227 -3.41745987 -10.46364874 -4.75036814 0 0 Z " fill="#000000" transform="translate(453.5625,334)"/>
<path d="M0 0 C7.22538503 4.30603754 11.61183794 10.13263188 14.4375 18 C15.58377924 27.37083278 15.35041227 36.25894094 9.4375 44 C4.17173342 49.79454649 -1.46288906 53.49851854 -9.39453125 54.46875 C-18.96468152 54.54388366 -26.27935606 53.80103194 -33.6171875 47.1328125 C-40.09535088 40.22456359 -42.12992353 33.50211038 -42.04296875 24.06860352 C-41.74395838 15.54582427 -38.83865527 9.83070397 -32.6875 4.0625 C-23.90268227 -3.41745987 -10.46364874 -4.75036814 0 0 Z " fill="#000000" transform="translate(333.5625,334)"/>
<path d="M0 0 C7.22538503 4.30603754 11.61183794 10.13263188 14.4375 18 C15.58377924 27.37083278 15.35041227 36.25894094 9.4375 44 C4.17173342 49.79454649 -1.46288906 53.49851854 -9.39453125 54.46875 C-18.96468152 54.54388366 -26.27935606 53.80103194 -33.6171875 47.1328125 C-40.09535088 40.22456359 -42.12992353 33.50211038 -42.04296875 24.06860352 C-41.74395838 15.54582427 -38.83865527 9.83070397 -32.6875 4.0625 C-23.90268227 -3.41745987 -10.46364874 -4.75036814 0 0 Z " fill="#000000" transform="translate(205.5625,334)"/>
<path d="M0 0 C7.22538503 4.30603754 11.61183794 10.13263188 14.4375 18 C15.58377924 27.37083278 15.35041227 36.25894094 9.4375 44 C4.17173342 49.79454649 -1.46288906 53.49851854 -9.39453125 54.46875 C-18.96468152 54.54388366 -26.27935606 53.80103194 -33.6171875 47.1328125 C-40.09535088 40.22456359 -42.12992353 33.50211038 -42.04296875 24.06860352 C-41.74395838 15.54582427 -38.83865527 9.83070397 -32.6875 4.0625 C-23.90268227 -3.41745987 -10.46364874 -4.75036814 0 0 Z " fill="#000000" transform="translate(85.5625,334)"/>
<path d="M0 0 C1.32 0 2.64 0 4 0 C4.3196875 0.97582031 4.639375 1.95164063 4.96875 2.95703125 C7.49867775 10.08519104 7.49867775 10.08519104 12.90185547 14.95751953 C17.51638465 16.34728469 22.20369689 16.75816959 27 17 C27 18.32 27 19.64 27 21 C25.34154035 22.45473883 23.62314277 23.84185877 21.875 25.1875 C18.22383843 28.54615657 18.22383843 28.54615657 16.72265625 33.12451172 C16.85124388 38.19193591 17.84645664 43.07745358 19 48 C17.3359375 48.6875 17.3359375 48.6875 15 49 C12.13483051 47.61502381 9.54160701 45.94738019 6.8515625 44.25 C3.32703804 42.70500298 1.66333233 42.94429865 -2 44 C-4.45553163 45.14565707 -4.45553163 45.14565707 -6.6875 46.5625 C-10.68555241 49 -10.68555241 49 -14 49 C-14.020625 47.88625 -14.04125 46.7725 -14.0625 45.625 C-14.07796875 44.89152344 -14.0934375 44.15804687 -14.109375 43.40234375 C-14 41 -14 41 -13.390625 38.62890625 C-12.71108084 35.75920963 -12.44622972 33.91794339 -13 31 C-16.24847888 26.79827895 -19.94635913 23.41154416 -24 20 C-23.505 18.515 -23.505 18.515 -23 17 C-21.38931641 16.91878906 -21.38931641 16.91878906 -19.74609375 16.8359375 C-11.98119369 16.3247145 -11.98119369 16.3247145 -5.55517578 12.48388672 C-3.01964819 8.6032349 -1.43740445 4.38756116 0 0 Z " fill="#000000" transform="translate(108,48)"/>
<path d="M0 0 C5.28 0 10.56 0 16 0 C16 5.28 16 10.56 16 16 C10.72 16 5.44 16 0 16 C0 10.72 0 5.44 0 0 Z " fill="#000000" transform="translate(432,296)"/>
<path d="M0 0 C5.28 0 10.56 0 16 0 C16 5.28 16 10.56 16 16 C10.72 16 5.44 16 0 16 C0 10.72 0 5.44 0 0 Z " fill="#000000" transform="translate(312,296)"/>
<path d="M0 0 C5.28 0 10.56 0 16 0 C16 5.28 16 10.56 16 16 C10.72 16 5.44 16 0 16 C0 10.72 0 5.44 0 0 Z " fill="#000000" transform="translate(184,296)"/>
<path d="M0 0 C5.28 0 10.56 0 16 0 C16 5.28 16 10.56 16 16 C10.72 16 5.44 16 0 16 C0 10.72 0 5.44 0 0 Z " fill="#000000" transform="translate(64,296)"/>
<path d="M0 0 C5.28 0 10.56 0 16 0 C16 5.28 16 10.56 16 16 C10.72 16 5.44 16 0 16 C0 10.72 0 5.44 0 0 Z " fill="#000000" transform="translate(312,256)"/>
<path d="M0 0 C5.28 0 10.56 0 16 0 C16 5.28 16 10.56 16 16 C10.72 16 5.44 16 0 16 C0 10.72 0 5.44 0 0 Z " fill="#000000" transform="translate(64,256)"/>
<path d="M0 0 C5.28 0 10.56 0 16 0 C16 5.28 16 10.56 16 16 C10.72 16 5.44 16 0 16 C0 10.72 0 5.44 0 0 Z " fill="#000000" transform="translate(312,216)"/>
<path d="M0 0 C5.28 0 10.56 0 16 0 C16 5.28 16 10.56 16 16 C10.72 16 5.44 16 0 16 C0 10.72 0 5.44 0 0 Z " fill="#000000" transform="translate(64,216)"/>
<path d="M0 0 C5.28 0 10.56 0 16 0 C16 5.28 16 10.56 16 16 C10.72 16 5.44 16 0 16 C0 10.72 0 5.44 0 0 Z " fill="#000000" transform="translate(312,176)"/>
<path d="M0 0 C5.28 0 10.56 0 16 0 C16 5.28 16 10.56 16 16 C10.72 16 5.44 16 0 16 C0 10.72 0 5.44 0 0 Z " fill="#000000" transform="translate(64,176)"/>
<path d="M0 0 C4.7693662 1.41314554 4.7693662 1.41314554 6.375 4 C7.48778259 7.65628566 7.69448363 9.31539221 6.0625 12.8125 C4.375 15 4.375 15 2.375 16 C-1.46114957 16.35519903 -3.77129634 16.54724594 -7.0625 14.4375 C-9.25521887 11.01685857 -9.25507693 8.99048721 -8.625 5 C-5.93921083 1.09339758 -4.80084596 0 0 0 Z " fill="#000000" transform="translate(196.625,170)"/>
</svg>
