<svg width="960" height="960" viewBox="0 0 960 960" fill="none" xmlns="http://www.w3.org/2000/svg">
<rect width="960" height="960" fill="white"/>
<g clip-path="url(#clip0_8_2)">
<g clip-path="url(#clip1_8_2)">
<path d="M160 160C371.2 160 582.4 160 800 160C800 371.2 800 582.4 800 800C588.8 800 377.6 800 160 800C160 588.8 160 377.6 160 160Z" fill="#052F48"/>
<path d="M484.762 257.885C488.155 257.847 491.548 257.809 495.045 257.77C551.842 257.671 604.716 272.365 651.428 298.462C655.2 301.508 655.2 301.508 659.048 304.615C658.562 319.606 647.77 328.428 635.952 339.038C632.084 342.617 628.22 346.199 624.36 349.784C622.463 351.532 620.565 353.28 618.61 355.081C611.706 361.517 605.115 368.131 598.571 374.808C585.458 388.172 572.153 401.402 558.809 414.615C542.961 430.319 527.315 446.13 511.905 462.115C496.816 477.754 481.207 492.953 465.244 508.012C452.551 520.042 440.356 532.338 428.333 544.808C414.535 559.088 400.649 573.299 386.428 587.308C383.359 590.346 380.29 593.384 377.128 596.514C374.618 598.68 372.109 600.846 369.524 603.077C367.009 603.077 364.495 603.077 361.905 603.077C361.905 608.154 361.905 613.231 361.905 618.461C365.205 619.286 368.505 620.111 371.905 620.961C384.449 624.526 395.852 628.868 407.619 633.846C408.876 631.815 410.133 629.785 411.428 627.692C415.2 627.692 418.971 627.692 422.857 627.692C422.857 629.723 422.857 631.754 422.857 633.846C425.371 633.846 427.886 633.846 430.476 633.846C430.476 627.754 430.476 621.661 430.476 615.385C434.248 615.385 438.019 615.385 441.905 615.385C441.905 620.461 441.905 625.538 441.905 630.769C460.587 627.216 460.587 627.216 476.667 619.231C479.024 617.961 481.381 616.692 483.809 615.385C495.762 617.913 501.724 620.623 510.476 627.692C518.05 628.916 525.674 629.962 533.333 630.769C533.333 625.692 533.333 620.615 533.333 615.385C537.105 615.385 540.876 615.385 544.762 615.385C544.762 621.477 544.762 627.569 544.762 633.846C547.276 633.846 549.79 633.846 552.381 633.846C552.381 631.815 552.381 629.785 552.381 627.692C556.152 627.692 559.924 627.692 563.809 627.692C565.067 631.754 566.324 635.815 567.619 640C570.961 639.254 574.304 638.509 577.747 637.74C590.223 634.969 602.704 632.219 615.191 629.483C620.581 628.298 625.968 627.104 631.352 625.901C639.118 624.169 646.894 622.466 654.673 620.769C661.675 619.222 661.675 619.222 668.819 617.644C681.266 615.495 692.086 614.946 704.762 615.385C690.025 650.538 643.752 670.534 605.238 686.923C543.186 710.804 465.087 712.26 399.509 696.755C349.988 682.57 310.772 661.033 274.286 630.769C271.919 629.302 269.552 627.834 267.113 626.322C262.857 621.538 262.857 621.538 263.006 612.788C267.37 601.21 273.384 595.178 283.333 586.154C286.838 582.906 290.334 579.652 293.824 576.394C295.637 574.714 297.45 573.035 299.317 571.304C308.222 562.881 316.598 554.136 325 545.385C340.311 529.514 355.901 513.847 371.667 498.269C389.671 480.466 407.149 462.416 424.405 444.135C435.665 432.311 447.358 420.778 459.048 409.231C474.731 393.717 490.289 378.141 505.476 362.308C508.477 359.182 511.477 356.057 514.568 352.837C520.621 346.054 525.078 339.79 529.524 332.308C468.181 331.018 419.268 331.938 364.167 355.986C355.615 359.46 348.387 361.618 339.048 363.077C332.447 357.042 325.873 350.991 319.345 344.904C313.959 339.921 308.435 335.035 302.857 330.192C297.143 323.077 297.143 323.077 297.634 315.613C305.515 296.802 336.956 286.673 357.619 277.692C378.518 269.598 400.212 265.236 422.857 261.538C426.275 260.963 429.693 260.388 433.214 259.796C450.429 257.958 467.415 257.895 484.762 257.885Z" fill="#FBFCFC"/>
</g>
</g>
<defs>
<clipPath id="clip0_8_2">
<rect x="160" y="160" width="640" height="640" rx="320" fill="white"/>
</clipPath>
<clipPath id="clip1_8_2">
<rect width="640" height="640" fill="white" transform="translate(160 160)"/>
</clipPath>
</defs>
</svg>
