<?xml version="1.0" encoding="UTF-8"?>
<svg version="1.1" xmlns="http://www.w3.org/2000/svg" width="512" height="512">
<path d="M0 0 C132 0 264 0 400 0 C400 89.76 400 179.52 400 272 C294.4 272 188.8 272 80 272 C80 266.39 80 260.78 80 255 C83.45786987 255.05667847 83.45786987 255.05667847 86.9855957 255.11450195 C94.63700821 255.23031813 102.28763177 255.27375434 109.93987751 255.28240681 C114.57608769 255.28983927 119.20951655 255.32097177 123.8449707 255.40795898 C128.32640318 255.49115588 132.80406097 255.50988592 137.28615379 255.48558617 C138.98817663 255.48736609 140.69034196 255.5116385 142.39168739 255.55968666 C152.73869898 255.97973662 152.73869898 255.97973662 161.45819092 251.14465332 C164.32874707 247.98292421 166.66529831 244.56979127 169 241 C170.03844059 239.67202943 171.08772282 238.35213021 172.1640625 237.0546875 C172.98667985 235.99657953 173.80707797 234.93674164 174.625 233.875 C179.77821309 227.25624462 185.06614033 220.7568144 190.41210938 214.29248047 C197.1026167 206.1933314 203.6392892 197.98624432 210 189.625 C210.62277832 188.81748291 211.24555664 188.00996582 211.88720703 187.17797852 C220.19473561 176.15422381 223.49757715 167.78610741 222 154 C219.99022855 145.36584219 215.30369335 138.93744519 207.875 134.1875 C205.30306827 132.67429519 202.67095787 131.32853958 200 130 C199.99191315 128.78335159 199.98382629 127.56670319 199.97549438 126.31318665 C199.8980299 114.85077348 199.81028968 103.38847898 199.71247292 91.92622089 C199.66251433 86.03327606 199.61618408 80.14034911 199.578125 74.24731445 C199.54126692 68.56085798 199.49490523 62.87455132 199.44193649 57.18822289 C199.42339539 55.01812555 199.40828638 52.8479961 199.39665604 50.67785072 C199.37978898 47.63965112 199.3507523 44.60179442 199.31884766 41.5637207 C199.31668747 40.66532471 199.31452728 39.76692871 199.31230164 38.84130859 C199.25415566 34.51057453 199.17959057 30.87521224 197 27 C194.20129973 25.60064987 192.09501208 25.74734595 189 26 C186.44050454 27.85342775 186.02081202 28.93756393 185 32 C184.90099675 33.34514596 184.8539952 34.69452959 184.84178162 36.04325867 C184.8319928 36.8635556 184.82220398 37.68385254 184.81211853 38.52900696 C184.80636307 39.42524277 184.8006076 40.32147858 184.79467773 41.24487305 C184.78477814 42.19140747 184.77487854 43.13794189 184.76467896 44.11315918 C184.73305761 47.24598681 184.70830394 50.37882961 184.68359375 53.51171875 C184.66302478 55.68219907 184.64202832 57.85267537 184.62062073 60.02314758 C184.56539423 65.73923496 184.51598745 71.45535853 184.46777344 77.17150879 C184.41756267 83.00304387 184.36187438 88.83452633 184.30664062 94.66601562 C184.19905196 106.11063214 184.09760852 117.55529432 184 129 C183.11957031 129.25394531 182.23914063 129.50789062 181.33203125 129.76953125 C180.17058594 130.11371094 179.00914062 130.45789063 177.8125 130.8125 C176.66394531 131.14894531 175.51539063 131.48539063 174.33203125 131.83203125 C169.62069549 133.48348423 165.92416424 135.96994913 162 139 C160.700625 139.928125 160.700625 139.928125 159.375 140.875 C153.29472225 146.31524852 148.28442557 153.01217308 143.125 159.3125 C142.51930176 160.05016602 141.91360352 160.78783203 141.28955078 161.54785156 C139.52506913 163.69750722 137.76234831 165.84859527 136 168 C135.07817828 169.12374162 134.15630882 170.24744409 133.234375 171.37109375 C129.07722735 176.35230919 129.07722735 176.35230919 125.29034424 181.608078 C123 184 123 184 120.0133667 184.60127258 C118.84976624 184.59016953 117.68616577 184.57906647 116.48730469 184.56762695 C115.84298492 184.56835709 115.19866516 184.56908722 114.53482056 184.56983948 C112.41297101 184.56636616 110.29333909 184.52752539 108.171875 184.48828125 C106.69786783 184.47895201 105.22384513 184.47183642 103.74981689 184.46684265 C99.87618971 184.44778097 96.00350474 184.39868918 92.13024902 184.34332275 C88.17550401 184.29211125 84.22060625 184.26932467 80.265625 184.24414062 C72.5099878 184.19056804 64.75512608 184.10526737 57 184 C57.72795453 180.17703084 58.75642968 176.62706341 60 172.9375 C61.97828492 166.55824789 62.80616922 160.6576658 63 154 C63.03996094 152.89914063 63.07992187 151.79828125 63.12109375 150.6640625 C63.45456474 133.20587558 60.81208947 117.11964383 50 103 C49.55011719 102.38640625 49.10023438 101.7728125 48.63671875 101.140625 C36.69394897 85.93461954 18.16163639 82.27020455 0 80 C0 53.6 0 27.2 0 0 Z " fill="#000000" transform="translate(104,8)"/>
<path d="M0 0 C9.00087842 6.48304476 14.95352354 14.68794037 17.58203125 25.4921875 C18.06545496 30.4258894 18.15975977 35.29032981 18.10351562 40.24414062 C18.08205809 42.48937939 18.10341555 44.73142014 18.12890625 46.9765625 C18.15464525 59.79582264 15.66625425 70.03317338 6.58203125 79.4921875 C1.67252651 83.9585334 -3.17610082 87.23449059 -9.41796875 89.4921875 C-9.41796875 89.8221875 -9.41796875 90.1521875 -9.41796875 90.4921875 C-8.52078125 90.688125 -7.62359375 90.8840625 -6.69921875 91.0859375 C7.23922782 94.42655693 19.70464957 100.00113878 30.58203125 109.4921875 C31.55011719 110.26433594 32.51820313 111.03648437 33.515625 111.83203125 C45.12141786 121.51988685 53.76005282 137.71039571 56.58203125 152.4921875 C56.62192592 154.15837662 56.63171676 155.82626159 56.58203125 157.4921875 C57.24203125 157.4921875 57.90203125 157.4921875 58.58203125 157.4921875 C58.64390625 156.2753125 58.70578125 155.0584375 58.76953125 153.8046875 C60.79944714 135.84557051 72.58250094 118.75692273 86.22973633 107.37963867 C97.68425285 98.35460363 110.49171074 93.70997701 124.58203125 90.4921875 C122.54946455 88.22636331 122.54946455 88.22636331 119.01953125 86.8671875 C110.11441045 82.47119321 103.71561409 75.47764789 99.58203125 66.4921875 C97.21221559 59.34209943 97.20983671 52.48201268 97.21142578 45.04199219 C97.20706835 42.76160058 97.17073123 40.48317328 97.1328125 38.203125 C97.03178901 25.24277516 99.42506236 15.08433907 108.58203125 5.4921875 C117.80916302 -3.31632203 127.43247449 -6.13355551 139.94677734 -5.97851562 C151.77400632 -5.51030778 160.42310232 -0.959443 168.5546875 7.55859375 C176.83280504 17.38336595 178.24474028 27.80550735 178.10351562 40.24414062 C178.08205809 42.48937939 178.10341555 44.73142014 178.12890625 46.9765625 C178.15464525 59.79582264 175.66625425 70.03317338 166.58203125 79.4921875 C161.67252651 83.9585334 156.82389918 87.23449059 150.58203125 89.4921875 C150.58203125 89.8221875 150.58203125 90.1521875 150.58203125 90.4921875 C151.47921875 90.688125 152.37640625 90.8840625 153.30078125 91.0859375 C167.23922782 94.42655693 179.70464957 100.00113878 190.58203125 109.4921875 C191.55011719 110.26433594 192.51820313 111.03648437 193.515625 111.83203125 C205.12141786 121.51988685 213.76005282 137.71039571 216.58203125 152.4921875 C216.62192592 154.15837662 216.63171676 155.82626159 216.58203125 157.4921875 C217.24203125 157.4921875 217.90203125 157.4921875 218.58203125 157.4921875 C218.67484375 155.666875 218.67484375 155.666875 218.76953125 153.8046875 C220.79944714 135.84557051 232.58250094 118.75692273 246.22973633 107.37963867 C257.68425285 98.35460363 270.49171074 93.70997701 284.58203125 90.4921875 C282.54946455 88.22636331 282.54946455 88.22636331 279.01953125 86.8671875 C270.11441045 82.47119321 263.71561409 75.47764789 259.58203125 66.4921875 C257.21221559 59.34209943 257.20983671 52.48201268 257.21142578 45.04199219 C257.20706835 42.76160058 257.17073123 40.48317328 257.1328125 38.203125 C257.03178901 25.24277516 259.42506236 15.08433907 268.58203125 5.4921875 C277.80916302 -3.31632203 287.43247449 -6.13355551 299.94677734 -5.97851562 C311.77400632 -5.51030778 320.42310232 -0.959443 328.5546875 7.55859375 C336.83280504 17.38336595 338.24474028 27.80550735 338.10351562 40.24414062 C338.08205809 42.48937939 338.10341555 44.73142014 338.12890625 46.9765625 C338.15464525 59.79582264 335.66625425 70.03317338 326.58203125 79.4921875 C321.67252651 83.9585334 316.82389918 87.23449059 310.58203125 89.4921875 C310.58203125 89.8221875 310.58203125 90.1521875 310.58203125 90.4921875 C311.47921875 90.688125 312.37640625 90.8840625 313.30078125 91.0859375 C327.23922782 94.42655693 339.70464957 100.00113878 350.58203125 109.4921875 C351.55011719 110.26433594 352.51820313 111.03648437 353.515625 111.83203125 C366.64713119 122.79346554 374.97585163 140.81911293 377.58203125 157.4921875 C377.58203125 161.7821875 377.58203125 166.0721875 377.58203125 170.4921875 C367.02203125 170.4921875 356.46203125 170.4921875 345.58203125 170.4921875 C345.20703125 162.8046875 345.20703125 162.8046875 345.10400391 160.41137695 C344.88121165 156.42480693 344.49275501 153.08682249 342.58203125 149.4921875 C339.78333098 148.09283737 337.67704333 148.23953345 334.58203125 148.4921875 C332.02253579 150.34561525 331.60284327 151.42975143 330.58203125 154.4921875 C330.25203125 159.7721875 329.92203125 165.0521875 329.58203125 170.4921875 C308.46203125 170.4921875 287.34203125 170.4921875 265.58203125 170.4921875 C265.25203125 165.2121875 264.92203125 159.9321875 264.58203125 154.4921875 C263.24639509 149.54755115 263.24639509 149.54755115 260.58203125 148.4921875 C256.40886551 148.06375997 256.40886551 148.06375997 252.76953125 149.8046875 C248.54278496 155.81111644 250.03278376 163.28014727 249.58203125 170.4921875 C228.46203125 170.4921875 207.34203125 170.4921875 185.58203125 170.4921875 C185.25203125 165.2121875 184.92203125 159.9321875 184.58203125 154.4921875 C183.24639509 149.54755115 183.24639509 149.54755115 180.58203125 148.4921875 C176.40886551 148.06375997 176.40886551 148.06375997 172.76953125 149.8046875 C168.54278496 155.81111644 170.03278376 163.28014727 169.58203125 170.4921875 C148.46203125 170.4921875 127.34203125 170.4921875 105.58203125 170.4921875 C105.25203125 165.2121875 104.92203125 159.9321875 104.58203125 154.4921875 C103.24639509 149.54755115 103.24639509 149.54755115 100.58203125 148.4921875 C96.40886551 148.06375997 96.40886551 148.06375997 92.76953125 149.8046875 C88.54278496 155.81111644 90.03278376 163.28014727 89.58203125 170.4921875 C68.46203125 170.4921875 47.34203125 170.4921875 25.58203125 170.4921875 C25.25203125 165.2121875 24.92203125 159.9321875 24.58203125 154.4921875 C23.24639509 149.54755115 23.24639509 149.54755115 20.58203125 148.4921875 C16.40886551 148.06375997 16.40886551 148.06375997 12.76953125 149.8046875 C8.54278496 155.81111644 10.03278376 163.28014727 9.58203125 170.4921875 C-11.53796875 170.4921875 -32.65796875 170.4921875 -54.41796875 170.4921875 C-54.74796875 165.2121875 -55.07796875 159.9321875 -55.41796875 154.4921875 C-56.75360491 149.54755115 -56.75360491 149.54755115 -59.41796875 148.4921875 C-63.59113449 148.06375997 -63.59113449 148.06375997 -67.23046875 149.8046875 C-69.960227 153.68381765 -69.73735051 158.1222429 -69.98046875 162.6796875 C-70.12484375 165.2578125 -70.26921875 167.8359375 -70.41796875 170.4921875 C-80.97796875 170.4921875 -91.53796875 170.4921875 -102.41796875 170.4921875 C-102.41796875 150.17794537 -96.86695366 132.90563089 -83.41796875 117.4921875 C-82.64582031 116.52410156 -81.87367187 115.55601562 -81.078125 114.55859375 C-69.52013044 100.71242425 -52.45350164 94.38257161 -35.41796875 90.4921875 C-37.45053545 88.22636331 -37.45053545 88.22636331 -40.98046875 86.8671875 C-49.88558955 82.47119321 -56.28438591 75.47764789 -60.41796875 66.4921875 C-62.78778441 59.34209943 -62.79016329 52.48201268 -62.78857422 45.04199219 C-62.79293165 42.76160058 -62.82926877 40.48317328 -62.8671875 38.203125 C-62.96821099 25.24277516 -60.57493764 15.08433907 -51.41796875 5.4921875 C-37.63784493 -7.66275112 -16.31305228 -10.17259803 0 0 Z " fill="#000000" transform="translate(110.41796875,333.5078125)"/>
<path d="M0 0 C9.32672029 6.88334297 15.50094162 15.96530912 18.234375 27.23828125 C18.86441663 32.38509001 18.85297049 37.55693237 18.81079102 42.73486328 C18.79693327 45.10332295 18.83108757 47.46780971 18.86914062 49.8359375 C18.93634109 62.9396 16.25275177 73.83193368 7.4765625 84.015625 C1.76456075 89.67787064 -4.40560258 93.13396988 -11.765625 96.23828125 C2.46399381 96.63706745 16.6927358 96.93483772 30.92681313 97.11908817 C37.53782455 97.20755724 44.14506531 97.32737795 50.75390625 97.52075195 C57.14093963 97.70645102 63.52436511 97.80730442 69.91389084 97.85119438 C72.3423073 97.88243744 74.77054138 97.94345864 77.19740677 98.03569221 C89.97309614 98.87041384 89.97309614 98.87041384 101.61263275 94.58121872 C105.79145357 90.63252011 108.96539905 86.15654722 111.95658493 81.26971245 C113.72512231 78.45809096 115.76922282 76.01531648 117.921875 73.48828125 C118.61796875 72.63878906 119.3140625 71.78929687 120.03125 70.9140625 C120.75828125 70.03105469 121.4853125 69.14804688 122.234375 68.23828125 C122.65783203 67.72313965 123.08128906 67.20799805 123.51757812 66.67724609 C143.80434923 42.07771178 143.80434923 42.07771178 155.921875 40.87109375 C162.92048263 40.56453538 167.54707758 40.72481556 173.234375 45.23828125 C178.12358053 50.78819023 178.79209819 54.40315846 178.6796875 61.75 C177.33525743 72.28136891 167.3920596 81.09059875 160.78515625 88.97265625 C157.67216413 92.69259442 154.64940189 96.47198141 151.671875 100.30078125 C147.27807663 105.94057005 142.79761916 111.50391969 138.26342773 117.03149414 C132.81755005 123.69170935 127.55426127 130.46751691 122.234375 137.23828125 C93.194375 137.23828125 64.154375 137.23828125 34.234375 137.23828125 C34.234375 204.22828125 34.234375 271.21828125 34.234375 340.23828125 C31.2988794 337.30278565 28.57669534 334.55491193 25.921875 331.42578125 C24.69601473 330.02704325 23.46680315 328.63123575 22.234375 327.23828125 C21.66203125 326.58601563 21.0896875 325.93375 20.5 325.26171875 C15.89237533 320.31935212 10.80122048 316.79430451 5.07006836 313.29516602 C2.14423744 311.50722582 -0.49730143 309.83416057 -2.765625 307.23828125 C-2.07726562 306.27341797 -2.07726562 306.27341797 -1.375 305.2890625 C5.85951206 294.63487562 8.86194584 284.04660581 9.234375 271.23828125 C9.29431641 269.56958984 9.29431641 269.56958984 9.35546875 267.8671875 C9.71154201 249.07908644 6.27796234 232.39027661 -6.765625 218.23828125 C-20.48075471 205.59734352 -35.32379034 202.39654738 -53.29101562 203.0546875 C-60.7155448 203.60552076 -67.04061742 206.23108662 -73.4543457 209.82348633 C-74.26241165 210.27524734 -75.0704776 210.72700836 -75.9030304 211.19245911 C-76.51768661 211.53758041 -77.13234283 211.88270172 -77.765625 212.23828125 C-77.77775528 210.99586418 -77.77775528 210.99586418 -77.79013062 209.72834778 C-77.86813155 201.91550009 -77.95543886 194.10282342 -78.05315208 186.29019642 C-78.10305825 182.27382156 -78.14938867 178.25747227 -78.1875 174.2409668 C-78.22442474 170.36346419 -78.27080397 166.48617855 -78.32368851 162.60886192 C-78.34219432 161.13096619 -78.35731633 159.65302402 -78.36896896 158.17505836 C-78.38589709 156.10191342 -78.41494674 154.02926123 -78.44677734 151.95629883 C-78.46010101 150.77715408 -78.47342468 149.59800934 -78.4871521 148.38313293 C-78.76491033 145.24635216 -79.32638218 143.02882883 -80.765625 140.23828125 C-83.56432527 138.83893112 -85.67061292 138.9856272 -88.765625 139.23828125 C-91.32512046 141.091709 -91.74481298 142.17584518 -92.765625 145.23828125 C-92.86521249 147.9134754 -92.90930801 150.56338433 -92.9074707 153.23876953 C-92.91094513 154.05380447 -92.91441956 154.86883942 -92.91799927 155.70857239 C-92.92535283 157.47972049 -92.93070035 159.25087778 -92.93428993 161.02203751 C-92.94146306 163.83083786 -92.95713775 166.63946428 -92.97563171 169.44821167 C-93.02804885 177.43485065 -93.07603527 185.42139597 -93.09155273 193.40820312 C-93.10166791 198.29424849 -93.13108521 203.17985824 -93.17287254 208.06573105 C-93.18514069 209.92270478 -93.19031149 211.77974017 -93.18807411 213.63675308 C-93.17197941 231.36178794 -93.17197941 231.36178794 -97.765625 239.23828125 C-99.92456096 245.56204326 -100.36046717 252.11565398 -100.890625 258.73828125 C-100.97699219 259.75148438 -101.06335938 260.7646875 -101.15234375 261.80859375 C-101.36258172 264.28472983 -101.56687067 266.76120151 -101.765625 269.23828125 C-106.49649341 266.77936282 -109.56991515 264.88616351 -112.578125 260.36328125 C-113.14144531 259.54085938 -113.70476562 258.7184375 -114.28515625 257.87109375 C-117.93181808 251.38600122 -118.06257203 245.54659243 -118.05615234 238.28271484 C-118.06286957 237.18920715 -118.06958679 236.09569946 -118.07650757 234.96905518 C-118.09548544 231.35822995 -118.09941212 227.74759073 -118.1015625 224.13671875 C-118.10799205 221.61813278 -118.11472053 219.09954755 -118.12173462 216.58096313 C-118.13370793 211.30021973 -118.13750135 206.01952325 -118.13623047 200.73876953 C-118.13503186 194.66187183 -118.15608238 188.5853309 -118.1877178 182.50852334 C-118.21718355 176.63629988 -118.22420208 170.76421568 -118.22301102 164.89192581 C-118.22536151 162.40659761 -118.23415371 159.9212664 -118.24967575 157.43598557 C-118.26942032 153.94710067 -118.26346305 150.45911634 -118.25146484 146.97021484 C-118.26270386 145.95680023 -118.27394287 144.94338562 -118.28552246 143.89926147 C-118.16612304 130.13550446 -112.6881363 119.44205522 -103.453125 109.48828125 C-93.95339312 100.49746358 -82.69925364 96.82392912 -69.8203125 96.7265625 C-68.92442413 96.7086113 -68.02853577 96.6906601 -67.10549927 96.67216492 C-64.28392041 96.61859805 -61.4625053 96.58434057 -58.640625 96.55078125 C-56.71091496 96.51756068 -54.78122639 96.48306674 -52.8515625 96.44726562 C-48.15636931 96.36290342 -43.46122014 96.29583934 -38.765625 96.23828125 C-39.42731689 95.99158691 -40.08900879 95.74489258 -40.77075195 95.49072266 C-52.75891543 90.8857073 -61.08337821 83.69093655 -66.82885742 72.09179688 C-70.27272992 64.05277288 -70.41209485 56.3414728 -70.34204102 47.74169922 C-70.32818327 45.37323955 -70.36233757 43.00875279 -70.40039062 40.640625 C-70.46755135 27.54471059 -67.79780576 16.6148231 -58.9921875 6.45703125 C-43.12490467 -9.3545769 -18.95788455 -12.07627957 0 0 Z " fill="#000000" transform="translate(133.765625,110.76171875)"/>
</svg>
