<?xml version="1.0" encoding="UTF-8"?>
<svg version="1.1" xmlns="http://www.w3.org/2000/svg" width="168" height="208">
<path d="M0 0 C0.89074219 -0.01224609 1.78148437 -0.02449219 2.69921875 -0.03710938 C17.60855997 -0.06956803 31.48799553 4.70607297 43.75 13.1875 C44.74 14.1775 44.74 14.1775 45.75 15.1875 C45.62245851 20.05958478 42.78958963 22.92646059 39.6875 26.375 C38.67213146 27.53815055 37.65781455 28.70221993 36.64453125 29.8671875 C36.14646973 30.4353418 35.6484082 31.00349609 35.13525391 31.58886719 C33.32279647 33.68050823 31.59259195 35.83002302 29.875 38 C26.43275828 42.34327841 22.94018484 46.64300103 19.4375 50.9375 C15.27735335 56.04117271 11.17027211 61.17988065 7.125 66.375 C3.16430027 71.45740884 -0.93308477 76.39734302 -5.12329102 81.29150391 C-8.45523302 85.20118794 -11.65644353 89.19738085 -14.8125 93.25 C-18.43451842 97.89121795 -22.0794949 102.50980485 -25.8125 107.0625 C-26.61816406 108.04992187 -27.42382812 109.03734375 -28.25390625 110.0546875 C-28.91261719 110.75851563 -29.57132813 111.46234375 -30.25 112.1875 C-30.91 112.1875 -31.57 112.1875 -32.25 112.1875 C-32.25 113.8375 -32.25 115.4875 -32.25 117.1875 C-31.38375 117.455625 -30.5175 117.72375 -29.625 118 C-26.33208036 119.15861987 -23.33872125 120.56959839 -20.25 122.1875 C-19.92 121.5275 -19.59 120.8675 -19.25 120.1875 C-18.26 120.1875 -17.27 120.1875 -16.25 120.1875 C-16.25 120.8475 -16.25 121.5075 -16.25 122.1875 C-15.59 122.1875 -14.93 122.1875 -14.25 122.1875 C-14.25 120.2075 -14.25 118.2275 -14.25 116.1875 C-13.26 116.1875 -12.27 116.1875 -11.25 116.1875 C-11.25 117.8375 -11.25 119.4875 -11.25 121.1875 C-6.34589603 120.03257036 -6.34589603 120.03257036 -2.125 117.4375 C-1.50625 117.025 -0.8875 116.6125 -0.25 116.1875 C2.88759973 117.00925231 4.45255875 117.89005875 6.75 120.1875 C8.73821313 120.58514263 10.73944339 120.92525349 12.75 121.1875 C12.75 119.5375 12.75 117.8875 12.75 116.1875 C13.74 116.1875 14.73 116.1875 15.75 116.1875 C15.75 118.1675 15.75 120.1475 15.75 122.1875 C16.41 122.1875 17.07 122.1875 17.75 122.1875 C17.75 121.5275 17.75 120.8675 17.75 120.1875 C18.74 120.1875 19.73 120.1875 20.75 120.1875 C21.08 121.5075 21.41 122.8275 21.75 124.1875 C22.62736816 123.94515625 23.50473633 123.7028125 24.40869141 123.453125 C27.6834474 122.55249133 30.95992753 121.65875149 34.23779297 120.76953125 C35.65259978 120.38423317 37.06667822 119.99624961 38.47998047 119.60546875 C40.51862213 119.04229219 42.55974008 118.48901758 44.6015625 117.9375 C46.43968506 117.43476563 46.43968506 117.43476563 48.31494141 116.921875 C51.58230445 116.22335133 54.42266692 116.04496364 57.75 116.1875 C53.88153324 127.61250546 41.7350175 134.11114883 31.625 139.4375 C15.33639581 147.19873676 -5.16461612 147.67200081 -22.37890625 142.6328125 C-35.37801657 138.02291502 -45.67229644 131.02318885 -55.25 121.1875 C-55.87132812 120.71054688 -56.49265625 120.23359375 -57.1328125 119.7421875 C-58.25 118.1875 -58.25 118.1875 -58.2109375 115.34375 C-57.06526365 111.5807237 -55.48661314 109.6204157 -52.875 106.6875 C-51.95508664 105.63189984 -51.03719117 104.57453851 -50.12109375 103.515625 C-49.64526855 102.96970703 -49.16944336 102.42378906 -48.67919922 101.86132812 C-46.34171945 99.1237536 -44.14299888 96.2816553 -41.9375 93.4375 C-37.91834364 88.27945103 -33.8259609 83.18775954 -29.6875 78.125 C-24.96138485 72.33904749 -20.37331219 66.47262378 -15.84375 60.53125 C-12.88788034 56.68861944 -9.81861188 52.9402541 -6.75 49.1875 C-2.63306947 44.14566835 1.45096725 39.08332121 5.4375 33.9375 C6.22511719 32.92171875 7.01273437 31.9059375 7.82421875 30.859375 C9.41308889 28.65493854 10.58298391 26.61935034 11.75 24.1875 C-4.35240276 23.76839048 -17.19208919 24.06749981 -31.65625 31.8828125 C-33.90101 33.01195382 -35.79850758 33.71339062 -38.25 34.1875 C-39.98267791 32.22606967 -41.70835061 30.25946515 -43.421875 28.28125 C-44.83578665 26.6618982 -46.28579342 25.07402207 -47.75 23.5 C-49.25 21.1875 -49.25 21.1875 -49.12109375 18.76171875 C-47.05232951 12.64819573 -38.79913032 9.35615683 -33.375 6.4375 C-27.88906221 3.80701879 -22.19429241 2.38935147 -16.25 1.1875 C-15.3528125 1.00058594 -14.455625 0.81367187 -13.53125 0.62109375 C-9.01228384 0.02394465 -4.55345849 0.00323859 0 0 Z " fill="#FBFCFC" transform="translate(85.25,31.8125)"/>
</svg>
